<svg width="21" height="18" viewBox="0 0 21 18" fill="none" xmlns="http://www.w3.org/2000/svg">
<path d="M10.8609 13.3937L14.9953 15.6412C15.5285 15.9291 16.1848 15.5007 16.0289 14.974L14.8313 10.9425C14.7989 10.8308 14.804 10.7135 14.8461 10.6041C14.8882 10.4948 14.9655 10.3978 15.0691 10.3245L18.777 7.67664C19.2609 7.33249 19.0148 6.63717 18.3832 6.60205L13.5434 6.33516C13.4113 6.32859 13.2843 6.28921 13.178 6.22186C13.0717 6.15451 12.9905 6.06209 12.9445 5.9559L11.1398 2.06493C11.0921 1.95249 11.005 1.85535 10.8906 1.78672C10.7761 1.71808 10.6398 1.68126 10.5 1.68126C10.3603 1.68126 10.2239 1.71808 10.1094 1.78672C9.99496 1.85535 9.90793 1.95249 9.86016 2.06493L8.05547 5.9559C8.00948 6.06209 7.92835 6.15451 7.822 6.22186C7.71566 6.28921 7.5887 6.32859 7.45664 6.33516L2.6168 6.60205C1.98516 6.63717 1.73906 7.33249 2.22305 7.67664L5.93086 10.3245C6.03449 10.3978 6.11181 10.4948 6.1539 10.6041C6.19599 10.7135 6.20114 10.8308 6.16875 10.9425L5.06133 14.679C4.87266 15.3111 5.66016 15.8238 6.2918 15.4796L10.1391 13.3937C10.2469 13.335 10.3722 13.3038 10.5 13.3038C10.6279 13.3038 10.7531 13.335 10.8609 13.3937Z" fill="#57C6FF"/>
<path d="M10.8609 13.3937L14.9953 15.6412C15.5285 15.9291 16.1848 15.5007 16.0289 14.974L14.8313 10.9425C14.7989 10.8308 14.804 10.7135 14.8461 10.6041C14.8882 10.4948 14.9655 10.3978 15.0691 10.3245L18.777 7.67664C19.2609 7.33249 19.0148 6.63717 18.3832 6.60205L13.5434 6.33516C13.4113 6.32859 13.2843 6.28921 13.178 6.22186C13.0717 6.15451 12.9905 6.06209 12.9445 5.9559L11.1398 2.06493C11.0921 1.95249 11.005 1.85535 10.8906 1.78672C10.7761 1.71808 10.6398 1.68126 10.5 1.68126C10.3603 1.68126 10.2239 1.71808 10.1094 1.78672C9.99496 1.85535 9.90793 1.95249 9.86016 2.06493L8.05547 5.9559C8.00948 6.06209 7.92835 6.15451 7.822 6.22186C7.71566 6.28921 7.5887 6.32859 7.45664 6.33516L2.6168 6.60205C1.98516 6.63717 1.73906 7.33249 2.22305 7.67664L5.93086 10.3245C6.03449 10.3978 6.11181 10.4948 6.1539 10.6041C6.19599 10.7135 6.20114 10.8308 6.16875 10.9425L5.06133 14.679C4.87266 15.3111 5.66016 15.8238 6.2918 15.4796L10.1391 13.3937C10.2469 13.335 10.3722 13.3038 10.5 13.3038C10.6279 13.3038 10.7531 13.335 10.8609 13.3937Z" stroke="#57C6FF"/>
<path d="M10.8609 13.3937L14.9953 15.6412C15.5285 15.9291 16.1848 15.5007 16.0289 14.974L14.8313 10.9425C14.7989 10.8308 14.804 10.7135 14.8461 10.6041C14.8882 10.4948 14.9655 10.3978 15.0691 10.3245L18.777 7.67664C19.2609 7.33249 19.0148 6.63717 18.3832 6.60205L13.5434 6.33516C13.4113 6.32859 13.2843 6.28921 13.178 6.22186C13.0717 6.15451 12.9905 6.06209 12.9445 5.9559L11.1398 2.06493C11.0921 1.95249 11.005 1.85535 10.8906 1.78672C10.7761 1.71808 10.6398 1.68126 10.5 1.68126C10.3603 1.68126 10.2239 1.71808 10.1094 1.78672C9.99496 1.85535 9.90793 1.95249 9.86016 2.06493L8.05547 5.9559C8.00948 6.06209 7.92835 6.15451 7.822 6.22186C7.71566 6.28921 7.5887 6.32859 7.45664 6.33516L2.6168 6.60205C1.98516 6.63717 1.73906 7.33249 2.22305 7.67664L5.93086 10.3245C6.03449 10.3978 6.11181 10.4948 6.1539 10.6041C6.19599 10.7135 6.20114 10.8308 6.16875 10.9425L5.06133 14.679C4.87266 15.3111 5.66016 15.8238 6.2918 15.4796L10.1391 13.3937C10.2469 13.335 10.3722 13.3038 10.5 13.3038C10.6279 13.3038 10.7531 13.335 10.8609 13.3937Z" stroke="black" stroke-opacity="0.2"/>
<path d="M10.8609 13.3937L14.9953 15.6412C15.5285 15.9291 16.1848 15.5007 16.0289 14.974L14.8313 10.9425C14.7989 10.8308 14.804 10.7135 14.8461 10.6041C14.8882 10.4948 14.9655 10.3978 15.0691 10.3245L18.777 7.67664C19.2609 7.33249 19.0148 6.63717 18.3832 6.60205L13.5434 6.33516C13.4113 6.32859 13.2843 6.28921 13.178 6.22186C13.0717 6.15451 12.9905 6.06209 12.9445 5.9559L11.1398 2.06493C11.0921 1.95249 11.005 1.85535 10.8906 1.78672C10.7761 1.71808 10.6398 1.68126 10.5 1.68126C10.3603 1.68126 10.2239 1.71808 10.1094 1.78672C9.99496 1.85535 9.90793 1.95249 9.86016 2.06493L8.05547 5.9559C8.00948 6.06209 7.92835 6.15451 7.822 6.22186C7.71566 6.28921 7.5887 6.32859 7.45664 6.33516L2.6168 6.60205C1.98516 6.63717 1.73906 7.33249 2.22305 7.67664L5.93086 10.3245C6.03449 10.3978 6.11181 10.4948 6.1539 10.6041C6.19599 10.7135 6.20114 10.8308 6.16875 10.9425L5.06133 14.679C4.87266 15.3111 5.66016 15.8238 6.2918 15.4796L10.1391 13.3937C10.2469 13.335 10.3722 13.3038 10.5 13.3038C10.6279 13.3038 10.7531 13.335 10.8609 13.3937Z" stroke="black" stroke-opacity="0.2"/>
</svg>
