<svg width="40" height="40" viewBox="0 0 40 40" fill="none" xmlns="http://www.w3.org/2000/svg">
<circle cx="20" cy="20" r="20" fill="#FF9060"/>
<mask id="mask0_57_5248" style="mask-type:luminance" maskUnits="userSpaceOnUse" x="0" y="0" width="40" height="40">
<circle cx="20" cy="20" r="20" fill="white"/>
</mask>
<g mask="url(#mask0_57_5248)">
<path fill-rule="evenodd" clip-rule="evenodd" d="M10.9411 35.8861C7.64122 43.574 29.9492 45.9968 29.9492 39.7061C29.9492 33.4153 28.5835 28.7951 21.1642 30.3636C21.1642 30.3636 14.241 28.1981 10.9411 35.8861Z" fill="#E0FF66"/>
<path fill-rule="evenodd" clip-rule="evenodd" d="M23.7523 24.1122L17.2936 24.9046L17.234 30.6077C17.234 30.6077 17.6045 32.085 20.9443 32.1263C24.0964 32.1655 24.3062 30.5396 24.3062 30.5396L23.7523 24.1122Z" fill="#F5CDC0"/>
<path fill-rule="evenodd" clip-rule="evenodd" d="M23.9134 26.694L23.7524 24.1122L23.9134 26.694Z" fill="#E5B4AD"/>
<path opacity="0.140137" fill-rule="evenodd" clip-rule="evenodd" d="M17.5909 29.702C17.3795 29.702 17.2598 29.6919 17.2598 29.6919L17.2936 25.2084L23.7524 24.1122L23.9134 26.694C21.8046 29.4655 18.6176 29.702 17.5909 29.702Z" fill="#E49789"/>
<path fill-rule="evenodd" clip-rule="evenodd" d="M13.8503 16.7927C13.8503 12.6618 16.8437 9.31288 20.5365 9.31288C24.2288 9.31288 27.2222 12.6618 27.2222 16.7927C27.2222 20.9238 24.2288 24.2725 20.5365 24.2725C16.8437 24.2725 13.8503 20.9238 13.8503 16.7927Z" fill="#7B0000"/>
<path fill-rule="evenodd" clip-rule="evenodd" d="M27.9884 20.5166C27.9884 21.1443 27.225 22.0328 26.349 21.7774C25.7461 21.6019 24.9748 21.1443 24.9748 20.5166C24.9748 19.8891 25.8538 19.2583 26.4816 19.2583C27.4944 19.2583 27.9884 19.8891 27.9884 20.5166Z" fill="#F5CDC0"/>
<path fill-rule="evenodd" clip-rule="evenodd" d="M26.8518 20.9822C26.853 20.8452 26.8755 20.7102 26.9204 20.5807C26.968 20.4516 27.0182 20.3204 27.1616 20.2127C27.194 20.1871 27.2527 20.1679 27.304 20.1677C27.3313 20.1702 27.3615 20.1721 27.3852 20.181C27.4068 20.1923 27.4289 20.204 27.4491 20.2179C27.4873 20.246 27.5068 20.2796 27.5345 20.3108C27.5706 20.3631 27.5702 20.4077 27.5725 20.4458C27.5732 20.5962 27.5275 20.7227 27.4695 20.8475C27.454 20.7133 27.4458 20.576 27.4223 20.4641C27.415 20.4378 27.4045 20.4141 27.3996 20.4138L27.3449 20.369C27.3099 20.3474 27.3033 20.3554 27.2672 20.3751C27.194 20.422 27.1227 20.5389 27.0574 20.6438C26.9933 20.7539 26.9248 20.8667 26.8518 20.9822Z" fill="#EEA08E"/>
<path fill-rule="evenodd" clip-rule="evenodd" d="M12.9933 20.5166C12.9933 21.1443 13.7566 22.0328 14.6329 21.7774C15.2355 21.6019 16.0069 21.1443 16.0069 20.5166C16.0069 19.8891 15.1278 19.2583 14.5001 19.2583C13.4875 19.2583 12.9933 19.8891 12.9933 20.5166Z" fill="#F5CDC0"/>
<path fill-rule="evenodd" clip-rule="evenodd" d="M14.1298 20.9822C14.0568 20.8667 13.9883 20.7539 13.9242 20.6438C13.8592 20.5389 13.7876 20.422 13.7146 20.3751C13.6783 20.3554 13.6717 20.3474 13.637 20.369L13.5821 20.4138C13.5774 20.4141 13.5666 20.4378 13.5595 20.4641C13.5358 20.576 13.5278 20.7133 13.5121 20.8475C13.4542 20.7227 13.4084 20.5962 13.4093 20.4458C13.4114 20.4077 13.411 20.3631 13.4471 20.3108C13.4748 20.2796 13.4943 20.246 13.5325 20.2179C13.5527 20.204 13.5748 20.1923 13.5966 20.181C13.6203 20.1721 13.6503 20.1702 13.6776 20.1677C13.729 20.1679 13.7876 20.1871 13.82 20.2127C13.9634 20.3204 14.0136 20.4516 14.0612 20.5807C14.1061 20.7102 14.1286 20.8452 14.1298 20.9822Z" fill="#EEA08E"/>
<path fill-rule="evenodd" clip-rule="evenodd" d="M26.4774 18.8822C26.5893 23.2647 24.5148 27.4535 20.912 27.5457C17.3091 27.6377 14.7069 23.8966 14.5949 19.5142C14.4828 15.132 16.9031 11.7676 20.5062 11.6756C24.1091 11.5833 26.3652 14.4998 26.4774 18.8822Z" fill="#F5CDC0"/>
<path fill-rule="evenodd" clip-rule="evenodd" d="M27.8424 10.3893C27.8424 12.8073 25.8822 14.7675 23.4642 14.7675C21.046 14.7675 19.0858 12.8073 19.0858 10.3893C19.0858 7.9713 21.046 6.01112 23.4642 6.01112C25.8822 6.01112 27.8424 7.9713 27.8424 10.3893Z" fill="#7B0000"/>
<path fill-rule="evenodd" clip-rule="evenodd" d="M17.5435 10.2867C17.5435 10.2867 19.9373 17.8857 26.5785 18.5527C26.5785 18.5527 28.7102 10.1044 19.7459 10.1044L17.5435 10.2867Z" fill="#7B0000"/>
<path fill-rule="evenodd" clip-rule="evenodd" d="M14.3579 19.2583C14.3579 19.2583 14.4243 19.0062 14.3882 18.2398C14.23 14.8862 15.6979 11.7362 18.0687 10.1276L19.2181 9.49437L18.5198 12.5751C18.5198 12.5751 19.7933 16.4102 14.3579 19.2583Z" fill="#7B0000"/>
<path fill-rule="evenodd" clip-rule="evenodd" d="M18.5181 19.1047C18.5122 19.3473 18.3618 19.5404 18.1818 19.536C18.0023 19.5317 17.8612 19.3313 17.8673 19.0887C17.873 18.846 18.0236 18.6532 18.2034 18.6574C18.3831 18.6618 18.5239 18.862 18.5181 19.1047Z" fill="#172133"/>
<path fill-rule="evenodd" clip-rule="evenodd" d="M23.2056 19.1047C23.1997 19.3473 23.0491 19.5404 22.8695 19.536C22.6898 19.5317 22.5487 19.3313 22.5548 19.0887C22.5605 18.846 22.7111 18.6532 22.8907 18.6574C23.0706 18.6618 23.2114 18.862 23.2056 19.1047Z" fill="#172133"/>
<path fill-rule="evenodd" clip-rule="evenodd" d="M19.178 21.3999C19.4063 21.6609 19.6396 21.8998 19.8947 22.0866C20.15 22.2698 20.4276 22.3933 20.708 22.3839C20.9892 22.3867 21.2717 22.2595 21.5413 22.0906C21.811 21.9171 22.0632 21.6963 22.3343 21.4769C22.1953 21.7963 21.9982 22.091 21.7328 22.336C21.6 22.4595 21.4477 22.5646 21.2771 22.6493C21.1041 22.7277 20.9108 22.7777 20.7118 22.7826C20.513 22.7817 20.3145 22.7359 20.1408 22.6521C19.9688 22.5646 19.8149 22.4536 19.69 22.3198C19.4373 22.0565 19.2615 21.7395 19.178 21.3999Z" fill="#D1746F"/>
<path fill-rule="evenodd" clip-rule="evenodd" d="M20.3358 20.5756C20.4266 20.4376 20.5364 20.3294 20.6533 20.232C20.7688 20.133 20.8936 20.0483 21.0243 19.9734L21.017 20.3266C20.9039 20.241 20.8211 20.1391 20.757 20.0333C20.6939 19.9265 20.646 19.819 20.6129 19.7073C20.5442 19.4863 20.516 19.2591 20.5425 19.0303C20.6686 19.2211 20.7772 19.4055 20.8924 19.575C20.9534 19.6566 21.006 19.7414 21.071 19.8087C21.1334 19.8772 21.1963 19.9378 21.259 19.9781L21.5188 20.1457L21.2515 20.3315C21.1278 20.4179 20.998 20.4946 20.8591 20.5568C20.7211 20.6207 20.5763 20.6739 20.4128 20.6969C20.3696 20.703 20.3297 20.673 20.3236 20.63L20.3358 20.5756Z" fill="#D1746F"/>
</g>
</svg>
