<svg width="18" height="35" viewBox="0 0 18 35" fill="none" xmlns="http://www.w3.org/2000/svg">
<path d="M17.3667 9.30786C17.198 9.13417 16.9731 9.07628 16.7481 9.13417L7.97547 12.3184L12.0806 0.855171C12.1369 0.681486 12.1369 0.5078 12.0244 0.334115C11.9119 0.16043 11.7432 0.102535 11.5745 0.102535H2.91431C2.63314 0.102535 2.4082 0.334115 2.35196 0.623591L0.102558 18.3395C0.102558 18.5132 0.158793 18.6869 0.271263 18.8606C0.383733 18.9763 0.608674 19.0342 0.777379 19.0342L9.77499 17.3553L6.85077 34.2606C6.79453 34.5501 6.96324 34.8396 7.24441 34.8975C7.30065 34.8975 7.35688 34.8975 7.41312 34.8975C7.63806 34.8975 7.863 34.7817 7.91923 34.5501L17.4792 10.0026C17.5917 9.71312 17.5354 9.48154 17.3667 9.30786Z" fill="#3E64E9"/>
<path d="M16.7481 9.13417L16.7225 9.03439L16.7131 9.03777L16.7481 9.13417ZM7.97547 12.3184L7.87891 12.2838L7.80534 12.4893L8.01046 12.4148L7.97547 12.3184ZM12.0806 0.855171L12.1772 0.889765L12.1782 0.886763L12.0806 0.855171ZM2.35196 0.623591L2.25107 0.60399L2.25022 0.610672L2.35196 0.623591ZM0.102558 18.3395L-1.56647e-06 18.3265V18.3395H0.102558ZM0.271263 18.8606L0.185177 18.9163L0.190663 18.9248L0.197696 18.932L0.271263 18.8606ZM0.777379 19.0342V19.1368H0.786866L0.796192 19.1351L0.777379 19.0342ZM9.77499 17.3553L9.87605 17.3728L9.90119 17.2274L9.75618 17.2545L9.77499 17.3553ZM6.85077 34.2606L6.95146 34.2802L6.95182 34.2781L6.85077 34.2606ZM7.24441 34.8975L7.22373 34.9979L7.23396 35.0001H7.24441V34.8975ZM7.91923 34.5501L7.82281 34.5126L7.81957 34.5259L7.91923 34.5501ZM17.4792 10.0026L17.5748 10.0398L17.5748 10.0397L17.4792 10.0026ZM17.4403 9.2364C17.2453 9.03562 16.9822 8.96802 16.7226 9.03485L16.7737 9.2335C16.9639 9.18454 17.1508 9.23272 17.2932 9.37932L17.4403 9.2364ZM16.7131 9.03777L7.94047 12.222L8.01046 12.4148L16.7831 9.23058L16.7131 9.03777ZM8.07202 12.353L12.1772 0.889749L11.9841 0.820593L7.87891 12.2838L8.07202 12.353ZM12.1782 0.886763C12.2415 0.691298 12.2436 0.483975 12.1105 0.27837L11.9383 0.389861C12.0301 0.531626 12.0322 0.671674 11.9831 0.823579L12.1782 0.886763ZM12.1105 0.27837C11.9743 0.0680467 11.7681 -2.50405e-05 11.5745 -2.50405e-05V0.205094C11.7184 0.205094 11.8496 0.252813 11.9383 0.389861L12.1105 0.27837ZM11.5745 -2.50405e-05H2.91431V0.205094H11.5745V-2.50405e-05ZM2.91431 -2.50405e-05C2.57161 -2.50405e-05 2.31429 0.27969 2.25128 0.604033L2.45264 0.643149C2.5021 0.38854 2.69466 0.205094 2.91431 0.205094V-2.50405e-05ZM2.25022 0.610672L0.00081528 18.3266L0.204301 18.3524L2.4537 0.636509L2.25022 0.610672ZM-1.56647e-06 18.3395C-1.56647e-06 18.5365 0.0640408 18.7292 0.185177 18.9163L0.35735 18.8048C0.253546 18.6445 0.205118 18.4899 0.205118 18.3395H-1.56647e-06ZM0.197696 18.932C0.270256 19.0067 0.372309 19.0569 0.472262 19.0886C0.573558 19.1207 0.682411 19.1368 0.777379 19.1368V18.9317C0.703642 18.9317 0.615672 18.9188 0.534204 18.893C0.451393 18.8668 0.384741 18.8302 0.344831 18.7891L0.197696 18.932ZM0.796192 19.1351L9.7938 17.4561L9.75618 17.2545L0.758566 18.9334L0.796192 19.1351ZM9.67393 17.3378L6.74971 34.2432L6.95182 34.2781L9.87605 17.3728L9.67393 17.3378ZM6.75009 34.2411C6.68472 34.5776 6.87971 34.9271 7.22373 34.9979L7.26509 34.797C7.04676 34.7521 6.90434 34.5227 6.95144 34.2802L6.75009 34.2411ZM7.24441 35.0001C7.24452 35.0001 7.24463 35.0001 7.24474 35.0001C7.24485 35.0001 7.24496 35.0001 7.24507 35.0001C7.24518 35.0001 7.24529 35.0001 7.2454 35.0001C7.24551 35.0001 7.24562 35.0001 7.24573 35.0001C7.24584 35.0001 7.24595 35.0001 7.24606 35.0001C7.24617 35.0001 7.24628 35.0001 7.24639 35.0001C7.2465 35.0001 7.24661 35.0001 7.24672 35.0001C7.24683 35.0001 7.24694 35.0001 7.24705 35.0001C7.24716 35.0001 7.24727 35.0001 7.24738 35.0001C7.24749 35.0001 7.2476 35.0001 7.24771 35.0001C7.24782 35.0001 7.24793 35.0001 7.24804 35.0001C7.24814 35.0001 7.24825 35.0001 7.24836 35.0001C7.24847 35.0001 7.24858 35.0001 7.24869 35.0001C7.2488 35.0001 7.24891 35.0001 7.24902 35.0001C7.24913 35.0001 7.24924 35.0001 7.24935 35.0001C7.24946 35.0001 7.24957 35.0001 7.24968 35.0001C7.24979 35.0001 7.2499 35.0001 7.25001 35.0001C7.25012 35.0001 7.25023 35.0001 7.25034 35.0001C7.25045 35.0001 7.25056 35.0001 7.25067 35.0001C7.25078 35.0001 7.25089 35.0001 7.251 35.0001C7.25111 35.0001 7.25122 35.0001 7.25133 35.0001C7.25144 35.0001 7.25155 35.0001 7.25166 35.0001C7.25177 35.0001 7.25188 35.0001 7.25199 35.0001C7.2521 35.0001 7.25221 35.0001 7.25232 35.0001C7.25243 35.0001 7.25254 35.0001 7.25265 35.0001C7.25276 35.0001 7.25287 35.0001 7.25298 35.0001C7.25309 35.0001 7.2532 35.0001 7.25331 35.0001C7.25342 35.0001 7.25353 35.0001 7.25364 35.0001C7.25375 35.0001 7.25386 35.0001 7.25397 35.0001C7.25408 35.0001 7.25419 35.0001 7.2543 35.0001C7.25441 35.0001 7.25452 35.0001 7.25463 35.0001C7.25474 35.0001 7.25484 35.0001 7.25495 35.0001C7.25506 35.0001 7.25517 35.0001 7.25528 35.0001C7.25539 35.0001 7.2555 35.0001 7.25561 35.0001C7.25572 35.0001 7.25583 35.0001 7.25594 35.0001C7.25605 35.0001 7.25616 35.0001 7.25627 35.0001C7.25638 35.0001 7.25649 35.0001 7.2566 35.0001C7.25671 35.0001 7.25682 35.0001 7.25693 35.0001C7.25704 35.0001 7.25715 35.0001 7.25726 35.0001C7.25737 35.0001 7.25748 35.0001 7.25759 35.0001C7.2577 35.0001 7.25781 35.0001 7.25792 35.0001C7.25803 35.0001 7.25814 35.0001 7.25825 35.0001C7.25836 35.0001 7.25847 35.0001 7.25858 35.0001C7.25869 35.0001 7.2588 35.0001 7.25891 35.0001C7.25902 35.0001 7.25913 35.0001 7.25924 35.0001C7.25935 35.0001 7.25946 35.0001 7.25957 35.0001C7.25968 35.0001 7.25979 35.0001 7.2599 35.0001C7.26001 35.0001 7.26012 35.0001 7.26023 35.0001C7.26034 35.0001 7.26045 35.0001 7.26056 35.0001C7.26067 35.0001 7.26078 35.0001 7.26089 35.0001C7.261 35.0001 7.26111 35.0001 7.26122 35.0001C7.26132 35.0001 7.26144 35.0001 7.26154 35.0001C7.26165 35.0001 7.26176 35.0001 7.26187 35.0001C7.26198 35.0001 7.26209 35.0001 7.2622 35.0001C7.26231 35.0001 7.26242 35.0001 7.26253 35.0001C7.26264 35.0001 7.26275 35.0001 7.26286 35.0001C7.26297 35.0001 7.26308 35.0001 7.26319 35.0001C7.2633 35.0001 7.26341 35.0001 7.26352 35.0001C7.26363 35.0001 7.26374 35.0001 7.26385 35.0001C7.26396 35.0001 7.26407 35.0001 7.26418 35.0001C7.26429 35.0001 7.2644 35.0001 7.26451 35.0001C7.26462 35.0001 7.26473 35.0001 7.26484 35.0001C7.26495 35.0001 7.26506 35.0001 7.26517 35.0001C7.26528 35.0001 7.26539 35.0001 7.2655 35.0001C7.26561 35.0001 7.26572 35.0001 7.26583 35.0001C7.26594 35.0001 7.26605 35.0001 7.26616 35.0001C7.26627 35.0001 7.26638 35.0001 7.26649 35.0001C7.2666 35.0001 7.26671 35.0001 7.26682 35.0001C7.26693 35.0001 7.26704 35.0001 7.26715 35.0001C7.26726 35.0001 7.26737 35.0001 7.26748 35.0001C7.26759 35.0001 7.2677 35.0001 7.26781 35.0001C7.26792 35.0001 7.26802 35.0001 7.26813 35.0001C7.26824 35.0001 7.26835 35.0001 7.26846 35.0001C7.26857 35.0001 7.26868 35.0001 7.26879 35.0001C7.2689 35.0001 7.26901 35.0001 7.26912 35.0001C7.26923 35.0001 7.26934 35.0001 7.26945 35.0001C7.26956 35.0001 7.26967 35.0001 7.26978 35.0001C7.26989 35.0001 7.27 35.0001 7.27011 35.0001C7.27022 35.0001 7.27033 35.0001 7.27044 35.0001C7.27055 35.0001 7.27066 35.0001 7.27077 35.0001C7.27088 35.0001 7.27099 35.0001 7.2711 35.0001C7.27121 35.0001 7.27132 35.0001 7.27143 35.0001C7.27154 35.0001 7.27165 35.0001 7.27176 35.0001C7.27187 35.0001 7.27198 35.0001 7.27209 35.0001C7.2722 35.0001 7.27231 35.0001 7.27242 35.0001C7.27253 35.0001 7.27264 35.0001 7.27275 35.0001C7.27286 35.0001 7.27297 35.0001 7.27308 35.0001C7.27319 35.0001 7.2733 35.0001 7.27341 35.0001C7.27352 35.0001 7.27363 35.0001 7.27374 35.0001C7.27385 35.0001 7.27396 35.0001 7.27407 35.0001C7.27418 35.0001 7.27429 35.0001 7.2744 35.0001C7.27451 35.0001 7.27462 35.0001 7.27472 35.0001C7.27483 35.0001 7.27494 35.0001 7.27505 35.0001C7.27516 35.0001 7.27527 35.0001 7.27538 35.0001C7.27549 35.0001 7.2756 35.0001 7.27571 35.0001C7.27582 35.0001 7.27593 35.0001 7.27604 35.0001C7.27615 35.0001 7.27626 35.0001 7.27637 35.0001C7.27648 35.0001 7.27659 35.0001 7.2767 35.0001C7.27681 35.0001 7.27692 35.0001 7.27703 35.0001C7.27714 35.0001 7.27725 35.0001 7.27736 35.0001C7.27747 35.0001 7.27758 35.0001 7.27769 35.0001C7.2778 35.0001 7.27791 35.0001 7.27802 35.0001C7.27813 35.0001 7.27824 35.0001 7.27835 35.0001C7.27846 35.0001 7.27857 35.0001 7.27868 35.0001C7.27879 35.0001 7.2789 35.0001 7.27901 35.0001C7.27912 35.0001 7.27923 35.0001 7.27934 35.0001C7.27945 35.0001 7.27956 35.0001 7.27967 35.0001C7.27978 35.0001 7.27989 35.0001 7.28 35.0001C7.28011 35.0001 7.28022 35.0001 7.28033 35.0001C7.28044 35.0001 7.28055 35.0001 7.28066 35.0001C7.28077 35.0001 7.28088 35.0001 7.28099 35.0001C7.2811 35.0001 7.28121 35.0001 7.28132 35.0001C7.28142 35.0001 7.28153 35.0001 7.28164 35.0001C7.28175 35.0001 7.28186 35.0001 7.28197 35.0001C7.28208 35.0001 7.28219 35.0001 7.2823 35.0001C7.28241 35.0001 7.28252 35.0001 7.28263 35.0001C7.28274 35.0001 7.28285 35.0001 7.28296 35.0001C7.28307 35.0001 7.28318 35.0001 7.28329 35.0001C7.2834 35.0001 7.28351 35.0001 7.28362 35.0001C7.28373 35.0001 7.28384 35.0001 7.28395 35.0001C7.28406 35.0001 7.28417 35.0001 7.28428 35.0001C7.28439 35.0001 7.2845 35.0001 7.28461 35.0001C7.28472 35.0001 7.28483 35.0001 7.28494 35.0001C7.28505 35.0001 7.28516 35.0001 7.28527 35.0001C7.28538 35.0001 7.28549 35.0001 7.2856 35.0001C7.28571 35.0001 7.28582 35.0001 7.28593 35.0001C7.28604 35.0001 7.28615 35.0001 7.28626 35.0001C7.28637 35.0001 7.28648 35.0001 7.28659 35.0001C7.2867 35.0001 7.28681 35.0001 7.28692 35.0001C7.28703 35.0001 7.28714 35.0001 7.28725 35.0001C7.28736 35.0001 7.28747 35.0001 7.28758 35.0001C7.28769 35.0001 7.2878 35.0001 7.2879 35.0001C7.28801 35.0001 7.28812 35.0001 7.28823 35.0001C7.28834 35.0001 7.28845 35.0001 7.28856 35.0001C7.28867 35.0001 7.28878 35.0001 7.28889 35.0001C7.289 35.0001 7.28911 35.0001 7.28922 35.0001C7.28933 35.0001 7.28944 35.0001 7.28955 35.0001C7.28966 35.0001 7.28977 35.0001 7.28988 35.0001C7.28999 35.0001 7.2901 35.0001 7.29021 35.0001C7.29032 35.0001 7.29043 35.0001 7.29054 35.0001C7.29065 35.0001 7.29076 35.0001 7.29087 35.0001C7.29098 35.0001 7.29109 35.0001 7.2912 35.0001C7.29131 35.0001 7.29142 35.0001 7.29153 35.0001C7.29164 35.0001 7.29175 35.0001 7.29186 35.0001C7.29197 35.0001 7.29208 35.0001 7.29219 35.0001C7.2923 35.0001 7.29241 35.0001 7.29252 35.0001C7.29263 35.0001 7.29274 35.0001 7.29285 35.0001C7.29296 35.0001 7.29307 35.0001 7.29318 35.0001C7.29329 35.0001 7.2934 35.0001 7.29351 35.0001C7.29362 35.0001 7.29373 35.0001 7.29384 35.0001C7.29395 35.0001 7.29406 35.0001 7.29417 35.0001C7.29428 35.0001 7.29439 35.0001 7.2945 35.0001C7.2946 35.0001 7.29471 35.0001 7.29482 35.0001C7.29493 35.0001 7.29504 35.0001 7.29515 35.0001C7.29526 35.0001 7.29537 35.0001 7.29548 35.0001C7.29559 35.0001 7.2957 35.0001 7.29581 35.0001C7.29592 35.0001 7.29603 35.0001 7.29614 35.0001C7.29625 35.0001 7.29636 35.0001 7.29647 35.0001C7.29658 35.0001 7.29669 35.0001 7.2968 35.0001C7.29691 35.0001 7.29702 35.0001 7.29713 35.0001C7.29724 35.0001 7.29735 35.0001 7.29746 35.0001C7.29757 35.0001 7.29768 35.0001 7.29779 35.0001C7.2979 35.0001 7.29801 35.0001 7.29812 35.0001C7.29823 35.0001 7.29834 35.0001 7.29845 35.0001C7.29856 35.0001 7.29867 35.0001 7.29878 35.0001C7.29889 35.0001 7.299 35.0001 7.29911 35.0001C7.29922 35.0001 7.29933 35.0001 7.29944 35.0001C7.29955 35.0001 7.29966 35.0001 7.29977 35.0001C7.29988 35.0001 7.29999 35.0001 7.3001 35.0001C7.30021 35.0001 7.30032 35.0001 7.30043 35.0001C7.30054 35.0001 7.30065 35.0001 7.30076 35.0001C7.30087 35.0001 7.30098 35.0001 7.30109 35.0001C7.3012 35.0001 7.3013 35.0001 7.30141 35.0001C7.30152 35.0001 7.30163 35.0001 7.30174 35.0001C7.30185 35.0001 7.30196 35.0001 7.30207 35.0001C7.30218 35.0001 7.30229 35.0001 7.3024 35.0001C7.30251 35.0001 7.30262 35.0001 7.30273 35.0001C7.30284 35.0001 7.30295 35.0001 7.30306 35.0001C7.30317 35.0001 7.30328 35.0001 7.30339 35.0001C7.3035 35.0001 7.30361 35.0001 7.30372 35.0001C7.30383 35.0001 7.30394 35.0001 7.30405 35.0001C7.30416 35.0001 7.30427 35.0001 7.30438 35.0001C7.30449 35.0001 7.3046 35.0001 7.30471 35.0001C7.30482 35.0001 7.30493 35.0001 7.30504 35.0001C7.30515 35.0001 7.30526 35.0001 7.30537 35.0001C7.30548 35.0001 7.30559 35.0001 7.3057 35.0001C7.30581 35.0001 7.30592 35.0001 7.30603 35.0001C7.30614 35.0001 7.30625 35.0001 7.30636 35.0001C7.30647 35.0001 7.30658 35.0001 7.30669 35.0001C7.3068 35.0001 7.30691 35.0001 7.30702 35.0001C7.30713 35.0001 7.30724 35.0001 7.30735 35.0001C7.30746 35.0001 7.30757 35.0001 7.30767 35.0001C7.30779 35.0001 7.3079 35.0001 7.308 35.0001C7.30811 35.0001 7.30822 35.0001 7.30833 35.0001C7.30844 35.0001 7.30855 35.0001 7.30866 35.0001C7.30877 35.0001 7.30888 35.0001 7.30899 35.0001C7.3091 35.0001 7.30921 35.0001 7.30932 35.0001C7.30943 35.0001 7.30954 35.0001 7.30965 35.0001C7.30976 35.0001 7.30987 35.0001 7.30998 35.0001C7.31009 35.0001 7.3102 35.0001 7.31031 35.0001C7.31042 35.0001 7.31053 35.0001 7.31064 35.0001C7.31075 35.0001 7.31086 35.0001 7.31097 35.0001C7.31108 35.0001 7.31119 35.0001 7.3113 35.0001C7.31141 35.0001 7.31152 35.0001 7.31163 35.0001C7.31174 35.0001 7.31185 35.0001 7.31196 35.0001C7.31207 35.0001 7.31218 35.0001 7.31229 35.0001C7.3124 35.0001 7.31251 35.0001 7.31262 35.0001C7.31273 35.0001 7.31284 35.0001 7.31295 35.0001C7.31306 35.0001 7.31317 35.0001 7.31328 35.0001C7.31339 35.0001 7.3135 35.0001 7.31361 35.0001C7.31372 35.0001 7.31383 35.0001 7.31394 35.0001C7.31405 35.0001 7.31416 35.0001 7.31427 35.0001C7.31437 35.0001 7.31448 35.0001 7.31459 35.0001C7.3147 35.0001 7.31481 35.0001 7.31492 35.0001C7.31503 35.0001 7.31514 35.0001 7.31525 35.0001C7.31536 35.0001 7.31547 35.0001 7.31558 35.0001C7.31569 35.0001 7.3158 35.0001 7.31591 35.0001C7.31602 35.0001 7.31613 35.0001 7.31624 35.0001C7.31635 35.0001 7.31646 35.0001 7.31657 35.0001C7.31668 35.0001 7.31679 35.0001 7.3169 35.0001C7.31701 35.0001 7.31712 35.0001 7.31723 35.0001C7.31734 35.0001 7.31745 35.0001 7.31756 35.0001C7.31767 35.0001 7.31778 35.0001 7.31789 35.0001C7.318 35.0001 7.31811 35.0001 7.31822 35.0001C7.31833 35.0001 7.31844 35.0001 7.31855 35.0001C7.31866 35.0001 7.31877 35.0001 7.31888 35.0001C7.31899 35.0001 7.3191 35.0001 7.31921 35.0001C7.31932 35.0001 7.31943 35.0001 7.31954 35.0001C7.31965 35.0001 7.31976 35.0001 7.31987 35.0001C7.31998 35.0001 7.32009 35.0001 7.3202 35.0001C7.32031 35.0001 7.32042 35.0001 7.32053 35.0001C7.32064 35.0001 7.32075 35.0001 7.32086 35.0001C7.32097 35.0001 7.32107 35.0001 7.32118 35.0001C7.32129 35.0001 7.3214 35.0001 7.32151 35.0001C7.32162 35.0001 7.32173 35.0001 7.32184 35.0001C7.32195 35.0001 7.32206 35.0001 7.32217 35.0001C7.32228 35.0001 7.32239 35.0001 7.3225 35.0001C7.32261 35.0001 7.32272 35.0001 7.32283 35.0001C7.32294 35.0001 7.32305 35.0001 7.32316 35.0001C7.32327 35.0001 7.32338 35.0001 7.32349 35.0001C7.3236 35.0001 7.32371 35.0001 7.32382 35.0001C7.32393 35.0001 7.32404 35.0001 7.32415 35.0001C7.32426 35.0001 7.32437 35.0001 7.32448 35.0001C7.32459 35.0001 7.3247 35.0001 7.32481 35.0001C7.32492 35.0001 7.32503 35.0001 7.32514 35.0001C7.32525 35.0001 7.32536 35.0001 7.32547 35.0001C7.32558 35.0001 7.32569 35.0001 7.3258 35.0001C7.32591 35.0001 7.32602 35.0001 7.32613 35.0001C7.32624 35.0001 7.32635 35.0001 7.32646 35.0001C7.32657 35.0001 7.32668 35.0001 7.32679 35.0001C7.3269 35.0001 7.32701 35.0001 7.32712 35.0001C7.32723 35.0001 7.32734 35.0001 7.32745 35.0001C7.32756 35.0001 7.32767 35.0001 7.32777 35.0001C7.32788 35.0001 7.32799 35.0001 7.3281 35.0001C7.32821 35.0001 7.32832 35.0001 7.32843 35.0001C7.32854 35.0001 7.32865 35.0001 7.32876 35.0001C7.32887 35.0001 7.32898 35.0001 7.32909 35.0001C7.3292 35.0001 7.32931 35.0001 7.32942 35.0001C7.32953 35.0001 7.32964 35.0001 7.32975 35.0001C7.32986 35.0001 7.32997 35.0001 7.33008 35.0001C7.33019 35.0001 7.3303 35.0001 7.33041 35.0001C7.33052 35.0001 7.33063 35.0001 7.33074 35.0001C7.33085 35.0001 7.33096 35.0001 7.33107 35.0001C7.33118 35.0001 7.33129 35.0001 7.3314 35.0001C7.33151 35.0001 7.33162 35.0001 7.33173 35.0001C7.33184 35.0001 7.33195 35.0001 7.33206 35.0001C7.33217 35.0001 7.33228 35.0001 7.33239 35.0001C7.3325 35.0001 7.33261 35.0001 7.33272 35.0001C7.33283 35.0001 7.33294 35.0001 7.33305 35.0001C7.33316 35.0001 7.33327 35.0001 7.33338 35.0001C7.33349 35.0001 7.3336 35.0001 7.33371 35.0001C7.33382 35.0001 7.33393 35.0001 7.33404 35.0001C7.33415 35.0001 7.33425 35.0001 7.33436 35.0001C7.33448 35.0001 7.33458 35.0001 7.33469 35.0001C7.3348 35.0001 7.33491 35.0001 7.33502 35.0001C7.33513 35.0001 7.33524 35.0001 7.33535 35.0001C7.33546 35.0001 7.33557 35.0001 7.33568 35.0001C7.33579 35.0001 7.3359 35.0001 7.33601 35.0001C7.33612 35.0001 7.33623 35.0001 7.33634 35.0001C7.33645 35.0001 7.33656 35.0001 7.33667 35.0001C7.33678 35.0001 7.33689 35.0001 7.337 35.0001C7.33711 35.0001 7.33722 35.0001 7.33733 35.0001C7.33744 35.0001 7.33755 35.0001 7.33766 35.0001C7.33777 35.0001 7.33788 35.0001 7.33799 35.0001C7.3381 35.0001 7.33821 35.0001 7.33832 35.0001C7.33843 35.0001 7.33854 35.0001 7.33865 35.0001C7.33876 35.0001 7.33887 35.0001 7.33898 35.0001C7.33909 35.0001 7.3392 35.0001 7.33931 35.0001C7.33942 35.0001 7.33953 35.0001 7.33964 35.0001C7.33975 35.0001 7.33986 35.0001 7.33997 35.0001C7.34008 35.0001 7.34019 35.0001 7.3403 35.0001C7.34041 35.0001 7.34052 35.0001 7.34063 35.0001C7.34074 35.0001 7.34085 35.0001 7.34095 35.0001C7.34106 35.0001 7.34117 35.0001 7.34128 35.0001C7.34139 35.0001 7.3415 35.0001 7.34161 35.0001C7.34172 35.0001 7.34183 35.0001 7.34194 35.0001C7.34205 35.0001 7.34216 35.0001 7.34227 35.0001C7.34238 35.0001 7.34249 35.0001 7.3426 35.0001C7.34271 35.0001 7.34282 35.0001 7.34293 35.0001C7.34304 35.0001 7.34315 35.0001 7.34326 35.0001C7.34337 35.0001 7.34348 35.0001 7.34359 35.0001C7.3437 35.0001 7.34381 35.0001 7.34392 35.0001C7.34403 35.0001 7.34414 35.0001 7.34425 35.0001C7.34436 35.0001 7.34447 35.0001 7.34458 35.0001C7.34469 35.0001 7.3448 35.0001 7.34491 35.0001C7.34502 35.0001 7.34513 35.0001 7.34524 35.0001C7.34535 35.0001 7.34546 35.0001 7.34557 35.0001C7.34568 35.0001 7.34579 35.0001 7.3459 35.0001C7.34601 35.0001 7.34612 35.0001 7.34623 35.0001C7.34634 35.0001 7.34645 35.0001 7.34656 35.0001C7.34667 35.0001 7.34678 35.0001 7.34689 35.0001C7.347 35.0001 7.34711 35.0001 7.34722 35.0001C7.34733 35.0001 7.34744 35.0001 7.34755 35.0001C7.34765 35.0001 7.34776 35.0001 7.34787 35.0001C7.34798 35.0001 7.34809 35.0001 7.3482 35.0001C7.34831 35.0001 7.34842 35.0001 7.34853 35.0001C7.34864 35.0001 7.34875 35.0001 7.34886 35.0001C7.34897 35.0001 7.34908 35.0001 7.34919 35.0001C7.3493 35.0001 7.34941 35.0001 7.34952 35.0001C7.34963 35.0001 7.34974 35.0001 7.34985 35.0001C7.34996 35.0001 7.35007 35.0001 7.35018 35.0001C7.35029 35.0001 7.3504 35.0001 7.35051 35.0001C7.35062 35.0001 7.35073 35.0001 7.35084 35.0001C7.35095 35.0001 7.35106 35.0001 7.35117 35.0001C7.35128 35.0001 7.35139 35.0001 7.3515 35.0001C7.35161 35.0001 7.35172 35.0001 7.35183 35.0001C7.35194 35.0001 7.35205 35.0001 7.35216 35.0001C7.35227 35.0001 7.35238 35.0001 7.35249 35.0001C7.3526 35.0001 7.35271 35.0001 7.35282 35.0001C7.35293 35.0001 7.35304 35.0001 7.35315 35.0001C7.35326 35.0001 7.35337 35.0001 7.35348 35.0001C7.35359 35.0001 7.3537 35.0001 7.35381 35.0001C7.35392 35.0001 7.35403 35.0001 7.35414 35.0001C7.35425 35.0001 7.35435 35.0001 7.35446 35.0001C7.35457 35.0001 7.35468 35.0001 7.35479 35.0001C7.3549 35.0001 7.35501 35.0001 7.35512 35.0001C7.35523 35.0001 7.35534 35.0001 7.35545 35.0001C7.35556 35.0001 7.35567 35.0001 7.35578 35.0001C7.35589 35.0001 7.356 35.0001 7.35611 35.0001C7.35622 35.0001 7.35633 35.0001 7.35644 35.0001C7.35655 35.0001 7.35666 35.0001 7.35677 35.0001C7.35688 35.0001 7.35699 35.0001 7.3571 35.0001C7.35721 35.0001 7.35732 35.0001 7.35743 35.0001C7.35754 35.0001 7.35765 35.0001 7.35776 35.0001C7.35787 35.0001 7.35798 35.0001 7.35809 35.0001C7.3582 35.0001 7.35831 35.0001 7.35842 35.0001C7.35853 35.0001 7.35864 35.0001 7.35875 35.0001C7.35886 35.0001 7.35897 35.0001 7.35908 35.0001C7.35919 35.0001 7.3593 35.0001 7.35941 35.0001C7.35952 35.0001 7.35963 35.0001 7.35974 35.0001C7.35985 35.0001 7.35996 35.0001 7.36007 35.0001C7.36018 35.0001 7.36029 35.0001 7.3604 35.0001C7.36051 35.0001 7.36062 35.0001 7.36073 35.0001C7.36083 35.0001 7.36094 35.0001 7.36105 35.0001C7.36116 35.0001 7.36127 35.0001 7.36138 35.0001C7.36149 35.0001 7.3616 35.0001 7.36171 35.0001C7.36182 35.0001 7.36193 35.0001 7.36204 35.0001C7.36215 35.0001 7.36226 35.0001 7.36237 35.0001C7.36248 35.0001 7.36259 35.0001 7.3627 35.0001C7.36281 35.0001 7.36292 35.0001 7.36303 35.0001C7.36314 35.0001 7.36325 35.0001 7.36336 35.0001C7.36347 35.0001 7.36358 35.0001 7.36369 35.0001C7.3638 35.0001 7.36391 35.0001 7.36402 35.0001C7.36413 35.0001 7.36424 35.0001 7.36435 35.0001C7.36446 35.0001 7.36457 35.0001 7.36468 35.0001C7.36479 35.0001 7.3649 35.0001 7.36501 35.0001C7.36512 35.0001 7.36523 35.0001 7.36534 35.0001C7.36545 35.0001 7.36556 35.0001 7.36567 35.0001C7.36578 35.0001 7.36589 35.0001 7.366 35.0001C7.36611 35.0001 7.36622 35.0001 7.36633 35.0001C7.36644 35.0001 7.36655 35.0001 7.36666 35.0001C7.36677 35.0001 7.36688 35.0001 7.36699 35.0001C7.3671 35.0001 7.36721 35.0001 7.36732 35.0001C7.36743 35.0001 7.36753 35.0001 7.36764 35.0001C7.36775 35.0001 7.36786 35.0001 7.36797 35.0001C7.36808 35.0001 7.36819 35.0001 7.3683 35.0001C7.36841 35.0001 7.36852 35.0001 7.36863 35.0001C7.36874 35.0001 7.36885 35.0001 7.36896 35.0001C7.36907 35.0001 7.36918 35.0001 7.36929 35.0001C7.3694 35.0001 7.36951 35.0001 7.36962 35.0001C7.36973 35.0001 7.36984 35.0001 7.36995 35.0001C7.37006 35.0001 7.37017 35.0001 7.37028 35.0001C7.37039 35.0001 7.3705 35.0001 7.37061 35.0001C7.37072 35.0001 7.37083 35.0001 7.37094 35.0001C7.37105 35.0001 7.37116 35.0001 7.37127 35.0001C7.37138 35.0001 7.37149 35.0001 7.3716 35.0001C7.37171 35.0001 7.37182 35.0001 7.37193 35.0001C7.37204 35.0001 7.37215 35.0001 7.37226 35.0001C7.37237 35.0001 7.37248 35.0001 7.37259 35.0001C7.3727 35.0001 7.37281 35.0001 7.37292 35.0001C7.37303 35.0001 7.37314 35.0001 7.37325 35.0001C7.37336 35.0001 7.37347 35.0001 7.37358 35.0001C7.37369 35.0001 7.3738 35.0001 7.37391 35.0001C7.37402 35.0001 7.37413 35.0001 7.37423 35.0001C7.37434 35.0001 7.37445 35.0001 7.37456 35.0001C7.37467 35.0001 7.37478 35.0001 7.37489 35.0001C7.375 35.0001 7.37511 35.0001 7.37522 35.0001C7.37533 35.0001 7.37544 35.0001 7.37555 35.0001C7.37566 35.0001 7.37577 35.0001 7.37588 35.0001C7.37599 35.0001 7.3761 35.0001 7.37621 35.0001C7.37632 35.0001 7.37643 35.0001 7.37654 35.0001C7.37665 35.0001 7.37676 35.0001 7.37687 35.0001C7.37698 35.0001 7.37709 35.0001 7.3772 35.0001C7.37731 35.0001 7.37742 35.0001 7.37753 35.0001C7.37764 35.0001 7.37775 35.0001 7.37786 35.0001C7.37797 35.0001 7.37808 35.0001 7.37819 35.0001C7.3783 35.0001 7.37841 35.0001 7.37852 35.0001C7.37863 35.0001 7.37874 35.0001 7.37885 35.0001C7.37896 35.0001 7.37907 35.0001 7.37918 35.0001C7.37929 35.0001 7.3794 35.0001 7.37951 35.0001C7.37962 35.0001 7.37973 35.0001 7.37984 35.0001C7.37995 35.0001 7.38006 35.0001 7.38017 35.0001C7.38028 35.0001 7.38039 35.0001 7.3805 35.0001C7.38061 35.0001 7.38071 35.0001 7.38083 35.0001C7.38093 35.0001 7.38104 35.0001 7.38115 35.0001C7.38126 35.0001 7.38137 35.0001 7.38148 35.0001C7.38159 35.0001 7.3817 35.0001 7.38181 35.0001C7.38192 35.0001 7.38203 35.0001 7.38214 35.0001C7.38225 35.0001 7.38236 35.0001 7.38247 35.0001C7.38258 35.0001 7.38269 35.0001 7.3828 35.0001C7.38291 35.0001 7.38302 35.0001 7.38313 35.0001C7.38324 35.0001 7.38335 35.0001 7.38346 35.0001C7.38357 35.0001 7.38368 35.0001 7.38379 35.0001C7.3839 35.0001 7.38401 35.0001 7.38412 35.0001C7.38423 35.0001 7.38434 35.0001 7.38445 35.0001C7.38456 35.0001 7.38467 35.0001 7.38478 35.0001C7.38489 35.0001 7.385 35.0001 7.38511 35.0001C7.38522 35.0001 7.38533 35.0001 7.38544 35.0001C7.38555 35.0001 7.38566 35.0001 7.38577 35.0001C7.38588 35.0001 7.38599 35.0001 7.3861 35.0001C7.38621 35.0001 7.38632 35.0001 7.38643 35.0001C7.38654 35.0001 7.38665 35.0001 7.38676 35.0001C7.38687 35.0001 7.38698 35.0001 7.38709 35.0001C7.3872 35.0001 7.38731 35.0001 7.38741 35.0001C7.38752 35.0001 7.38763 35.0001 7.38774 35.0001C7.38785 35.0001 7.38796 35.0001 7.38807 35.0001C7.38818 35.0001 7.38829 35.0001 7.3884 35.0001C7.38851 35.0001 7.38862 35.0001 7.38873 35.0001C7.38884 35.0001 7.38895 35.0001 7.38906 35.0001C7.38917 35.0001 7.38928 35.0001 7.38939 35.0001C7.3895 35.0001 7.38961 35.0001 7.38972 35.0001C7.38983 35.0001 7.38994 35.0001 7.39005 35.0001C7.39016 35.0001 7.39027 35.0001 7.39038 35.0001C7.39049 35.0001 7.3906 35.0001 7.39071 35.0001C7.39082 35.0001 7.39093 35.0001 7.39104 35.0001C7.39115 35.0001 7.39126 35.0001 7.39137 35.0001C7.39148 35.0001 7.39159 35.0001 7.3917 35.0001C7.39181 35.0001 7.39192 35.0001 7.39203 35.0001C7.39214 35.0001 7.39225 35.0001 7.39236 35.0001C7.39247 35.0001 7.39258 35.0001 7.39269 35.0001C7.3928 35.0001 7.39291 35.0001 7.39302 35.0001C7.39313 35.0001 7.39324 35.0001 7.39335 35.0001C7.39346 35.0001 7.39357 35.0001 7.39368 35.0001C7.39379 35.0001 7.3939 35.0001 7.39401 35.0001C7.39411 35.0001 7.39422 35.0001 7.39433 35.0001C7.39444 35.0001 7.39455 35.0001 7.39466 35.0001C7.39477 35.0001 7.39488 35.0001 7.39499 35.0001C7.3951 35.0001 7.39521 35.0001 7.39532 35.0001C7.39543 35.0001 7.39554 35.0001 7.39565 35.0001C7.39576 35.0001 7.39587 35.0001 7.39598 35.0001C7.39609 35.0001 7.3962 35.0001 7.39631 35.0001C7.39642 35.0001 7.39653 35.0001 7.39664 35.0001C7.39675 35.0001 7.39686 35.0001 7.39697 35.0001C7.39708 35.0001 7.39719 35.0001 7.3973 35.0001C7.39741 35.0001 7.39752 35.0001 7.39763 35.0001C7.39774 35.0001 7.39785 35.0001 7.39796 35.0001C7.39807 35.0001 7.39818 35.0001 7.39829 35.0001C7.3984 35.0001 7.39851 35.0001 7.39862 35.0001C7.39873 35.0001 7.39884 35.0001 7.39895 35.0001C7.39906 35.0001 7.39917 35.0001 7.39928 35.0001C7.39939 35.0001 7.3995 35.0001 7.39961 35.0001C7.39972 35.0001 7.39983 35.0001 7.39994 35.0001C7.40005 35.0001 7.40016 35.0001 7.40027 35.0001C7.40038 35.0001 7.40049 35.0001 7.4006 35.0001C7.40071 35.0001 7.40081 35.0001 7.40092 35.0001C7.40103 35.0001 7.40114 35.0001 7.40125 35.0001C7.40136 35.0001 7.40147 35.0001 7.40158 35.0001C7.40169 35.0001 7.4018 35.0001 7.40191 35.0001C7.40202 35.0001 7.40213 35.0001 7.40224 35.0001C7.40235 35.0001 7.40246 35.0001 7.40257 35.0001C7.40268 35.0001 7.40279 35.0001 7.4029 35.0001C7.40301 35.0001 7.40312 35.0001 7.40323 35.0001C7.40334 35.0001 7.40345 35.0001 7.40356 35.0001C7.40367 35.0001 7.40378 35.0001 7.40389 35.0001C7.404 35.0001 7.40411 35.0001 7.40422 35.0001C7.40433 35.0001 7.40444 35.0001 7.40455 35.0001C7.40466 35.0001 7.40477 35.0001 7.40488 35.0001C7.40499 35.0001 7.4051 35.0001 7.40521 35.0001C7.40532 35.0001 7.40543 35.0001 7.40554 35.0001C7.40565 35.0001 7.40576 35.0001 7.40587 35.0001C7.40598 35.0001 7.40609 35.0001 7.4062 35.0001C7.40631 35.0001 7.40642 35.0001 7.40653 35.0001C7.40664 35.0001 7.40675 35.0001 7.40686 35.0001C7.40697 35.0001 7.40708 35.0001 7.40718 35.0001C7.40729 35.0001 7.4074 35.0001 7.40751 35.0001C7.40762 35.0001 7.40773 35.0001 7.40784 35.0001C7.40795 35.0001 7.40806 35.0001 7.40817 35.0001C7.40828 35.0001 7.40839 35.0001 7.4085 35.0001C7.40861 35.0001 7.40872 35.0001 7.40883 35.0001C7.40894 35.0001 7.40905 35.0001 7.40916 35.0001C7.40927 35.0001 7.40938 35.0001 7.40949 35.0001C7.4096 35.0001 7.40971 35.0001 7.40982 35.0001C7.40993 35.0001 7.41004 35.0001 7.41015 35.0001C7.41026 35.0001 7.41037 35.0001 7.41048 35.0001C7.41059 35.0001 7.4107 35.0001 7.41081 35.0001C7.41092 35.0001 7.41103 35.0001 7.41114 35.0001C7.41125 35.0001 7.41136 35.0001 7.41147 35.0001C7.41158 35.0001 7.41169 35.0001 7.4118 35.0001C7.41191 35.0001 7.41202 35.0001 7.41213 35.0001C7.41224 35.0001 7.41235 35.0001 7.41246 35.0001C7.41257 35.0001 7.41268 35.0001 7.41279 35.0001C7.4129 35.0001 7.41301 35.0001 7.41312 35.0001V34.7949C7.41301 34.7949 7.4129 34.7949 7.41279 34.7949C7.41268 34.7949 7.41257 34.7949 7.41246 34.7949C7.41235 34.7949 7.41224 34.7949 7.41213 34.7949C7.41202 34.7949 7.41191 34.7949 7.4118 34.7949C7.41169 34.7949 7.41158 34.7949 7.41147 34.7949C7.41136 34.7949 7.41125 34.7949 7.41114 34.7949C7.41103 34.7949 7.41092 34.7949 7.41081 34.7949C7.4107 34.7949 7.41059 34.7949 7.41048 34.7949C7.41037 34.7949 7.41026 34.7949 7.41015 34.7949C7.41004 34.7949 7.40993 34.7949 7.40982 34.7949C7.40971 34.7949 7.4096 34.7949 7.40949 34.7949C7.40938 34.7949 7.40927 34.7949 7.40916 34.7949C7.40905 34.7949 7.40894 34.7949 7.40883 34.7949C7.40872 34.7949 7.40861 34.7949 7.4085 34.7949C7.40839 34.7949 7.40828 34.7949 7.40817 34.7949C7.40806 34.7949 7.40795 34.7949 7.40784 34.7949C7.40773 34.7949 7.40762 34.7949 7.40751 34.7949C7.4074 34.7949 7.40729 34.7949 7.40718 34.7949C7.40708 34.7949 7.40697 34.7949 7.40686 34.7949C7.40675 34.7949 7.40664 34.7949 7.40653 34.7949C7.40642 34.7949 7.40631 34.7949 7.4062 34.7949C7.40609 34.7949 7.40598 34.7949 7.40587 34.7949C7.40576 34.7949 7.40565 34.7949 7.40554 34.7949C7.40543 34.7949 7.40532 34.7949 7.40521 34.7949C7.4051 34.7949 7.40499 34.7949 7.40488 34.7949C7.40477 34.7949 7.40466 34.7949 7.40455 34.7949C7.40444 34.7949 7.40433 34.7949 7.40422 34.7949C7.40411 34.7949 7.404 34.7949 7.40389 34.7949C7.40378 34.7949 7.40367 34.7949 7.40356 34.7949C7.40345 34.7949 7.40334 34.7949 7.40323 34.7949C7.40312 34.7949 7.40301 34.7949 7.4029 34.7949C7.40279 34.7949 7.40268 34.7949 7.40257 34.7949C7.40246 34.7949 7.40235 34.7949 7.40224 34.7949C7.40213 34.7949 7.40202 34.7949 7.40191 34.7949C7.4018 34.7949 7.40169 34.7949 7.40158 34.7949C7.40147 34.7949 7.40136 34.7949 7.40125 34.7949C7.40114 34.7949 7.40103 34.7949 7.40092 34.7949C7.40081 34.7949 7.40071 34.7949 7.4006 34.7949C7.40049 34.7949 7.40038 34.7949 7.40027 34.7949C7.40016 34.7949 7.40005 34.7949 7.39994 34.7949C7.39983 34.7949 7.39972 34.7949 7.39961 34.7949C7.3995 34.7949 7.39939 34.7949 7.39928 34.7949C7.39917 34.7949 7.39906 34.7949 7.39895 34.7949C7.39884 34.7949 7.39873 34.7949 7.39862 34.7949C7.39851 34.7949 7.3984 34.7949 7.39829 34.7949C7.39818 34.7949 7.39807 34.7949 7.39796 34.7949C7.39785 34.7949 7.39774 34.7949 7.39763 34.7949C7.39752 34.7949 7.39741 34.7949 7.3973 34.7949C7.39719 34.7949 7.39708 34.7949 7.39697 34.7949C7.39686 34.7949 7.39675 34.7949 7.39664 34.7949C7.39653 34.7949 7.39642 34.7949 7.39631 34.7949C7.3962 34.7949 7.39609 34.7949 7.39598 34.7949C7.39587 34.7949 7.39576 34.7949 7.39565 34.7949C7.39554 34.7949 7.39543 34.7949 7.39532 34.7949C7.39521 34.7949 7.3951 34.7949 7.39499 34.7949C7.39488 34.7949 7.39477 34.7949 7.39466 34.7949C7.39455 34.7949 7.39444 34.7949 7.39433 34.7949C7.39422 34.7949 7.39411 34.7949 7.39401 34.7949C7.3939 34.7949 7.39379 34.7949 7.39368 34.7949C7.39357 34.7949 7.39346 34.7949 7.39335 34.7949C7.39324 34.7949 7.39313 34.7949 7.39302 34.7949C7.39291 34.7949 7.3928 34.7949 7.39269 34.7949C7.39258 34.7949 7.39247 34.7949 7.39236 34.7949C7.39225 34.7949 7.39214 34.7949 7.39203 34.7949C7.39192 34.7949 7.39181 34.7949 7.3917 34.7949C7.39159 34.7949 7.39148 34.7949 7.39137 34.7949C7.39126 34.7949 7.39115 34.7949 7.39104 34.7949C7.39093 34.7949 7.39082 34.7949 7.39071 34.7949C7.3906 34.7949 7.39049 34.7949 7.39038 34.7949C7.39027 34.7949 7.39016 34.7949 7.39005 34.7949C7.38994 34.7949 7.38983 34.7949 7.38972 34.7949C7.38961 34.7949 7.3895 34.7949 7.38939 34.7949C7.38928 34.7949 7.38917 34.7949 7.38906 34.7949C7.38895 34.7949 7.38884 34.7949 7.38873 34.7949C7.38862 34.7949 7.38851 34.7949 7.3884 34.7949C7.38829 34.7949 7.38818 34.7949 7.38807 34.7949C7.38796 34.7949 7.38785 34.7949 7.38774 34.7949C7.38763 34.7949 7.38752 34.7949 7.38741 34.7949C7.38731 34.7949 7.3872 34.7949 7.38709 34.7949C7.38698 34.7949 7.38687 34.7949 7.38676 34.7949C7.38665 34.7949 7.38654 34.7949 7.38643 34.7949C7.38632 34.7949 7.38621 34.7949 7.3861 34.7949C7.38599 34.7949 7.38588 34.7949 7.38577 34.7949C7.38566 34.7949 7.38555 34.7949 7.38544 34.7949C7.38533 34.7949 7.38522 34.7949 7.38511 34.7949C7.385 34.7949 7.38489 34.7949 7.38478 34.7949C7.38467 34.7949 7.38456 34.7949 7.38445 34.7949C7.38434 34.7949 7.38423 34.7949 7.38412 34.7949C7.38401 34.7949 7.3839 34.7949 7.38379 34.7949C7.38368 34.7949 7.38357 34.7949 7.38346 34.7949C7.38335 34.7949 7.38324 34.7949 7.38313 34.7949C7.38302 34.7949 7.38291 34.7949 7.3828 34.7949C7.38269 34.7949 7.38258 34.7949 7.38247 34.7949C7.38236 34.7949 7.38225 34.7949 7.38214 34.7949C7.38203 34.7949 7.38192 34.7949 7.38181 34.7949C7.3817 34.7949 7.38159 34.7949 7.38148 34.7949C7.38137 34.7949 7.38126 34.7949 7.38115 34.7949C7.38104 34.7949 7.38093 34.7949 7.38083 34.7949C7.38071 34.7949 7.38061 34.7949 7.3805 34.7949C7.38039 34.7949 7.38028 34.7949 7.38017 34.7949C7.38006 34.7949 7.37995 34.7949 7.37984 34.7949C7.37973 34.7949 7.37962 34.7949 7.37951 34.7949C7.3794 34.7949 7.37929 34.7949 7.37918 34.7949C7.37907 34.7949 7.37896 34.7949 7.37885 34.7949C7.37874 34.7949 7.37863 34.7949 7.37852 34.7949C7.37841 34.7949 7.3783 34.7949 7.37819 34.7949C7.37808 34.7949 7.37797 34.7949 7.37786 34.7949C7.37775 34.7949 7.37764 34.7949 7.37753 34.7949C7.37742 34.7949 7.37731 34.7949 7.3772 34.7949C7.37709 34.7949 7.37698 34.7949 7.37687 34.7949C7.37676 34.7949 7.37665 34.7949 7.37654 34.7949C7.37643 34.7949 7.37632 34.7949 7.37621 34.7949C7.3761 34.7949 7.37599 34.7949 7.37588 34.7949C7.37577 34.7949 7.37566 34.7949 7.37555 34.7949C7.37544 34.7949 7.37533 34.7949 7.37522 34.7949C7.37511 34.7949 7.375 34.7949 7.37489 34.7949C7.37478 34.7949 7.37467 34.7949 7.37456 34.7949C7.37445 34.7949 7.37434 34.7949 7.37423 34.7949C7.37413 34.7949 7.37402 34.7949 7.37391 34.7949C7.3738 34.7949 7.37369 34.7949 7.37358 34.7949C7.37347 34.7949 7.37336 34.7949 7.37325 34.7949C7.37314 34.7949 7.37303 34.7949 7.37292 34.7949C7.37281 34.7949 7.3727 34.7949 7.37259 34.7949C7.37248 34.7949 7.37237 34.7949 7.37226 34.7949C7.37215 34.7949 7.37204 34.7949 7.37193 34.7949C7.37182 34.7949 7.37171 34.7949 7.3716 34.7949C7.37149 34.7949 7.37138 34.7949 7.37127 34.7949C7.37116 34.7949 7.37105 34.7949 7.37094 34.7949C7.37083 34.7949 7.37072 34.7949 7.37061 34.7949C7.3705 34.7949 7.37039 34.7949 7.37028 34.7949C7.37017 34.7949 7.37006 34.7949 7.36995 34.7949C7.36984 34.7949 7.36973 34.7949 7.36962 34.7949C7.36951 34.7949 7.3694 34.7949 7.36929 34.7949C7.36918 34.7949 7.36907 34.7949 7.36896 34.7949C7.36885 34.7949 7.36874 34.7949 7.36863 34.7949C7.36852 34.7949 7.36841 34.7949 7.3683 34.7949C7.36819 34.7949 7.36808 34.7949 7.36797 34.7949C7.36786 34.7949 7.36775 34.7949 7.36764 34.7949C7.36753 34.7949 7.36743 34.7949 7.36732 34.7949C7.36721 34.7949 7.3671 34.7949 7.36699 34.7949C7.36688 34.7949 7.36677 34.7949 7.36666 34.7949C7.36655 34.7949 7.36644 34.7949 7.36633 34.7949C7.36622 34.7949 7.36611 34.7949 7.366 34.7949C7.36589 34.7949 7.36578 34.7949 7.36567 34.7949C7.36556 34.7949 7.36545 34.7949 7.36534 34.7949C7.36523 34.7949 7.36512 34.7949 7.36501 34.7949C7.3649 34.7949 7.36479 34.7949 7.36468 34.7949C7.36457 34.7949 7.36446 34.7949 7.36435 34.7949C7.36424 34.7949 7.36413 34.7949 7.36402 34.7949C7.36391 34.7949 7.3638 34.7949 7.36369 34.7949C7.36358 34.7949 7.36347 34.7949 7.36336 34.7949C7.36325 34.7949 7.36314 34.7949 7.36303 34.7949C7.36292 34.7949 7.36281 34.7949 7.3627 34.7949C7.36259 34.7949 7.36248 34.7949 7.36237 34.7949C7.36226 34.7949 7.36215 34.7949 7.36204 34.7949C7.36193 34.7949 7.36182 34.7949 7.36171 34.7949C7.3616 34.7949 7.36149 34.7949 7.36138 34.7949C7.36127 34.7949 7.36116 34.7949 7.36105 34.7949C7.36094 34.7949 7.36083 34.7949 7.36073 34.7949C7.36062 34.7949 7.36051 34.7949 7.3604 34.7949C7.36029 34.7949 7.36018 34.7949 7.36007 34.7949C7.35996 34.7949 7.35985 34.7949 7.35974 34.7949C7.35963 34.7949 7.35952 34.7949 7.35941 34.7949C7.3593 34.7949 7.35919 34.7949 7.35908 34.7949C7.35897 34.7949 7.35886 34.7949 7.35875 34.7949C7.35864 34.7949 7.35853 34.7949 7.35842 34.7949C7.35831 34.7949 7.3582 34.7949 7.35809 34.7949C7.35798 34.7949 7.35787 34.7949 7.35776 34.7949C7.35765 34.7949 7.35754 34.7949 7.35743 34.7949C7.35732 34.7949 7.35721 34.7949 7.3571 34.7949C7.35699 34.7949 7.35688 34.7949 7.35677 34.7949C7.35666 34.7949 7.35655 34.7949 7.35644 34.7949C7.35633 34.7949 7.35622 34.7949 7.35611 34.7949C7.356 34.7949 7.35589 34.7949 7.35578 34.7949C7.35567 34.7949 7.35556 34.7949 7.35545 34.7949C7.35534 34.7949 7.35523 34.7949 7.35512 34.7949C7.35501 34.7949 7.3549 34.7949 7.35479 34.7949C7.35468 34.7949 7.35457 34.7949 7.35446 34.7949C7.35435 34.7949 7.35425 34.7949 7.35414 34.7949C7.35403 34.7949 7.35392 34.7949 7.35381 34.7949C7.3537 34.7949 7.35359 34.7949 7.35348 34.7949C7.35337 34.7949 7.35326 34.7949 7.35315 34.7949C7.35304 34.7949 7.35293 34.7949 7.35282 34.7949C7.35271 34.7949 7.3526 34.7949 7.35249 34.7949C7.35238 34.7949 7.35227 34.7949 7.35216 34.7949C7.35205 34.7949 7.35194 34.7949 7.35183 34.7949C7.35172 34.7949 7.35161 34.7949 7.3515 34.7949C7.35139 34.7949 7.35128 34.7949 7.35117 34.7949C7.35106 34.7949 7.35095 34.7949 7.35084 34.7949C7.35073 34.7949 7.35062 34.7949 7.35051 34.7949C7.3504 34.7949 7.35029 34.7949 7.35018 34.7949C7.35007 34.7949 7.34996 34.7949 7.34985 34.7949C7.34974 34.7949 7.34963 34.7949 7.34952 34.7949C7.34941 34.7949 7.3493 34.7949 7.34919 34.7949C7.34908 34.7949 7.34897 34.7949 7.34886 34.7949C7.34875 34.7949 7.34864 34.7949 7.34853 34.7949C7.34842 34.7949 7.34831 34.7949 7.3482 34.7949C7.34809 34.7949 7.34798 34.7949 7.34787 34.7949C7.34776 34.7949 7.34765 34.7949 7.34755 34.7949C7.34744 34.7949 7.34733 34.7949 7.34722 34.7949C7.34711 34.7949 7.347 34.7949 7.34689 34.7949C7.34678 34.7949 7.34667 34.7949 7.34656 34.7949C7.34645 34.7949 7.34634 34.7949 7.34623 34.7949C7.34612 34.7949 7.34601 34.7949 7.3459 34.7949C7.34579 34.7949 7.34568 34.7949 7.34557 34.7949C7.34546 34.7949 7.34535 34.7949 7.34524 34.7949C7.34513 34.7949 7.34502 34.7949 7.34491 34.7949C7.3448 34.7949 7.34469 34.7949 7.34458 34.7949C7.34447 34.7949 7.34436 34.7949 7.34425 34.7949C7.34414 34.7949 7.34403 34.7949 7.34392 34.7949C7.34381 34.7949 7.3437 34.7949 7.34359 34.7949C7.34348 34.7949 7.34337 34.7949 7.34326 34.7949C7.34315 34.7949 7.34304 34.7949 7.34293 34.7949C7.34282 34.7949 7.34271 34.7949 7.3426 34.7949C7.34249 34.7949 7.34238 34.7949 7.34227 34.7949C7.34216 34.7949 7.34205 34.7949 7.34194 34.7949C7.34183 34.7949 7.34172 34.7949 7.34161 34.7949C7.3415 34.7949 7.34139 34.7949 7.34128 34.7949C7.34117 34.7949 7.34106 34.7949 7.34095 34.7949C7.34085 34.7949 7.34074 34.7949 7.34063 34.7949C7.34052 34.7949 7.34041 34.7949 7.3403 34.7949C7.34019 34.7949 7.34008 34.7949 7.33997 34.7949C7.33986 34.7949 7.33975 34.7949 7.33964 34.7949C7.33953 34.7949 7.33942 34.7949 7.33931 34.7949C7.3392 34.7949 7.33909 34.7949 7.33898 34.7949C7.33887 34.7949 7.33876 34.7949 7.33865 34.7949C7.33854 34.7949 7.33843 34.7949 7.33832 34.7949C7.33821 34.7949 7.3381 34.7949 7.33799 34.7949C7.33788 34.7949 7.33777 34.7949 7.33766 34.7949C7.33755 34.7949 7.33744 34.7949 7.33733 34.7949C7.33722 34.7949 7.33711 34.7949 7.337 34.7949C7.33689 34.7949 7.33678 34.7949 7.33667 34.7949C7.33656 34.7949 7.33645 34.7949 7.33634 34.7949C7.33623 34.7949 7.33612 34.7949 7.33601 34.7949C7.3359 34.7949 7.33579 34.7949 7.33568 34.7949C7.33557 34.7949 7.33546 34.7949 7.33535 34.7949C7.33524 34.7949 7.33513 34.7949 7.33502 34.7949C7.33491 34.7949 7.3348 34.7949 7.33469 34.7949C7.33458 34.7949 7.33448 34.7949 7.33436 34.7949C7.33425 34.7949 7.33415 34.7949 7.33404 34.7949C7.33393 34.7949 7.33382 34.7949 7.33371 34.7949C7.3336 34.7949 7.33349 34.7949 7.33338 34.7949C7.33327 34.7949 7.33316 34.7949 7.33305 34.7949C7.33294 34.7949 7.33283 34.7949 7.33272 34.7949C7.33261 34.7949 7.3325 34.7949 7.33239 34.7949C7.33228 34.7949 7.33217 34.7949 7.33206 34.7949C7.33195 34.7949 7.33184 34.7949 7.33173 34.7949C7.33162 34.7949 7.33151 34.7949 7.3314 34.7949C7.33129 34.7949 7.33118 34.7949 7.33107 34.7949C7.33096 34.7949 7.33085 34.7949 7.33074 34.7949C7.33063 34.7949 7.33052 34.7949 7.33041 34.7949C7.3303 34.7949 7.33019 34.7949 7.33008 34.7949C7.32997 34.7949 7.32986 34.7949 7.32975 34.7949C7.32964 34.7949 7.32953 34.7949 7.32942 34.7949C7.32931 34.7949 7.3292 34.7949 7.32909 34.7949C7.32898 34.7949 7.32887 34.7949 7.32876 34.7949C7.32865 34.7949 7.32854 34.7949 7.32843 34.7949C7.32832 34.7949 7.32821 34.7949 7.3281 34.7949C7.32799 34.7949 7.32788 34.7949 7.32777 34.7949C7.32767 34.7949 7.32756 34.7949 7.32745 34.7949C7.32734 34.7949 7.32723 34.7949 7.32712 34.7949C7.32701 34.7949 7.3269 34.7949 7.32679 34.7949C7.32668 34.7949 7.32657 34.7949 7.32646 34.7949C7.32635 34.7949 7.32624 34.7949 7.32613 34.7949C7.32602 34.7949 7.32591 34.7949 7.3258 34.7949C7.32569 34.7949 7.32558 34.7949 7.32547 34.7949C7.32536 34.7949 7.32525 34.7949 7.32514 34.7949C7.32503 34.7949 7.32492 34.7949 7.32481 34.7949C7.3247 34.7949 7.32459 34.7949 7.32448 34.7949C7.32437 34.7949 7.32426 34.7949 7.32415 34.7949C7.32404 34.7949 7.32393 34.7949 7.32382 34.7949C7.32371 34.7949 7.3236 34.7949 7.32349 34.7949C7.32338 34.7949 7.32327 34.7949 7.32316 34.7949C7.32305 34.7949 7.32294 34.7949 7.32283 34.7949C7.32272 34.7949 7.32261 34.7949 7.3225 34.7949C7.32239 34.7949 7.32228 34.7949 7.32217 34.7949C7.32206 34.7949 7.32195 34.7949 7.32184 34.7949C7.32173 34.7949 7.32162 34.7949 7.32151 34.7949C7.3214 34.7949 7.32129 34.7949 7.32118 34.7949C7.32107 34.7949 7.32097 34.7949 7.32086 34.7949C7.32075 34.7949 7.32064 34.7949 7.32053 34.7949C7.32042 34.7949 7.32031 34.7949 7.3202 34.7949C7.32009 34.7949 7.31998 34.7949 7.31987 34.7949C7.31976 34.7949 7.31965 34.7949 7.31954 34.7949C7.31943 34.7949 7.31932 34.7949 7.31921 34.7949C7.3191 34.7949 7.31899 34.7949 7.31888 34.7949C7.31877 34.7949 7.31866 34.7949 7.31855 34.7949C7.31844 34.7949 7.31833 34.7949 7.31822 34.7949C7.31811 34.7949 7.318 34.7949 7.31789 34.7949C7.31778 34.7949 7.31767 34.7949 7.31756 34.7949C7.31745 34.7949 7.31734 34.7949 7.31723 34.7949C7.31712 34.7949 7.31701 34.7949 7.3169 34.7949C7.31679 34.7949 7.31668 34.7949 7.31657 34.7949C7.31646 34.7949 7.31635 34.7949 7.31624 34.7949C7.31613 34.7949 7.31602 34.7949 7.31591 34.7949C7.3158 34.7949 7.31569 34.7949 7.31558 34.7949C7.31547 34.7949 7.31536 34.7949 7.31525 34.7949C7.31514 34.7949 7.31503 34.7949 7.31492 34.7949C7.31481 34.7949 7.3147 34.7949 7.31459 34.7949C7.31448 34.7949 7.31437 34.7949 7.31427 34.7949C7.31416 34.7949 7.31405 34.7949 7.31394 34.7949C7.31383 34.7949 7.31372 34.7949 7.31361 34.7949C7.3135 34.7949 7.31339 34.7949 7.31328 34.7949C7.31317 34.7949 7.31306 34.7949 7.31295 34.7949C7.31284 34.7949 7.31273 34.7949 7.31262 34.7949C7.31251 34.7949 7.3124 34.7949 7.31229 34.7949C7.31218 34.7949 7.31207 34.7949 7.31196 34.7949C7.31185 34.7949 7.31174 34.7949 7.31163 34.7949C7.31152 34.7949 7.31141 34.7949 7.3113 34.7949C7.31119 34.7949 7.31108 34.7949 7.31097 34.7949C7.31086 34.7949 7.31075 34.7949 7.31064 34.7949C7.31053 34.7949 7.31042 34.7949 7.31031 34.7949C7.3102 34.7949 7.31009 34.7949 7.30998 34.7949C7.30987 34.7949 7.30976 34.7949 7.30965 34.7949C7.30954 34.7949 7.30943 34.7949 7.30932 34.7949C7.30921 34.7949 7.3091 34.7949 7.30899 34.7949C7.30888 34.7949 7.30877 34.7949 7.30866 34.7949C7.30855 34.7949 7.30844 34.7949 7.30833 34.7949C7.30822 34.7949 7.30811 34.7949 7.308 34.7949C7.3079 34.7949 7.30779 34.7949 7.30767 34.7949C7.30757 34.7949 7.30746 34.7949 7.30735 34.7949C7.30724 34.7949 7.30713 34.7949 7.30702 34.7949C7.30691 34.7949 7.3068 34.7949 7.30669 34.7949C7.30658 34.7949 7.30647 34.7949 7.30636 34.7949C7.30625 34.7949 7.30614 34.7949 7.30603 34.7949C7.30592 34.7949 7.30581 34.7949 7.3057 34.7949C7.30559 34.7949 7.30548 34.7949 7.30537 34.7949C7.30526 34.7949 7.30515 34.7949 7.30504 34.7949C7.30493 34.7949 7.30482 34.7949 7.30471 34.7949C7.3046 34.7949 7.30449 34.7949 7.30438 34.7949C7.30427 34.7949 7.30416 34.7949 7.30405 34.7949C7.30394 34.7949 7.30383 34.7949 7.30372 34.7949C7.30361 34.7949 7.3035 34.7949 7.30339 34.7949C7.30328 34.7949 7.30317 34.7949 7.30306 34.7949C7.30295 34.7949 7.30284 34.7949 7.30273 34.7949C7.30262 34.7949 7.30251 34.7949 7.3024 34.7949C7.30229 34.7949 7.30218 34.7949 7.30207 34.7949C7.30196 34.7949 7.30185 34.7949 7.30174 34.7949C7.30163 34.7949 7.30152 34.7949 7.30141 34.7949C7.3013 34.7949 7.3012 34.7949 7.30109 34.7949C7.30098 34.7949 7.30087 34.7949 7.30076 34.7949C7.30065 34.7949 7.30054 34.7949 7.30043 34.7949C7.30032 34.7949 7.30021 34.7949 7.3001 34.7949C7.29999 34.7949 7.29988 34.7949 7.29977 34.7949C7.29966 34.7949 7.29955 34.7949 7.29944 34.7949C7.29933 34.7949 7.29922 34.7949 7.29911 34.7949C7.299 34.7949 7.29889 34.7949 7.29878 34.7949C7.29867 34.7949 7.29856 34.7949 7.29845 34.7949C7.29834 34.7949 7.29823 34.7949 7.29812 34.7949C7.29801 34.7949 7.2979 34.7949 7.29779 34.7949C7.29768 34.7949 7.29757 34.7949 7.29746 34.7949C7.29735 34.7949 7.29724 34.7949 7.29713 34.7949C7.29702 34.7949 7.29691 34.7949 7.2968 34.7949C7.29669 34.7949 7.29658 34.7949 7.29647 34.7949C7.29636 34.7949 7.29625 34.7949 7.29614 34.7949C7.29603 34.7949 7.29592 34.7949 7.29581 34.7949C7.2957 34.7949 7.29559 34.7949 7.29548 34.7949C7.29537 34.7949 7.29526 34.7949 7.29515 34.7949C7.29504 34.7949 7.29493 34.7949 7.29482 34.7949C7.29471 34.7949 7.2946 34.7949 7.2945 34.7949C7.29439 34.7949 7.29428 34.7949 7.29417 34.7949C7.29406 34.7949 7.29395 34.7949 7.29384 34.7949C7.29373 34.7949 7.29362 34.7949 7.29351 34.7949C7.2934 34.7949 7.29329 34.7949 7.29318 34.7949C7.29307 34.7949 7.29296 34.7949 7.29285 34.7949C7.29274 34.7949 7.29263 34.7949 7.29252 34.7949C7.29241 34.7949 7.2923 34.7949 7.29219 34.7949C7.29208 34.7949 7.29197 34.7949 7.29186 34.7949C7.29175 34.7949 7.29164 34.7949 7.29153 34.7949C7.29142 34.7949 7.29131 34.7949 7.2912 34.7949C7.29109 34.7949 7.29098 34.7949 7.29087 34.7949C7.29076 34.7949 7.29065 34.7949 7.29054 34.7949C7.29043 34.7949 7.29032 34.7949 7.29021 34.7949C7.2901 34.7949 7.28999 34.7949 7.28988 34.7949C7.28977 34.7949 7.28966 34.7949 7.28955 34.7949C7.28944 34.7949 7.28933 34.7949 7.28922 34.7949C7.28911 34.7949 7.289 34.7949 7.28889 34.7949C7.28878 34.7949 7.28867 34.7949 7.28856 34.7949C7.28845 34.7949 7.28834 34.7949 7.28823 34.7949C7.28812 34.7949 7.28801 34.7949 7.2879 34.7949C7.2878 34.7949 7.28769 34.7949 7.28758 34.7949C7.28747 34.7949 7.28736 34.7949 7.28725 34.7949C7.28714 34.7949 7.28703 34.7949 7.28692 34.7949C7.28681 34.7949 7.2867 34.7949 7.28659 34.7949C7.28648 34.7949 7.28637 34.7949 7.28626 34.7949C7.28615 34.7949 7.28604 34.7949 7.28593 34.7949C7.28582 34.7949 7.28571 34.7949 7.2856 34.7949C7.28549 34.7949 7.28538 34.7949 7.28527 34.7949C7.28516 34.7949 7.28505 34.7949 7.28494 34.7949C7.28483 34.7949 7.28472 34.7949 7.28461 34.7949C7.2845 34.7949 7.28439 34.7949 7.28428 34.7949C7.28417 34.7949 7.28406 34.7949 7.28395 34.7949C7.28384 34.7949 7.28373 34.7949 7.28362 34.7949C7.28351 34.7949 7.2834 34.7949 7.28329 34.7949C7.28318 34.7949 7.28307 34.7949 7.28296 34.7949C7.28285 34.7949 7.28274 34.7949 7.28263 34.7949C7.28252 34.7949 7.28241 34.7949 7.2823 34.7949C7.28219 34.7949 7.28208 34.7949 7.28197 34.7949C7.28186 34.7949 7.28175 34.7949 7.28164 34.7949C7.28153 34.7949 7.28142 34.7949 7.28132 34.7949C7.28121 34.7949 7.2811 34.7949 7.28099 34.7949C7.28088 34.7949 7.28077 34.7949 7.28066 34.7949C7.28055 34.7949 7.28044 34.7949 7.28033 34.7949C7.28022 34.7949 7.28011 34.7949 7.28 34.7949C7.27989 34.7949 7.27978 34.7949 7.27967 34.7949C7.27956 34.7949 7.27945 34.7949 7.27934 34.7949C7.27923 34.7949 7.27912 34.7949 7.27901 34.7949C7.2789 34.7949 7.27879 34.7949 7.27868 34.7949C7.27857 34.7949 7.27846 34.7949 7.27835 34.7949C7.27824 34.7949 7.27813 34.7949 7.27802 34.7949C7.27791 34.7949 7.2778 34.7949 7.27769 34.7949C7.27758 34.7949 7.27747 34.7949 7.27736 34.7949C7.27725 34.7949 7.27714 34.7949 7.27703 34.7949C7.27692 34.7949 7.27681 34.7949 7.2767 34.7949C7.27659 34.7949 7.27648 34.7949 7.27637 34.7949C7.27626 34.7949 7.27615 34.7949 7.27604 34.7949C7.27593 34.7949 7.27582 34.7949 7.27571 34.7949C7.2756 34.7949 7.27549 34.7949 7.27538 34.7949C7.27527 34.7949 7.27516 34.7949 7.27505 34.7949C7.27494 34.7949 7.27483 34.7949 7.27472 34.7949C7.27462 34.7949 7.27451 34.7949 7.2744 34.7949C7.27429 34.7949 7.27418 34.7949 7.27407 34.7949C7.27396 34.7949 7.27385 34.7949 7.27374 34.7949C7.27363 34.7949 7.27352 34.7949 7.27341 34.7949C7.2733 34.7949 7.27319 34.7949 7.27308 34.7949C7.27297 34.7949 7.27286 34.7949 7.27275 34.7949C7.27264 34.7949 7.27253 34.7949 7.27242 34.7949C7.27231 34.7949 7.2722 34.7949 7.27209 34.7949C7.27198 34.7949 7.27187 34.7949 7.27176 34.7949C7.27165 34.7949 7.27154 34.7949 7.27143 34.7949C7.27132 34.7949 7.27121 34.7949 7.2711 34.7949C7.27099 34.7949 7.27088 34.7949 7.27077 34.7949C7.27066 34.7949 7.27055 34.7949 7.27044 34.7949C7.27033 34.7949 7.27022 34.7949 7.27011 34.7949C7.27 34.7949 7.26989 34.7949 7.26978 34.7949C7.26967 34.7949 7.26956 34.7949 7.26945 34.7949C7.26934 34.7949 7.26923 34.7949 7.26912 34.7949C7.26901 34.7949 7.2689 34.7949 7.26879 34.7949C7.26868 34.7949 7.26857 34.7949 7.26846 34.7949C7.26835 34.7949 7.26824 34.7949 7.26813 34.7949C7.26802 34.7949 7.26792 34.7949 7.26781 34.7949C7.2677 34.7949 7.26759 34.7949 7.26748 34.7949C7.26737 34.7949 7.26726 34.7949 7.26715 34.7949C7.26704 34.7949 7.26693 34.7949 7.26682 34.7949C7.26671 34.7949 7.2666 34.7949 7.26649 34.7949C7.26638 34.7949 7.26627 34.7949 7.26616 34.7949C7.26605 34.7949 7.26594 34.7949 7.26583 34.7949C7.26572 34.7949 7.26561 34.7949 7.2655 34.7949C7.26539 34.7949 7.26528 34.7949 7.26517 34.7949C7.26506 34.7949 7.26495 34.7949 7.26484 34.7949C7.26473 34.7949 7.26462 34.7949 7.26451 34.7949C7.2644 34.7949 7.26429 34.7949 7.26418 34.7949C7.26407 34.7949 7.26396 34.7949 7.26385 34.7949C7.26374 34.7949 7.26363 34.7949 7.26352 34.7949C7.26341 34.7949 7.2633 34.7949 7.26319 34.7949C7.26308 34.7949 7.26297 34.7949 7.26286 34.7949C7.26275 34.7949 7.26264 34.7949 7.26253 34.7949C7.26242 34.7949 7.26231 34.7949 7.2622 34.7949C7.26209 34.7949 7.26198 34.7949 7.26187 34.7949C7.26176 34.7949 7.26165 34.7949 7.26154 34.7949C7.26144 34.7949 7.26132 34.7949 7.26122 34.7949C7.26111 34.7949 7.261 34.7949 7.26089 34.7949C7.26078 34.7949 7.26067 34.7949 7.26056 34.7949C7.26045 34.7949 7.26034 34.7949 7.26023 34.7949C7.26012 34.7949 7.26001 34.7949 7.2599 34.7949C7.25979 34.7949 7.25968 34.7949 7.25957 34.7949C7.25946 34.7949 7.25935 34.7949 7.25924 34.7949C7.25913 34.7949 7.25902 34.7949 7.25891 34.7949C7.2588 34.7949 7.25869 34.7949 7.25858 34.7949C7.25847 34.7949 7.25836 34.7949 7.25825 34.7949C7.25814 34.7949 7.25803 34.7949 7.25792 34.7949C7.25781 34.7949 7.2577 34.7949 7.25759 34.7949C7.25748 34.7949 7.25737 34.7949 7.25726 34.7949C7.25715 34.7949 7.25704 34.7949 7.25693 34.7949C7.25682 34.7949 7.25671 34.7949 7.2566 34.7949C7.25649 34.7949 7.25638 34.7949 7.25627 34.7949C7.25616 34.7949 7.25605 34.7949 7.25594 34.7949C7.25583 34.7949 7.25572 34.7949 7.25561 34.7949C7.2555 34.7949 7.25539 34.7949 7.25528 34.7949C7.25517 34.7949 7.25506 34.7949 7.25495 34.7949C7.25484 34.7949 7.25474 34.7949 7.25463 34.7949C7.25452 34.7949 7.25441 34.7949 7.2543 34.7949C7.25419 34.7949 7.25408 34.7949 7.25397 34.7949C7.25386 34.7949 7.25375 34.7949 7.25364 34.7949C7.25353 34.7949 7.25342 34.7949 7.25331 34.7949C7.2532 34.7949 7.25309 34.7949 7.25298 34.7949C7.25287 34.7949 7.25276 34.7949 7.25265 34.7949C7.25254 34.7949 7.25243 34.7949 7.25232 34.7949C7.25221 34.7949 7.2521 34.7949 7.25199 34.7949C7.25188 34.7949 7.25177 34.7949 7.25166 34.7949C7.25155 34.7949 7.25144 34.7949 7.25133 34.7949C7.25122 34.7949 7.25111 34.7949 7.251 34.7949C7.25089 34.7949 7.25078 34.7949 7.25067 34.7949C7.25056 34.7949 7.25045 34.7949 7.25034 34.7949C7.25023 34.7949 7.25012 34.7949 7.25001 34.7949C7.2499 34.7949 7.24979 34.7949 7.24968 34.7949C7.24957 34.7949 7.24946 34.7949 7.24935 34.7949C7.24924 34.7949 7.24913 34.7949 7.24902 34.7949C7.24891 34.7949 7.2488 34.7949 7.24869 34.7949C7.24858 34.7949 7.24847 34.7949 7.24836 34.7949C7.24825 34.7949 7.24814 34.7949 7.24804 34.7949C7.24793 34.7949 7.24782 34.7949 7.24771 34.7949C7.2476 34.7949 7.24749 34.7949 7.24738 34.7949C7.24727 34.7949 7.24716 34.7949 7.24705 34.7949C7.24694 34.7949 7.24683 34.7949 7.24672 34.7949C7.24661 34.7949 7.2465 34.7949 7.24639 34.7949C7.24628 34.7949 7.24617 34.7949 7.24606 34.7949C7.24595 34.7949 7.24584 34.7949 7.24573 34.7949C7.24562 34.7949 7.24551 34.7949 7.2454 34.7949C7.24529 34.7949 7.24518 34.7949 7.24507 34.7949C7.24496 34.7949 7.24485 34.7949 7.24474 34.7949C7.24463 34.7949 7.24452 34.7949 7.24441 34.7949V35.0001ZM7.41312 35.0001C7.6666 35.0001 7.9476 34.8679 8.01889 34.5743L7.81957 34.5259C7.77839 34.6955 7.60951 34.7949 7.41312 34.7949V35.0001ZM8.0148 34.5873L17.5748 10.0398L17.3836 9.96538L7.82366 34.5129L8.0148 34.5873ZM17.5748 10.0397C17.6365 9.88089 17.6544 9.73128 17.6293 9.59343C17.6041 9.45519 17.537 9.33595 17.4403 9.2364L17.2932 9.37932C17.3652 9.45345 17.4105 9.53684 17.4275 9.63018C17.4446 9.72392 17.4343 9.83483 17.3836 9.96546L17.5748 10.0397Z" fill="#3E64E9"/>
</svg>
