<svg width="158" height="158" viewBox="0 0 158 158" fill="none" xmlns="http://www.w3.org/2000/svg">
<circle cx="79.0001" cy="79.0001" r="68.6393" fill="#99B2CB"/>
<path d="M79 138.25C111.723 138.25 138.25 111.723 138.25 79C138.25 46.2771 111.723 19.75 79 19.75C46.2771 19.75 19.75 46.2771 19.75 79C19.75 111.723 46.2771 138.25 79 138.25Z" stroke="#49536E" stroke-width="1.93421" stroke-linecap="round" stroke-linejoin="round"/>
<path d="M79 98.75C92.6345 98.75 103.688 87.697 103.688 74.0625C103.688 60.428 92.6345 49.375 79 49.375C65.3655 49.375 54.3125 60.428 54.3125 74.0625C54.3125 87.697 65.3655 98.75 79 98.75Z" stroke="#49536E" stroke-width="1.93421" stroke-linecap="round" stroke-linejoin="round"/>
<path d="M39.3746 123.067C43.0895 115.75 48.7581 109.604 55.7519 105.312C62.7458 101.019 70.7918 98.7463 78.998 98.7463C87.2043 98.7463 95.2503 101.019 102.244 105.312C109.238 109.604 114.907 115.75 118.621 123.067" stroke="#49536E" stroke-width="1.93421" stroke-linecap="round" stroke-linejoin="round"/>
<ellipse cx="58.5319" cy="58.6183" rx="58.5319" ry="58.6183" transform="matrix(-1.00417 0 0 1.00417 137.776 20.0231)" fill="#3E64E9"/>
<mask id="mask0_51_3951" style="mask-type:luminance" maskUnits="userSpaceOnUse" x="20" y="20" width="118" height="118">
<path d="M20.224 78.8859C20.224 111.395 46.539 137.749 79 137.749C111.461 137.749 137.776 111.395 137.776 78.8859C137.776 46.3769 111.461 20.0231 79 20.0231C46.539 20.0231 20.224 46.3769 20.224 78.8859Z" fill="white"/>
</mask>
<g mask="url(#mask0_51_3951)">
<path fill-rule="evenodd" clip-rule="evenodd" d="M97.1593 51.0355C100.335 57.0645 107.641 59.2852 114.032 61.632C120.422 63.9778 127.448 68.196 127.938 74.995C128.244 79.2704 125.757 83.4019 126.18 87.6684C127.054 96.4746 138.535 99.436 143.858 106.5C147.688 111.585 147.955 118.848 145.317 124.643C142.679 130.439 137.475 134.809 131.642 137.349C119.604 142.587 104.979 140.198 94.2808 132.581C83.584 124.966 76.7014 112.674 74.194 99.771C71.6866 86.8689 73.2922 73.4076 77.184 60.8539C78.6299 56.1908 80.669 51.2767 84.8703 48.7987C89.0707 46.3206 95.8382 48.0394 96.6036 52.8615L97.1593 51.0355Z" fill="#0A0F21"/>
<path fill-rule="evenodd" clip-rule="evenodd" d="M99.9299 63.164C99.9299 46.1813 87.3305 32.4154 71.7884 32.4154C56.2464 32.4154 43.6478 46.1813 43.6478 63.164C43.6478 80.1458 56.2464 93.9118 71.7884 93.9118C87.3305 93.9118 99.9299 80.1458 99.9299 63.164Z" fill="#0A0F21"/>
<path fill-rule="evenodd" clip-rule="evenodd" d="M92.1491 57.5672C92.1491 57.5672 98.2057 52.7692 98.1281 51.7035L99.9299 52.4289L94.4023 59.3109L92.1491 57.5672Z" fill="#FF05DB"/>
<path fill-rule="evenodd" clip-rule="evenodd" d="M106.524 143.59C106.524 143.59 84.8668 154.78 72.9898 154.507C60.7786 154.226 34.2595 141.929 34.2595 141.929C34.2595 141.929 39.4518 114.935 67.654 120.906C67.654 120.906 93.9802 114.324 106.524 143.59Z" fill="#57C6FF"/>
<path fill-rule="evenodd" clip-rule="evenodd" d="M56.3175 91.078L80.8679 95.2506L81.0944 125.286C81.0944 125.286 79.6851 133.065 66.9911 133.283C55.0099 133.489 54.2115 124.927 54.2115 124.927L56.3175 91.078L93.328 118.319Z" fill="#FBDED4"/>
<path fill-rule="evenodd" clip-rule="evenodd" d="M80.9973 112.319L80.8679 95.251L80.9973 112.319Z" fill="#0A0F21"/>
<path fill-rule="evenodd" clip-rule="evenodd" d="M79.7379 112.357C80.538 112.357 80.9929 112.319 80.9974 112.318L80.868 95.2506L56.3177 91.078L55.7067 100.907C63.7212 111.456 75.8354 112.357 79.7379 112.357Z" fill="#F6D3C8"/>
<path fill-rule="evenodd" clip-rule="evenodd" d="M39.3277 77.34C39.3277 79.7287 42.2294 83.1107 45.5601 82.1388C47.8498 81.4706 50.7827 79.7287 50.7827 77.34C50.7827 74.9504 47.4404 72.5491 45.0552 72.5491C41.2063 72.5491 39.3277 74.9504 39.3277 77.34Z" fill="#FBDED4"/>
<path fill-rule="evenodd" clip-rule="evenodd" d="M43.6478 79.1111C43.6434 78.5894 43.5578 78.0757 43.3874 77.5826C43.2054 77.0913 43.0154 76.5928 42.4704 76.1819C42.3473 76.0846 42.1243 76.0104 41.929 76.0104C41.8255 76.0202 41.7104 76.0283 41.6212 76.0622C41.5383 76.1042 41.4544 76.1489 41.3777 76.2025C41.2323 76.3088 41.1583 76.4374 41.053 76.5544C40.9157 76.7545 40.9175 76.9243 40.9094 77.069C40.9059 77.6425 41.0798 78.124 41.3001 78.5983C41.3599 78.0882 41.3902 77.5657 41.4803 77.1387C41.5071 77.0395 41.5481 76.9493 41.5659 76.9475L41.7738 76.7778C41.9058 76.6947 41.9316 76.7251 42.0699 76.801C42.3473 76.9788 42.6194 77.4236 42.8665 77.8238C43.11 78.2419 43.3704 78.6716 43.6478 79.1111Z" fill="#EEA08E"/>
<path fill-rule="evenodd" clip-rule="evenodd" d="M96.3254 77.34C96.3254 79.7287 93.4229 83.1107 90.0931 82.1388C87.8024 81.4706 84.8705 79.7287 84.8705 77.34C84.8705 74.9504 88.2128 72.5491 90.5979 72.5491C94.4469 72.5491 96.3254 74.9504 96.3254 77.34Z" fill="#FBDED4"/>
<path fill-rule="evenodd" clip-rule="evenodd" d="M92.0054 79.1111C92.2819 78.6716 92.5424 78.2419 92.7859 77.8238C93.0339 77.4236 93.3059 76.9788 93.5842 76.801C93.7207 76.7251 93.7466 76.6947 93.8786 76.7778L94.0873 76.9475C94.1051 76.9493 94.1462 77.0395 94.1729 77.1387C94.263 77.5657 94.2933 78.0882 94.3522 78.5983C94.5734 78.124 94.7474 77.6425 94.7438 77.069C94.7349 76.9243 94.7367 76.7545 94.6002 76.5544C94.4949 76.4374 94.4209 76.3088 94.2755 76.2025C94.1988 76.1489 94.1149 76.1042 94.032 76.0622C93.9419 76.0283 93.8277 76.0202 93.7243 76.0104C93.5289 76.0104 93.3059 76.0846 93.1819 76.1819C92.6369 76.5928 92.4478 77.0913 92.2658 77.5826C92.0946 78.0757 92.0098 78.5894 92.0054 79.1111Z" fill="#EEA08E"/>
<path fill-rule="evenodd" clip-rule="evenodd" d="M45.0715 71.1171C44.646 87.7996 52.5312 103.745 66.226 104.096C79.9217 104.446 89.8121 90.2062 90.2376 73.5236C90.6631 56.8411 81.4639 44.0346 67.7692 43.6835C54.0735 43.3324 45.4979 54.4345 45.0715 71.1171Z" fill="#FBDED4"/>
<path fill-rule="evenodd" clip-rule="evenodd" d="M75.4982 71.964C75.5205 72.8877 76.0931 73.6229 76.7755 73.6068C77.4588 73.5898 77.9948 72.8278 77.9725 71.9041C77.9494 70.9804 77.3776 70.2452 76.6943 70.2613C76.011 70.2783 75.4759 71.0412 75.4982 71.964Z" fill="#172133"/>
<path fill-rule="evenodd" clip-rule="evenodd" d="M57.6807 71.964C57.703 72.8877 58.2747 73.6229 58.9589 73.6068C59.6413 73.5898 60.1774 72.8278 60.1551 71.9041C60.1328 70.9804 59.5601 70.2452 58.8768 70.2613C58.1945 70.2783 57.6584 71.0412 57.6807 71.964Z" fill="#172133"/>
<path fill-rule="evenodd" clip-rule="evenodd" d="M72.9899 80.7016C72.1211 81.695 71.2344 82.6053 70.2657 83.3155C69.2943 84.0131 68.24 84.483 67.1741 84.4473C66.1055 84.458 65.0315 83.9747 64.0057 83.3307C62.9817 82.6705 62.0228 81.8299 60.9926 80.9947C61.5206 82.2104 62.2699 83.3333 63.2787 84.266C63.7827 84.7349 64.3625 85.1351 65.011 85.4576C65.6684 85.7569 66.4034 85.9463 67.1598 85.9659C67.9153 85.9615 68.6699 85.7882 69.33 85.4683C69.9839 85.136 70.569 84.7126 71.0435 84.2034C72.0042 83.2011 72.6714 81.9952 72.9899 80.7016Z" fill="#292929"/>
<path fill-rule="evenodd" clip-rule="evenodd" d="M68.5887 77.564C68.2435 77.0378 67.8261 76.626 67.3819 76.2553C66.943 75.8783 66.4685 75.5567 65.9707 75.27L65.9993 76.6162C66.4301 76.2892 66.7441 75.9015 66.9876 75.4996C67.2267 75.0931 67.4095 74.684 67.5353 74.2588C67.7966 73.4173 67.9037 72.5516 67.8029 71.6807C67.3248 72.4078 66.9109 73.1091 66.4729 73.754C66.241 74.0658 66.0412 74.3883 65.7941 74.6438C65.5568 74.9046 65.3178 75.1351 65.0796 75.2887L64.0922 75.9275L65.1082 76.635C65.5782 76.9628 66.0715 77.2549 66.5996 77.4916C67.1241 77.7355 67.6744 77.9374 68.2962 78.0249C68.4603 78.0491 68.6119 77.9347 68.6351 77.7704L68.5887 77.564Z" fill="#D1746F"/>
<path fill-rule="evenodd" clip-rule="evenodd" d="M55.7067 40.1668C60.6608 36.1317 69.7003 37.8424 69.7003 37.8424C77.9396 38.8402 85.444 43.6159 89.1966 51.0294C94.9705 62.4343 90.0547 74.4467 90.0547 74.4467C76.83 69.6496 68.5327 54.9761 65.0271 47.4339C63.4661 55.0109 58.7029 65.2858 45.0554 72.5484C45.0554 72.5484 41.1779 51.9996 55.7067 40.1668Z" fill="#0A0F21"/>
</g>
</svg>
