<svg width="21" height="24" viewBox="0 0 21 24" fill="none" xmlns="http://www.w3.org/2000/svg">
<path d="M19.9255 10.506L15.0097 8.31405L13.1198 1.81405C13.0305 1.50705 12.7785 1.30005 12.4967 1.30005C12.215 1.30005 11.963 1.50705 11.8737 1.81305L9.98375 8.31305L5.06625 10.505C4.81512 10.617 4.64888 10.895 4.64888 11.205C4.64888 11.515 4.81512 11.79 5.06712 11.903L9.98462 14.095L11.8746 20.595C11.9639 20.901 12.2159 21.108 12.4976 21.108C12.7794 21.108 13.0314 20.901 13.1206 20.595L15.0106 14.095L19.9281 11.903C20.1792 11.791 20.3455 11.513 20.3455 11.203C20.3455 10.893 20.1793 10.618 19.9272 10.506H19.9255ZM14.2467 12.826C14.0647 12.906 13.923 13.076 13.8617 13.286L12.4967 17.9811L11.1318 13.288C11.0705 13.078 10.9305 12.908 10.7485 12.826L7.11287 11.206L10.7476 9.58405C10.9296 9.50405 11.0714 9.33405 11.1326 9.12205L12.4976 4.42905L13.8626 9.12305C13.9239 9.33505 14.0639 9.50505 14.2459 9.58605L17.8815 11.206L14.2459 12.828L14.2467 12.826ZM5.83012 3.81205H4.18512V2.05005C4.18512 1.63605 3.89025 1.30005 3.52887 1.30005C3.1675 1.30005 2.87262 1.63605 2.87262 2.05005V3.81205H1.3125C0.95025 3.81205 0.65625 4.14805 0.65625 4.56205C0.65625 4.97605 0.95025 5.31205 1.3125 5.31205H2.87175V7.07405C2.87175 7.48805 3.16575 7.82405 3.528 7.82405C3.89025 7.82405 4.18425 7.48805 4.18425 7.07405V5.31205H5.82925C6.19238 5.31205 6.4855 4.97605 6.4855 4.56205C6.4855 4.14805 6.19238 3.81205 5.82925 3.81205H5.83012ZM8.04825 19.434H7.08575V18.418C7.08575 18.004 6.79262 17.668 6.4295 17.668C6.06638 17.668 5.77325 18.004 5.77325 18.418V19.434H4.87375C4.5115 19.434 4.2175 19.7701 4.2175 20.184C4.2175 20.598 4.5115 20.934 4.87375 20.934H5.775V21.9501C5.775 22.364 6.06812 22.7001 6.43125 22.7001C6.79437 22.7001 7.0875 22.364 7.0875 21.9501V20.934H8.04825C8.4105 20.934 8.7045 20.598 8.7045 20.184C8.7045 19.7701 8.4105 19.434 8.04825 19.434Z" fill="black"/>
</svg>
