<svg width="20" height="20" viewBox="0 0 20 20" fill="none" xmlns="http://www.w3.org/2000/svg">
<path fill-rule="evenodd" clip-rule="evenodd" d="M10 18.386C14.7865 18.386 18.6667 14.5641 18.6667 9.84962C18.6667 5.13513 14.7865 1.31328 10 1.31328C5.21353 1.31328 1.33333 5.13513 1.33333 9.84962C1.33333 14.5641 5.21353 18.386 10 18.386ZM10 19.6992C15.5228 19.6992 20 15.2894 20 9.84962C20 4.40983 15.5228 0 10 0C4.47715 0 0 4.40983 0 9.84962C0 15.2894 4.47715 19.6992 10 19.6992Z" fill="#718EBF"/>
<path fill-rule="evenodd" clip-rule="evenodd" d="M13.5355 11.0037L10.3535 14.1379C10.1583 14.3302 9.84169 14.3302 9.64643 14.1379L6.46445 11.0037C6.26918 10.8114 6.26918 10.4996 6.46445 10.3073C6.65971 10.1149 6.97629 10.1149 7.17155 10.3073L9.49998 12.6007L9.49998 6.8949L10.5 6.8949L10.5 12.6007L12.8284 10.3073C13.0237 10.1149 13.3403 10.1149 13.5355 10.3073C13.7308 10.4996 13.7308 10.8114 13.5355 11.0037Z" fill="#718EBF"/>
</svg>
