<svg width="26" height="26" viewBox="0 0 26 26" fill="none" xmlns="http://www.w3.org/2000/svg">
<path d="M25.6388 13.4602C25.644 13.455 25.644 13.455 25.6492 13.4498C25.6648 13.429 25.6805 13.4134 25.6909 13.3926C25.6961 13.3874 25.6961 13.3822 25.7013 13.377C25.7117 13.3562 25.7273 13.3354 25.7377 13.3146C25.7377 13.3094 25.7429 13.3042 25.7429 13.3042C25.7533 13.2833 25.7637 13.2625 25.7741 13.2365C25.7741 13.2313 25.7741 13.2313 25.7793 13.2261C25.7897 13.2053 25.7949 13.1793 25.8053 13.1533C25.8053 13.1481 25.8053 13.1429 25.8105 13.1429C25.8157 13.1169 25.8261 13.0961 25.8261 13.07C25.8261 13.0596 25.8261 13.0544 25.8313 13.044C25.8365 13.0232 25.8365 13.0024 25.8417 12.9816C25.8469 12.9504 25.8469 12.9244 25.8469 12.8932C25.8469 12.862 25.8469 12.8359 25.8417 12.8047C25.8417 12.7839 25.8365 12.7631 25.8313 12.7423C25.8313 12.7319 25.8313 12.7267 25.8261 12.7163C25.8209 12.6903 25.8157 12.6695 25.8105 12.6435C25.8105 12.6383 25.8105 12.6331 25.8053 12.6331C25.8001 12.607 25.7897 12.5862 25.7793 12.5602C25.7793 12.555 25.7793 12.555 25.7741 12.5498C25.7637 12.529 25.7533 12.503 25.7429 12.4822C25.7429 12.477 25.7377 12.4718 25.7377 12.4718C25.7273 12.451 25.7169 12.4302 25.7013 12.4094C25.6961 12.4042 25.6961 12.399 25.6909 12.3938C25.6753 12.3729 25.6648 12.3521 25.6492 12.3365C25.644 12.3313 25.644 12.3313 25.6388 12.3261C25.618 12.3053 25.6024 12.2793 25.5764 12.2585L20.4314 7.11864C20.0828 6.77009 19.5158 6.77009 19.1672 7.11864C18.8186 7.46719 18.8186 8.03424 19.1672 8.38279L22.788 12.0036H8.39328C7.89906 12.0036 7.49849 12.4042 7.49849 12.8932C7.49849 13.3874 7.89906 13.788 8.39328 13.788H22.7932L19.1984 17.3827C18.8499 17.7313 18.8499 18.2983 19.1984 18.6469C19.3701 18.8186 19.599 18.907 19.8279 18.907C20.0568 18.907 20.2857 18.8186 20.4574 18.6469L25.5712 13.5331C25.5972 13.5018 25.618 13.481 25.6388 13.4602Z" fill="white" stroke="white" stroke-width="0.3"/>
<path d="M4.99617 1.93723H11.6551C12.1493 1.93723 12.5499 1.53665 12.5499 1.04764C12.5499 0.553423 12.1493 0.152847 11.6551 0.152847H4.99617C2.3274 0.152847 0.152847 2.3274 0.152847 4.99617V20.7955C0.152847 23.4643 2.3274 25.6388 4.99617 25.6388H11.5458C12.0401 25.6388 12.4406 25.2382 12.4406 24.7492C12.4406 24.255 12.0401 23.8544 11.5458 23.8544H4.99617C3.31063 23.8544 1.93723 22.481 1.93723 20.7955V4.99617C1.94243 3.30543 3.31063 1.93723 4.99617 1.93723Z" fill="white" stroke="white" stroke-width="0.3"/>
</svg>
