<svg width="40" height="40" viewBox="0 0 40 40" fill="none" xmlns="http://www.w3.org/2000/svg">
<circle cx="20" cy="20" r="20" fill="#7A40F2"/>
<mask id="mask0_57_5220" style="mask-type:luminance" maskUnits="userSpaceOnUse" x="0" y="0" width="40" height="40">
<circle cx="20" cy="20" r="20" fill="white"/>
</mask>
<g mask="url(#mask0_57_5220)">
<path fill-rule="evenodd" clip-rule="evenodd" d="M13.8208 10.5371C12.7403 12.5856 10.2541 13.3402 8.07938 14.1375C5.90494 14.9346 3.51439 16.3678 3.34776 18.6779C3.24335 20.1306 4.08987 21.5344 3.9457 22.984C3.64825 25.9761 -0.258398 26.9823 -2.06952 29.3826C-3.37285 31.1102 -3.4636 33.5779 -2.56608 35.5471C-1.66857 37.5164 0.102491 39.0012 2.08723 39.8641C6.18357 41.644 11.1601 40.8321 14.8003 38.2442C18.4401 35.6567 20.7821 31.4802 21.6353 27.0961C22.4885 22.7123 21.9422 18.1386 20.6179 13.8731C20.1259 12.2888 19.432 10.6191 18.0024 9.77711C16.5732 8.93513 14.2703 9.51911 14.0099 11.1575L13.8208 10.5371Z" fill="#0A0F21"/>
<path fill-rule="evenodd" clip-rule="evenodd" d="M12.8781 14.6581C12.8781 8.88783 17.1653 4.21055 22.4539 4.21055C27.7425 4.21055 32.0294 8.88783 32.0294 14.6581C32.0294 20.4281 27.7425 25.1054 22.4539 25.1054C17.1653 25.1054 12.8781 20.4281 12.8781 14.6581Z" fill="#0A0F21"/>
<path fill-rule="evenodd" clip-rule="evenodd" d="M15.5257 12.7566C15.5257 12.7566 13.4648 11.1264 13.4912 10.7643L12.8781 11.0108L14.759 13.3491L15.5257 12.7566Z" fill="#FF05DB"/>
<path fill-rule="evenodd" clip-rule="evenodd" d="M10.6341 41.9848C10.6341 41.9848 18.0036 45.7869 22.0451 45.6941C26.2002 45.5987 35.224 41.4203 35.224 41.4203C35.224 41.4203 33.4572 32.2485 23.8607 34.2772C23.8607 34.2772 14.9025 32.0408 10.6341 41.9848Z" fill="#57C6FF"/>
<path fill-rule="evenodd" clip-rule="evenodd" d="M27.7182 24.1425L19.3643 25.5603L19.2872 35.7654C19.2872 35.7654 19.7668 38.4087 24.0862 38.4828C28.1632 38.5526 28.4348 35.6436 28.4348 35.6436L27.7182 24.1425L15.1245 33.3982Z" fill="#FBDED4"/>
<path fill-rule="evenodd" clip-rule="evenodd" d="M19.3203 31.3596L19.3643 25.5605L19.3203 31.3596Z" fill="#0A0F21"/>
<path fill-rule="evenodd" clip-rule="evenodd" d="M19.7489 31.3725C19.4767 31.3725 19.3219 31.3597 19.3203 31.3594L19.3643 25.5603L27.7182 24.1425L27.9261 27.4822C25.199 31.0665 21.0768 31.3725 19.7489 31.3725Z" fill="#F6D3C8"/>
<path fill-rule="evenodd" clip-rule="evenodd" d="M33.4994 19.4748C33.4994 20.2864 32.512 21.4355 31.3787 21.1053C30.5995 20.8783 29.6016 20.2864 29.6016 19.4748C29.6016 18.6628 30.7389 17.847 31.5505 17.847C32.8602 17.847 33.4994 18.6628 33.4994 19.4748Z" fill="#FBDED4"/>
<path fill-rule="evenodd" clip-rule="evenodd" d="M32.0294 20.0765C32.031 19.8992 32.0601 19.7247 32.1181 19.5572C32.18 19.3902 32.2446 19.2209 32.4301 19.0812C32.472 19.0482 32.5479 19.023 32.6143 19.023C32.6495 19.0263 32.6887 19.029 32.7191 19.0406C32.7473 19.0548 32.7758 19.07 32.8019 19.0882C32.8514 19.1244 32.8766 19.1681 32.9124 19.2078C32.9591 19.2758 32.9585 19.3335 32.9613 19.3826C32.9625 19.5775 32.9033 19.7411 32.8283 19.9023C32.808 19.729 32.7977 19.5514 32.767 19.4063C32.7579 19.3726 32.7439 19.342 32.7379 19.3414L32.6672 19.2837C32.6222 19.2555 32.6134 19.2658 32.5664 19.2916C32.472 19.352 32.3794 19.5031 32.2953 19.6391C32.2125 19.7812 32.1238 19.9272 32.0294 20.0765Z" fill="#EEA08E"/>
<path fill-rule="evenodd" clip-rule="evenodd" d="M14.1046 19.4748C14.1046 20.2864 15.0923 21.4355 16.2254 21.1053C17.0048 20.8783 18.0025 20.2864 18.0025 19.4748C18.0025 18.6628 16.8652 17.847 16.0536 17.847C14.7439 17.847 14.1046 18.6628 14.1046 19.4748Z" fill="#FBDED4"/>
<path fill-rule="evenodd" clip-rule="evenodd" d="M15.5746 20.0765C15.4805 19.9272 15.3919 19.7812 15.309 19.6391C15.2246 19.5031 15.132 19.352 15.0373 19.2916C14.9909 19.2658 14.9821 19.2555 14.9372 19.2837L14.8662 19.3414C14.8601 19.342 14.8461 19.3726 14.837 19.4063C14.8064 19.5514 14.796 19.729 14.776 19.9023C14.7007 19.7411 14.6415 19.5775 14.6428 19.3826C14.6458 19.3335 14.6452 19.2758 14.6916 19.2078C14.7274 19.1681 14.7526 19.1244 14.8021 19.0882C14.8282 19.07 14.8567 19.0548 14.885 19.0406C14.9156 19.029 14.9545 19.0263 14.9897 19.023C15.0562 19.023 15.132 19.0482 15.1742 19.0812C15.3597 19.2209 15.424 19.3902 15.4859 19.5572C15.5442 19.7247 15.5731 19.8992 15.5746 20.0765Z" fill="#EEA08E"/>
<path fill-rule="evenodd" clip-rule="evenodd" d="M31.545 17.3603C31.6898 23.0286 29.0067 28.4465 24.3467 28.5657C19.6864 28.6847 16.3209 23.8463 16.1761 18.178C16.0314 12.5097 19.1616 8.15838 23.8216 8.0391C28.4819 7.91981 31.3999 11.692 31.545 17.3603Z" fill="#FBDED4"/>
<path fill-rule="evenodd" clip-rule="evenodd" d="M21.1915 17.648C21.184 17.9619 20.9891 18.2117 20.7569 18.2062C20.5244 18.2004 20.342 17.9415 20.3496 17.6277C20.3575 17.3138 20.552 17.064 20.7845 17.0695C21.017 17.0753 21.1991 17.3345 21.1915 17.648Z" fill="#172133"/>
<path fill-rule="evenodd" clip-rule="evenodd" d="M27.2545 17.648C27.2469 17.9619 27.0523 18.2117 26.8195 18.2062C26.5873 18.2004 26.4049 17.9415 26.4125 17.6277C26.4201 17.3138 26.6149 17.064 26.8474 17.0695C27.0796 17.0753 27.262 17.3345 27.2545 17.648Z" fill="#172133"/>
<path fill-rule="evenodd" clip-rule="evenodd" d="M22.045 20.617C22.3407 20.9545 22.6424 21.2638 22.972 21.5051C23.3025 21.7421 23.6613 21.9018 24.024 21.8897C24.3876 21.8933 24.7531 21.7291 25.1021 21.5103C25.4506 21.286 25.7769 21.0003 26.1274 20.7165C25.9477 21.1296 25.6928 21.5112 25.3495 21.828C25.178 21.9874 24.9807 22.1234 24.7601 22.2329C24.5364 22.3346 24.2863 22.399 24.0289 22.4056C23.7718 22.4041 23.515 22.3452 23.2904 22.2366C23.0679 22.1237 22.8688 21.9798 22.7073 21.8068C22.3804 21.4662 22.1534 21.0565 22.045 20.617Z" fill="#292929"/>
<path fill-rule="evenodd" clip-rule="evenodd" d="M23.5426 19.551C23.6601 19.3722 23.8021 19.2323 23.9533 19.1063C24.1026 18.9782 24.2641 18.869 24.4335 18.7715L24.4238 19.229C24.2772 19.1179 24.1703 18.9861 24.0875 18.8496C24.0061 18.7114 23.9439 18.5724 23.9011 18.428C23.8122 18.142 23.7757 17.8479 23.81 17.552C23.9727 17.7991 24.1136 18.0373 24.2626 18.2565C24.3415 18.3624 24.4095 18.472 24.4936 18.5588C24.5743 18.6474 24.6556 18.7257 24.7367 18.7779L25.0727 18.9949L24.727 19.2353C24.567 19.3467 24.3992 19.446 24.2195 19.5264C24.041 19.6093 23.8537 19.6779 23.6422 19.7076C23.5863 19.7158 23.5347 19.677 23.5268 19.6211L23.5426 19.551Z" fill="#D1746F"/>
<path fill-rule="evenodd" clip-rule="evenodd" d="M27.9261 6.84426C26.2404 5.47324 23.1645 6.05449 23.1645 6.05449C20.3608 6.39352 17.8073 8.01616 16.5304 10.5351C14.5657 14.4102 16.2384 18.4916 16.2384 18.4916C20.7384 16.8617 23.5618 11.8761 24.7546 9.31341C25.2858 11.8879 26.9066 15.379 31.5505 17.8467C31.5505 17.8467 32.8699 10.8647 27.9261 6.84426Z" fill="#0A0F21"/>
</g>
</svg>
