<svg width="15" height="22" viewBox="0 0 15 22" fill="none" xmlns="http://www.w3.org/2000/svg">
<path fill-rule="evenodd" clip-rule="evenodd" d="M14.1805 5.77982C14.37 5.74376 14.5595 5.77982 14.7017 5.88801C14.8439 5.99619 14.8912 6.14043 14.7965 6.32073L6.74088 21.6104C6.6935 21.7546 6.50395 21.8267 6.31441 21.8267H6.17225C5.93533 21.7907 5.79317 21.6104 5.84055 21.4301L8.30461 10.9004L0.72289 11.9462C0.580733 11.9462 0.39119 11.9101 0.296418 11.838C0.201647 11.7298 0.154261 11.6216 0.154261 11.5134L2.04969 0.478931C2.09708 0.298629 2.28662 0.154387 2.52355 0.154387H9.82096C9.96312 0.154387 10.1053 0.190447 10.2 0.298629C10.2948 0.40681 10.2948 0.514992 10.2474 0.623173L6.78827 7.76315L14.1805 5.77982ZM9.3471 10.4677L7.59383 18.0404L13.517 6.7174L6.17225 8.66466C6.0301 8.73678 5.84055 8.70072 5.6984 8.59254C5.60363 8.52042 5.55624 8.37618 5.60363 8.23194L9.15756 0.875597H2.95002L1.14936 11.0807L8.77847 10.035H8.87324C9.0154 10.035 9.11017 10.071 9.20494 10.1431C9.3471 10.2153 9.39449 10.3595 9.3471 10.4677Z" fill="#3E64E9"/>
<path d="M14.1805 5.77982L14.1515 5.62776L14.1404 5.63074L14.1805 5.77982ZM14.7965 6.32073L14.933 6.39268L14.9331 6.39255L14.7965 6.32073ZM6.74088 21.6104L6.60432 21.5384L6.59828 21.5499L6.59423 21.5622L6.74088 21.6104ZM6.17225 21.8267L6.14903 21.9793L6.16057 21.9811H6.17225V21.8267ZM5.84055 21.4301L5.9899 21.4693L5.99086 21.4653L5.84055 21.4301ZM8.30461 10.9004L8.45492 10.9356L8.50611 10.7168L8.28352 10.7475L8.30461 10.9004ZM0.72289 11.9462V12.1005H0.733486L0.743982 12.0991L0.72289 11.9462ZM0.296418 11.838L0.18031 11.9397L0.19056 11.9514L0.202939 11.9608L0.296418 11.838ZM0.154261 11.5134L0.00212761 11.4873L-0.000100502 11.5003V11.5134H0.154261ZM2.04969 0.478931L1.89983 0.439547L1.89756 0.452799L2.04969 0.478931ZM10.2 0.298629L10.0839 0.400345V0.400345L10.2 0.298629ZM10.2474 0.623173L10.3864 0.690525L10.3888 0.685106L10.2474 0.623173ZM6.78827 7.76315L6.64935 7.69585L6.50212 7.99975L6.82827 7.91224L6.78827 7.76315ZM7.59383 18.0404L7.44344 18.0056L7.7306 18.1119L7.59383 18.0404ZM9.3471 10.4677L9.20571 10.4058L9.19995 10.4189L9.19672 10.4329L9.3471 10.4677ZM13.517 6.7174L13.6538 6.78895L13.8163 6.47837L13.4775 6.56819L13.517 6.7174ZM6.17225 8.66466L6.1327 8.51546L6.11695 8.51963L6.10242 8.527L6.17225 8.66466ZM5.6984 8.59254L5.79188 8.4697L5.79188 8.4697L5.6984 8.59254ZM5.60363 8.23194L5.46463 8.16479L5.46017 8.17402L5.45697 8.18376L5.60363 8.23194ZM9.15756 0.875597L9.29655 0.942745L9.40356 0.721235H9.15756V0.875597ZM2.95002 0.875597V0.721235H2.82051L2.79801 0.848774L2.95002 0.875597ZM1.14936 11.0807L0.997349 11.0539L0.960558 11.2624L1.17033 11.2336L1.14936 11.0807ZM8.77847 10.035V9.8806H8.76794L8.75751 9.88203L8.77847 10.035ZM9.20494 10.1431L9.11146 10.266L9.12261 10.2745L9.1351 10.2808L9.20494 10.1431ZM14.7952 5.76517C14.6128 5.62638 14.3771 5.58529 14.1516 5.62818L14.2093 5.93147C14.3629 5.90224 14.5063 5.93327 14.6082 6.01084L14.7952 5.76517ZM14.9331 6.39255C14.9936 6.27754 15.0167 6.15757 14.9878 6.04039C14.9593 5.92457 14.8854 5.83384 14.7952 5.76517L14.6082 6.01084C14.6601 6.05035 14.681 6.08584 14.688 6.11425C14.6947 6.14132 14.6941 6.18362 14.6598 6.24891L14.9331 6.39255ZM6.87745 21.6823L14.933 6.39268L14.6599 6.24878L6.60432 21.5384L6.87745 21.6823ZM6.31441 21.9811C6.42695 21.9811 6.54494 21.96 6.64642 21.9124C6.74738 21.8652 6.84626 21.7842 6.88753 21.6586L6.59423 21.5622C6.58812 21.5808 6.56854 21.608 6.51549 21.6329C6.46297 21.6575 6.39142 21.6724 6.31441 21.6724V21.9811ZM6.17225 21.9811H6.31441V21.6724H6.17225V21.9811ZM5.69126 21.3908C5.61267 21.6899 5.85523 21.9346 6.14903 21.9793L6.19548 21.6741C6.01542 21.6467 5.97367 21.5309 5.98985 21.4693L5.69126 21.3908ZM8.15431 10.8652L5.69025 21.3949L5.99086 21.4653L8.45492 10.9356L8.15431 10.8652ZM0.743982 12.0991L8.32571 11.0533L8.28352 10.7475L0.701799 11.7933L0.743982 12.0991ZM0.202939 11.9608C0.275589 12.0161 0.371186 12.0494 0.456693 12.0694C0.545359 12.0902 0.640097 12.1005 0.72289 12.1005V11.7918C0.663527 11.7918 0.592414 11.7841 0.527077 11.7688C0.458579 11.7528 0.41202 11.732 0.389898 11.7151L0.202939 11.9608ZM-0.000100502 11.5134C-0.000100502 11.6699 0.0691186 11.8128 0.18031 11.9397L0.412527 11.7363C0.334175 11.6468 0.308623 11.5733 0.308623 11.5134H-0.000100502ZM1.89756 0.452799L0.00212761 11.4873L0.306394 11.5396L2.20183 0.505063L1.89756 0.452799ZM2.52355 2.51178e-05C2.22762 2.51178e-05 1.9683 0.181354 1.9004 0.439695L2.19898 0.518167C2.22586 0.415904 2.34563 0.308748 2.52355 0.308748V2.51178e-05ZM9.82096 2.51178e-05H2.52355V0.308748H9.82096V2.51178e-05ZM10.3162 0.196913C10.1797 0.0411532 9.98455 2.51178e-05 9.82096 2.51178e-05V0.308748C9.94169 0.308748 10.0308 0.339741 10.0839 0.400345L10.3162 0.196913ZM10.3888 0.685106C10.4199 0.614095 10.4402 0.532409 10.4305 0.444098C10.4206 0.354122 10.3813 0.271229 10.3162 0.196912L10.0839 0.400345C10.1136 0.434209 10.1216 0.459498 10.1236 0.477704C10.1258 0.497574 10.1223 0.52407 10.106 0.56124L10.3888 0.685106ZM6.92719 7.83045L10.3863 0.690475L10.1085 0.555871L6.64935 7.69585L6.92719 7.83045ZM14.1404 5.63074L6.74827 7.61406L6.82827 7.91224L14.2205 5.92891L14.1404 5.63074ZM7.74421 18.0752L9.49749 10.5025L9.19672 10.4329L7.44344 18.0056L7.74421 18.0752ZM13.3803 6.64585L7.45705 17.9688L7.7306 18.1119L13.6538 6.78895L13.3803 6.64585ZM6.21181 8.81387L13.5566 6.8666L13.4775 6.56819L6.1327 8.51546L6.21181 8.81387ZM5.60492 8.71538C5.77965 8.84835 6.03263 8.90859 6.24209 8.80232L6.10242 8.527C6.02756 8.56498 5.90146 8.5531 5.79188 8.4697L5.60492 8.71538ZM5.45697 8.18376C5.39122 8.38392 5.45247 8.59937 5.60492 8.71538L5.79188 8.4697C5.75478 8.44148 5.72126 8.36844 5.75028 8.28011L5.45697 8.18376ZM9.01857 0.808448L5.46463 8.16479L5.74262 8.29909L9.29655 0.942745L9.01857 0.808448ZM2.95002 1.02996H9.15756V0.721235H2.95002V1.02996ZM1.30138 11.1075L3.10204 0.902419L2.79801 0.848774L0.997349 11.0539L1.30138 11.1075ZM8.75751 9.88203L1.1284 10.9278L1.17033 11.2336L8.79943 10.1879L8.75751 9.88203ZM8.87324 9.8806H8.77847V10.1893H8.87324V9.8806ZM9.29842 10.0203C9.17693 9.92785 9.04936 9.8806 8.87324 9.8806V10.1893C8.98144 10.1893 9.04341 10.2142 9.11146 10.266L9.29842 10.0203ZM9.48849 10.5296C9.57317 10.3363 9.47963 10.1094 9.27478 10.0055L9.1351 10.2808C9.21458 10.3211 9.21581 10.3827 9.20571 10.4058L9.48849 10.5296Z" fill="#3E64E9"/>
</svg>
