<svg width="30" height="63" viewBox="0 0 30 63" fill="none" xmlns="http://www.w3.org/2000/svg">
<path fill-rule="evenodd" clip-rule="evenodd" d="M28.1704 16.4014C28.5497 16.2969 28.929 16.4014 29.2135 16.7148C29.498 17.0283 29.5928 17.4463 29.4031 17.9687L13.2823 62.2719C13.1875 62.6899 12.8082 62.8989 12.4288 62.8989H12.1443C11.6702 62.7944 11.3857 62.2719 11.4806 61.7495L16.4116 31.2388L1.23908 34.2689C0.954594 34.2689 0.57528 34.1645 0.385623 33.9555C0.195966 33.642 0.101138 33.3285 0.101138 33.0151L3.89428 1.04154C3.9891 0.519093 4.36842 0.101138 4.84256 0.101138H19.4461C19.7306 0.101138 20.0151 0.205627 20.2048 0.519093C20.3944 0.832559 20.3944 1.14602 20.2996 1.45949L13.3771 22.1483L28.1704 16.4014ZM18.4979 29.985L14.9892 51.9276L26.8428 19.1181L12.1444 24.7605C11.8599 24.9695 11.4806 24.865 11.1961 24.5516C11.0064 24.3426 10.9116 23.9246 11.0064 23.5067L18.1186 2.19098H5.69604L2.09256 31.7613L17.3599 28.7311H17.5496C17.8341 28.7311 18.0237 28.8356 18.2134 29.0446C18.4979 29.2536 18.5927 29.6715 18.4979 29.985Z" fill="white"/>
<path d="M28.1704 16.4014L28.1434 16.3033L28.1337 16.3071L28.1704 16.4014ZM29.4031 17.9687L29.4982 18.0033L29.4982 18.0032L29.4031 17.9687ZM13.2823 62.2719L13.1865 62.237L13.1836 62.2495L13.2823 62.2719ZM12.1443 62.8989L12.1226 62.9976L12.1333 63H12.1443V62.8989ZM11.4806 61.7495L11.5801 61.7675L11.5804 61.7656L11.4806 61.7495ZM16.4116 31.2388L16.5115 31.2549L16.5348 31.111L16.3918 31.1396L16.4116 31.2388ZM1.23908 34.2689V34.3701H1.24908L1.25889 34.3681L1.23908 34.2689ZM0.385623 33.9555L0.29907 34.0078L0.304135 34.0162L0.310712 34.0235L0.385623 33.9555ZM0.101138 33.0151L-2.46994e-05 33.0031V33.0151H0.101138ZM3.89428 1.04154L3.79455 1.02344L3.79382 1.02962L3.89428 1.04154ZM20.2048 0.519093L20.1182 0.57146L20.2048 0.519093ZM20.2996 1.45949L20.3956 1.4916L20.3964 1.48878L20.2996 1.45949ZM13.3771 22.1483L13.2812 22.1162L13.2128 22.3206L13.4138 22.2426L13.3771 22.1483ZM14.9892 51.9276L14.8893 51.9116L15.0844 51.962L14.9892 51.9276ZM18.4979 29.985L18.4002 29.9554L18.398 29.969L18.4979 29.985ZM26.8428 19.1181L26.9379 19.1525L27.0131 18.9444L26.8065 19.0237L26.8428 19.1181ZM12.1444 24.7605L12.1081 24.6661L12.0954 24.671L12.0845 24.679L12.1444 24.7605ZM11.1961 24.5516L11.271 24.4836L11.1961 24.5516ZM11.0064 23.5067L10.91 23.4745L10.9078 23.4843L11.0064 23.5067ZM18.1186 2.19098L18.2145 2.22299L18.259 2.08981H18.1186V2.19098ZM5.69604 2.19098V2.08981H5.60646L5.59562 2.17874L5.69604 2.19098ZM2.09256 31.7613L1.99214 31.749L1.97525 31.8877L2.11226 31.8605L2.09256 31.7613ZM17.3599 28.7311V28.6299H17.35L17.3402 28.6319L17.3599 28.7311ZM18.2134 29.0446L18.1385 29.1126L18.1453 29.1201L18.1535 29.1261L18.2134 29.0446ZM29.2884 16.6469C28.9786 16.3055 28.5601 16.1891 28.1435 16.3038L28.1972 16.4989C28.5393 16.4047 28.8794 16.4972 29.1386 16.7828L29.2884 16.6469ZM29.4982 18.0032C29.6993 17.4494 29.6008 16.9911 29.2884 16.6469L29.1386 16.7828C29.3952 17.0656 29.4863 17.4431 29.308 17.9342L29.4982 18.0032ZM13.3774 62.3065L29.4982 18.0033L29.3081 17.9341L13.1872 62.2373L13.3774 62.3065ZM12.4288 63C12.8413 63 13.2728 62.7708 13.3809 62.2943L13.1836 62.2495C13.1021 62.6089 12.775 62.7977 12.4288 62.7977V63ZM12.1443 63H12.4288V62.7977H12.1443V63ZM11.381 61.7314C11.2789 62.2938 11.5828 62.8787 12.1226 62.9976L12.1661 62.8001C11.7576 62.71 11.4925 62.25 11.5801 61.7675L11.381 61.7314ZM16.3118 31.2226L11.3807 61.7333L11.5804 61.7656L16.5115 31.2549L16.3118 31.2226ZM1.25889 34.3681L16.4314 31.338L16.3918 31.1396L1.21927 34.1697L1.25889 34.3681ZM0.310712 34.0235C0.421247 34.1453 0.581019 34.231 0.744309 34.2864C0.908689 34.3421 1.0856 34.3701 1.23908 34.3701V34.1678C1.10807 34.1678 0.953085 34.1435 0.809272 34.0948C0.66437 34.0456 0.539656 33.9747 0.460535 33.8875L0.310712 34.0235ZM-2.46994e-05 33.0151C-2.46994e-05 33.3499 0.101491 33.6813 0.29907 34.0078L0.472177 33.9031C0.290442 33.6027 0.2023 33.3072 0.2023 33.0151H-2.46994e-05ZM3.79382 1.02962L0.00067975 33.0032L0.201596 33.027L3.99473 1.05345L3.79382 1.02962ZM4.84256 -2.46994e-05C4.30284 -2.46994e-05 3.89494 0.471441 3.79474 1.02347L3.99381 1.0596C4.08327 0.566744 4.434 0.2023 4.84256 0.2023V-2.46994e-05ZM19.4461 -2.46994e-05H4.84256V0.2023H19.4461V-2.46994e-05ZM20.2913 0.466725C20.0796 0.116761 19.7581 -2.46994e-05 19.4461 -2.46994e-05V0.2023C19.7031 0.2023 19.9506 0.294492 20.1182 0.57146L20.2913 0.466725ZM20.3964 1.48878C20.4973 1.15528 20.4994 0.810649 20.2913 0.466725L20.1182 0.57146C20.2894 0.854468 20.2915 1.13677 20.2028 1.4302L20.3964 1.48878ZM13.4731 22.1804L20.3955 1.49159L20.2037 1.42739L13.2812 22.1162L13.4731 22.1804ZM28.1337 16.3071L13.3405 22.054L13.4138 22.2426L28.207 16.4957L28.1337 16.3071ZM15.0891 51.9436L18.5978 30.0009L18.398 29.969L14.8893 51.9116L15.0891 51.9436ZM26.7476 19.0838L14.8941 51.8932L15.0844 51.962L26.9379 19.1525L26.7476 19.0838ZM12.1806 24.855L26.879 19.2126L26.8065 19.0237L12.1081 24.6661L12.1806 24.855ZM11.1212 24.6195C11.4233 24.9524 11.8602 25.0948 12.2043 24.8421L12.0845 24.679C11.8596 24.8442 11.5379 24.7776 11.271 24.4836L11.1212 24.6195ZM10.9078 23.4843C10.808 23.9242 10.9031 24.3793 11.1212 24.6195L11.271 24.4836C11.1097 24.3059 11.0153 23.925 11.1051 23.5291L10.9078 23.4843ZM18.0226 2.15896L10.9105 23.4747L11.1024 23.5387L18.2145 2.22299L18.0226 2.15896ZM5.69604 2.29214H18.1186V2.08981H5.69604V2.29214ZM2.19298 31.7735L5.79646 2.20321L5.59562 2.17874L1.99214 31.749L2.19298 31.7735ZM17.3402 28.6319L2.07287 31.6621L2.11226 31.8605L17.3796 28.8303L17.3402 28.6319ZM17.5496 28.6299H17.3599V28.8323H17.5496V28.6299ZM18.2883 28.9766C18.188 28.866 18.0832 28.7782 17.9616 28.7186C17.8391 28.6587 17.705 28.6299 17.5496 28.6299V28.8323C17.6787 28.8323 17.7816 28.8558 17.8726 28.9003C17.9642 28.9452 18.0492 29.0141 18.1385 29.1126L18.2883 28.9766ZM18.5947 30.0143C18.6995 29.6678 18.5987 29.2021 18.2733 28.963L18.1535 29.1261C18.3971 29.305 18.4859 29.6752 18.4011 29.9557L18.5947 30.0143Z" fill="white"/>
</svg>
