<svg width="40" height="40" viewBox="0 0 40 40" fill="none" xmlns="http://www.w3.org/2000/svg">
<circle cx="20" cy="20" r="20" fill="#FF9060"/>
<mask id="mask0_57_5325" style="mask-type:luminance" maskUnits="userSpaceOnUse" x="0" y="0" width="40" height="40">
<circle cx="20" cy="20" r="20" fill="white"/>
</mask>
<g mask="url(#mask0_57_5325)">
<path d="M21.9127 16.0264C21.7051 16.7529 21.1862 17.6869 21.3419 18.4653C21.3419 18.5691 21.3938 18.621 21.4456 18.6729C21.5494 18.7767 21.7051 18.7767 21.8608 18.7248C23.5214 18.3097 24.5592 16.2339 25.2338 14.7809C25.4414 14.262 25.649 13.795 25.7528 13.2241C25.9604 11.823 25.2338 10.3181 24.0403 9.6435C23.5733 9.38403 22.9505 9.17646 22.4316 9.28025C21.8089 9.38403 21.0305 9.90296 20.9267 10.5257C20.771 11.3041 21.4975 11.5635 21.8089 12.1344C22.1203 12.7052 22.224 13.4317 22.224 14.0544C22.224 14.6771 22.1721 15.2999 22.0165 15.8707C21.9127 15.9226 21.9127 15.9745 21.9127 16.0264Z" fill="#110809"/>
<path d="M17.0347 24.3294C17.0347 23.7585 16.9828 23.2396 16.7753 22.7207C16.7234 22.6169 16.6715 22.5131 16.6196 22.4612C16.4639 22.3574 16.2563 22.4093 16.1007 22.4612C13.8174 23.3434 11.7935 24.4332 9.92536 25.99C8.36857 27.2873 6.65609 29.1035 6.24095 31.1793C5.98148 32.4766 5.98148 33.7739 6.29284 35.0713C6.55231 36.3167 7.12313 37.4583 7.69396 38.5481C8.1091 39.3265 8.57614 40.053 9.14697 40.7276C9.56211 41.1947 11.4303 43.6336 12.1049 44.1526C12.3643 43.945 12.8314 43.4261 13.0909 43.1666C13.4541 42.8033 13.8174 42.4401 14.1287 42.025C13.2984 40.7795 12.4162 39.586 11.7416 38.2886C11.0151 36.9913 10.4443 35.5383 10.3405 33.9815C10.2367 32.5804 11.067 31.4387 12.0011 30.5566C13.039 29.5187 14.492 29.0516 15.5298 27.91C15.8931 27.4949 16.2563 27.0278 16.5158 26.5089C16.7753 25.8862 17.0347 25.1078 17.0347 24.3294Z" fill="#FFC70E"/>
<path d="M21.9127 18.4655C21.757 19.2958 21.6013 20.1261 21.7051 20.9564C21.757 21.3715 21.9127 21.7867 22.0684 22.2018C22.1721 22.4094 22.224 22.6169 22.3278 22.8245C22.3797 22.9802 22.5873 23.2916 22.5873 23.4991C23.21 25.3673 22.3278 27.7025 20.5635 28.7403C20.304 28.896 20.0445 28.9998 19.7851 29.0517C19.4218 29.1036 19.1104 28.9479 18.7991 28.7922C18.7472 28.7403 18.6953 28.7403 18.6434 28.6885C17.7093 28.1176 17.1385 27.2354 16.879 26.1976C16.6196 25.0559 16.9309 23.8624 17.398 22.8245C17.5018 22.6169 17.6055 22.3575 17.7093 22.1499C18.0207 21.3715 18.0207 20.5412 18.0207 19.7109C17.9688 18.9325 17.7612 18.1022 17.9169 17.3238C18.0207 16.6492 18.4358 16.0784 19.0067 15.7152C19.4737 15.4038 19.9926 15.3 20.5116 15.3519C20.9786 15.4038 21.6013 15.5595 21.8608 15.9746C22.0684 16.286 22.1721 16.7011 22.1721 17.1163C22.1721 17.5314 22.1202 17.8947 22.0684 18.3098C21.9127 18.2579 21.9127 18.3617 21.9127 18.4655Z" fill="#FFD8CC"/>
<path d="M16.6196 11.2522C17.1904 10.7333 18.6953 11.2003 19.4737 11.0965C20.304 11.0447 21.8089 10.7852 22.4316 11.5117C23.2619 12.4458 23.6252 14.0545 23.5733 15.248C23.4695 17.5832 21.6532 19.6589 19.2661 19.7108C17.9688 19.7627 17.0347 18.9324 16.5158 17.5313C16.412 17.2718 16.2044 16.4415 16.1525 16.1821C15.7893 14.6772 15.9968 11.823 16.6196 11.2522Z" fill="#FFD8CC"/>
<path fill-rule="evenodd" clip-rule="evenodd" d="M17.9754 14.1616C17.9681 14.4382 17.7828 14.6583 17.5618 14.6535C17.3406 14.6484 17.1671 14.4202 17.1743 14.1437C17.1818 13.8671 17.3669 13.647 17.5881 13.6518C17.8093 13.6569 17.9826 13.8853 17.9754 14.1616Z" fill="#172133"/>
<path fill-rule="evenodd" clip-rule="evenodd" d="M20.5055 14.1667C20.4982 14.4433 20.3131 14.6634 20.0917 14.6586C19.8707 14.6535 19.6972 14.4254 19.7044 14.1488C19.7116 13.8722 19.897 13.6521 20.1182 13.6569C20.3391 13.662 20.5127 13.8904 20.5055 14.1667Z" fill="#172133"/>
<path d="M23.0543 15.4555C23.0543 15.8707 23.3657 16.2339 23.7289 16.1821C24.0922 16.1302 24.2998 15.7669 24.2998 15.3518C24.2998 14.9366 23.9884 14.5734 23.6251 14.6253C23.2619 14.6253 23.0543 15.0404 23.0543 15.4555Z" fill="#FAD9CF"/>
<path d="M15.6855 15.5074C15.6855 15.9225 15.9969 16.2858 16.3601 16.2339C16.7234 16.182 16.9309 15.8188 16.9309 15.4036C16.9309 14.9885 16.6196 14.6252 16.2563 14.6771C15.945 14.6771 15.6855 15.0404 15.6855 15.5074Z" fill="#FAD9CF"/>
<path d="M27.6728 23.7066C26.8945 23.032 25.8566 22.7206 24.8706 22.4611C24.196 22.2536 23.5214 22.0979 22.8987 21.8903C22.6911 21.8384 22.2241 21.5789 22.0165 21.6827C21.8089 21.7865 21.8089 22.1498 21.7051 22.3055C21.3419 23.032 20.4078 24.0179 19.6813 24.3812C19.6294 24.485 19.5256 24.5369 19.4218 24.5369C19.3699 24.5369 19.318 24.5369 19.2661 24.485C19.2143 24.485 19.1624 24.485 19.1105 24.485C18.4359 24.2774 18.2802 23.4471 17.9688 22.9282C17.4499 22.0979 16.3601 22.3573 15.6855 22.8244C14.9071 23.3952 14.4401 24.3293 14.1287 25.2115C13.4022 27.4429 13.4541 29.6743 14.0249 31.9057C14.6477 34.3447 14.959 36.8355 15.1666 39.3264C15.2704 40.7275 15.2704 42.1287 15.4261 43.5298C15.5817 44.9309 16.6196 44.3601 17.6056 44.2563C18.0726 44.2044 18.5915 44.2563 19.0586 44.2563L22.6392 44.3082C23.3657 44.3082 24.196 44.2563 24.9225 44.3601C25.2858 44.412 25.7009 44.5676 25.9604 44.2044C26.2198 43.8411 26.2198 42.9071 26.2717 42.4919C26.4274 40.6756 26.635 38.8594 26.635 37.0431C26.6869 36.2647 26.7388 35.4863 26.8426 34.7079C27.102 32.736 27.6728 30.764 27.9842 28.844C28.088 28.2732 28.1918 27.6505 28.2437 27.0796C28.2437 26.0937 28.5031 24.4331 27.6728 23.7066Z" fill="#FFDA3B"/>
<path d="M21.7051 21.0081L23.2619 22.046L21.3419 26.2493L19.3699 24.5887L21.7051 21.0081Z" fill="white"/>
<path d="M17.7612 21.3713L16.7753 22.3573L17.4499 26.2493L19.3699 24.5887L17.7612 21.3713Z" fill="white"/>
<path d="M20.1933 16.5382C20.1414 17.0571 19.5706 17.4722 18.896 17.4722C18.2214 17.4722 17.6505 17.0571 17.5986 16.5382C17.5986 16.5382 18.455 16.9533 18.896 16.9533C19.3199 16.9533 20.1933 16.5382 20.1933 16.5382Z" fill="#D09483"/>
<path d="M30.008 41.0909C30.1118 42.9071 29.5929 47.5256 29.074 48.9786C29.074 48.9786 30.4232 49.2381 31.0459 49.3938C31.2535 49.4457 31.5129 49.4976 31.7205 49.5495C31.8243 49.5495 33.0697 45.5018 33.1216 45.1385C33.7443 42.959 34.2633 40.5201 34.0557 38.2368C33.5887 33.6701 31.8243 29.2592 29.1777 25.5229C28.6069 24.6926 27.9323 23.8623 27.102 23.3434C26.9463 23.2396 26.7907 23.1358 26.5831 23.1358C25.1301 22.8764 24.663 25.2634 24.7668 26.1975C24.8187 27.0797 25.2857 27.91 25.7009 28.5846C26.7388 30.349 27.8804 31.6982 28.555 33.6183C29.4372 36.0572 29.9042 38.4443 30.008 41.0909Z" fill="#FFC70E"/>
<path d="M24.8706 14.6253C24.9225 14.5215 24.9225 14.3658 24.9744 14.262C25.182 13.4836 25.2857 12.6533 25.182 11.823C25.0782 10.8371 24.663 9.90299 23.8846 9.28028C23.0024 8.55377 21.8608 8.13863 20.6673 8.08673C19.0067 8.08673 17.0866 9.02081 16.412 10.5776C16.2044 11.0446 16.1525 11.6155 15.9969 12.0825C15.8931 12.6014 15.6855 13.1204 15.3223 13.4836C15.6336 13.5874 15.945 13.4836 16.2044 13.3279C17.1904 12.7571 18.1245 11.8749 18.7472 10.9409C19.0586 11.5117 19.4218 12.0306 19.8889 12.4977C19.9407 12.5495 19.9926 12.6014 20.0445 12.6014C20.4078 12.9128 20.771 13.2242 21.1862 13.4836C21.7051 13.8469 22.2759 14.1582 22.8468 14.3139C23.1581 14.4177 23.5214 14.4696 23.8327 14.6253C24.1441 14.781 24.4036 15.0404 24.4555 15.3518C24.4036 15.1442 24.5592 15.0404 24.663 14.8328C24.7668 14.8847 24.8187 14.7291 24.8706 14.6253Z" fill="#110809"/>
<path d="M23.9884 6.3224C23.3657 6.37429 22.8987 6.78944 22.743 7.41215C22.4835 8.29434 23.0025 9.17652 22.4835 9.95492C22.2241 10.3701 22.6392 10.7333 23.0025 10.6814C23.5733 11.0447 24.6111 10.7333 25.1301 10.5257C25.7528 10.2663 26.3236 9.79924 26.3755 9.12463C26.4793 7.8273 25.4414 6.16672 23.9884 6.3224Z" fill="#110809"/>
</g>
</svg>
