<svg width="25" height="25" viewBox="0 0 25 25" fill="none" xmlns="http://www.w3.org/2000/svg">
<path fill-rule="evenodd" clip-rule="evenodd" d="M21.1914 9.76557H23.4375C24.1211 9.76557 24.707 10.3515 24.707 11.0351V13.9648C24.707 14.6484 24.1211 15.2343 23.4375 15.2343H21.1914C20.8984 15.2343 20.5078 15.5273 20.4101 15.8202C20.3125 16.2109 20.3125 16.5038 20.6055 16.7968L22.2656 18.457C22.5586 18.6523 22.6562 19.0429 22.6562 19.3359C22.6562 19.6288 22.4609 20.0195 22.2656 20.2148L20.2148 22.2655C19.7265 22.7538 18.9453 22.7538 18.457 22.2655L16.7969 20.6054C16.5039 20.3124 16.1133 20.3124 15.8203 20.4101C15.4297 20.5077 15.2344 20.8007 15.2344 21.1913V23.4374C15.2344 24.121 14.6484 24.7069 13.9648 24.7069H11.0352C10.3516 24.7069 9.76563 24.121 9.76563 23.4374V21.1913C9.76563 20.8984 9.47266 20.5077 9.17969 20.4101C8.78907 20.3124 8.4961 20.3124 8.20313 20.6054L6.54298 22.2655C6.0547 22.7538 5.27345 22.7538 4.78517 22.2655L2.73439 20.2148C2.44143 20.0195 2.34377 19.6288 2.34377 19.3359C2.34377 19.0429 2.53908 18.6523 2.73439 18.457L4.39455 16.7968C4.68752 16.5038 4.68752 16.1132 4.58986 15.8202C4.4922 15.4296 4.19924 15.2343 3.80861 15.2343H1.56252C0.87893 15.2343 0.292993 14.6484 0.292993 13.9648V11.0351C0.292993 10.3515 0.87893 9.76557 1.56252 9.76557H3.80861C4.10158 9.76557 4.4922 9.4726 4.58986 9.17963C4.68752 8.78901 4.68752 8.49604 4.39455 8.20307L2.73439 6.54292C2.44143 6.34761 2.34377 5.95698 2.34377 5.66401C2.34377 5.37105 2.53908 4.98042 2.73439 4.78511L4.78517 2.73433C5.27345 2.24605 6.0547 2.24605 6.54298 2.73433L8.20313 4.39449C8.4961 4.68745 8.88673 4.68745 9.17969 4.5898C9.57032 4.49214 9.76563 4.19917 9.76563 3.80855V1.56246C9.76563 0.878868 10.3516 0.292931 11.0352 0.292931H13.9648C14.6484 0.292931 15.2344 0.878868 15.2344 1.56246V3.80855C15.2344 4.10152 15.5273 4.49214 15.8203 4.5898C16.2109 4.68745 16.5039 4.68745 16.7969 4.39449L18.457 2.73433C18.9453 2.24605 19.7265 2.24605 20.2148 2.73433L22.2656 4.78511C22.5586 4.98042 22.6562 5.37105 22.6562 5.66401C22.6562 5.95698 22.4609 6.34761 22.2656 6.54292L20.6055 8.20307C20.3125 8.49604 20.3125 8.88666 20.4101 9.17963C20.5078 9.57026 20.8008 9.76557 21.1914 9.76557ZM23.4375 14.3554C23.6328 14.3554 23.8281 14.1601 23.8281 13.9648V11.0351C23.8281 10.8398 23.6328 10.6445 23.4375 10.6445H21.1914C20.4101 10.6445 19.8242 10.2538 19.5312 9.57026C19.2383 8.88666 19.4336 8.10542 19.9219 7.61714L21.582 5.95698C21.6797 5.85933 21.6797 5.56636 21.582 5.4687L19.5312 3.41793C19.4336 3.32027 19.1406 3.32027 19.043 3.41793L17.3828 5.07808C16.8945 5.56636 16.1133 5.76167 15.4297 5.4687C14.7461 5.17573 14.3555 4.5898 14.3555 3.80855V1.56246C14.3555 1.36715 14.1602 1.17184 13.9648 1.17184H11.0352C10.8398 1.17184 10.6445 1.36715 10.6445 1.56246V3.80855C10.6445 4.5898 10.2539 5.17573 9.57032 5.4687C8.88673 5.76167 8.10548 5.56636 7.6172 5.07808L5.95704 3.41793C5.85939 3.32027 5.56642 3.32027 5.46876 3.41793L3.41799 5.4687C3.32033 5.56636 3.32033 5.85933 3.41799 5.95698L5.07814 7.61714C5.56642 8.10542 5.76173 8.88666 5.46876 9.57026C5.1758 10.2538 4.58986 10.6445 3.80861 10.6445H1.56252C1.36721 10.6445 1.1719 10.8398 1.1719 11.0351V13.9648C1.1719 14.1601 1.36721 14.3554 1.56252 14.3554H3.80861C4.58986 14.3554 5.1758 14.746 5.46876 15.4296C5.76173 16.1132 5.56642 16.8945 5.07814 17.3827L3.41799 19.0429C3.32033 19.1405 3.32033 19.4335 3.41799 19.5312L5.46876 21.582C5.56642 21.6796 5.85939 21.6796 5.95704 21.582L7.6172 19.9218C8.00782 19.6288 8.39845 19.4335 8.88673 19.4335C9.08204 19.4335 9.37501 19.4335 9.57032 19.5312C10.2539 19.8241 10.6445 20.4101 10.6445 21.1913V23.4374C10.6445 23.6327 10.8398 23.828 11.0352 23.828H13.9648C14.1602 23.828 14.3555 23.6327 14.3555 23.4374V21.1913C14.3555 20.4101 14.7461 19.8241 15.4297 19.5312C16.1133 19.2382 16.8945 19.4335 17.3828 19.9218L19.043 21.582C19.1406 21.6796 19.4336 21.6796 19.5312 21.582L21.582 19.5312C21.6797 19.4335 21.6797 19.1405 21.582 19.0429L19.9219 17.3827C19.4336 16.8945 19.2383 16.1132 19.5312 15.4296C19.8242 14.746 20.4101 14.3554 21.1914 14.3554H23.4375Z" fill="black"/>
<path d="M20.4101 15.8202L20.1322 15.7276L20.1286 15.7383L20.1259 15.7492L20.4101 15.8202ZM22.2656 18.457L22.0584 18.6641L22.079 18.6846L22.1031 18.7007L22.2656 18.457ZM15.8203 20.4101L15.8914 20.6943L15.9023 20.6916L15.913 20.688L15.8203 20.4101ZM9.17969 20.4101L9.27234 20.1321L9.26167 20.1286L9.25075 20.1259L9.17969 20.4101ZM6.54298 22.2655L6.75014 22.4727L6.54298 22.2655ZM4.78517 22.2655L4.57801 22.4727L4.78517 22.2655ZM2.73439 20.2148L2.94155 20.0076L2.92104 19.9871L2.8969 19.971L2.73439 20.2148ZM2.73439 18.457L2.94155 18.6641H2.94155L2.73439 18.457ZM4.58986 15.8202L4.30564 15.8913L4.30837 15.9022L4.31193 15.9129L4.58986 15.8202ZM4.58986 9.17963L4.86779 9.27228L4.87135 9.2616L4.87408 9.25069L4.58986 9.17963ZM2.73439 6.54292L2.94155 6.33576L2.92104 6.31525L2.8969 6.29915L2.73439 6.54292ZM9.17969 4.5898L9.10864 4.30558L9.09772 4.30831L9.08705 4.31186L9.17969 4.5898ZM15.8203 4.5898L15.7277 4.86773L15.7383 4.87129L15.7493 4.87402L15.8203 4.5898ZM18.457 2.73433L18.6642 2.94149L18.457 2.73433ZM20.2148 2.73433L20.0077 2.94149V2.94149L20.2148 2.73433ZM22.2656 4.78511L22.0584 4.99227L22.079 5.01278L22.1031 5.02887L22.2656 4.78511ZM22.2656 6.54292L22.4728 6.75008L22.2656 6.54292ZM20.4101 9.17963L20.6944 9.10858L20.6916 9.09766L20.6881 9.08699L20.4101 9.17963ZM19.9219 7.61714L19.7147 7.40998L19.9219 7.61714ZM21.582 5.95698L21.7892 6.16414V6.16414L21.582 5.95698ZM21.582 5.4687L21.7892 5.26154V5.26154L21.582 5.4687ZM19.5312 3.41793L19.7384 3.21077L19.7384 3.21076L19.5312 3.41793ZM19.043 3.41793L19.2501 3.62509L19.2501 3.62508L19.043 3.41793ZM17.3828 5.07808L17.1756 4.87092H17.1756L17.3828 5.07808ZM15.4297 5.4687L15.5451 5.19942L15.4297 5.4687ZM9.57032 5.4687L9.45491 5.19942L9.57032 5.4687ZM5.95704 3.41793L5.74988 3.62508L5.74988 3.62508L5.95704 3.41793ZM5.46876 3.41793L5.2616 3.21077V3.21077L5.46876 3.41793ZM3.41799 5.4687L3.21083 5.26154H3.21083L3.41799 5.4687ZM3.41799 5.95698L3.62515 5.74982L3.62515 5.74982L3.41799 5.95698ZM5.46876 9.57026L5.19948 9.45485L5.46876 9.57026ZM5.46876 15.4296L5.19948 15.545L5.46876 15.4296ZM5.07814 17.3827L4.87098 17.1756V17.1756L5.07814 17.3827ZM3.41799 19.0429L3.62515 19.2501L3.62515 19.2501L3.41799 19.0429ZM3.41799 19.5312L3.21083 19.7383L3.21083 19.7383L3.41799 19.5312ZM5.46876 21.582L5.2616 21.7891H5.26161L5.46876 21.582ZM5.95704 21.582L6.1642 21.7891H6.1642L5.95704 21.582ZM7.6172 19.9218L7.44142 19.6874L7.42476 19.6999L7.41004 19.7146L7.6172 19.9218ZM9.57032 19.5312L9.4393 19.7932L9.447 19.7971L9.45491 19.8005L9.57032 19.5312ZM17.3828 19.9218L17.1756 20.129H17.1756L17.3828 19.9218ZM19.043 21.582L19.2501 21.3748H19.2501L19.043 21.582ZM19.5312 21.582L19.7384 21.7891L19.7384 21.7891L19.5312 21.582ZM21.582 19.5312L21.7892 19.7383L21.7892 19.7383L21.582 19.5312ZM21.582 19.0429L21.3749 19.2501V19.2501L21.582 19.0429ZM19.9219 17.3827L20.129 17.1756V17.1756L19.9219 17.3827ZM23.4375 9.4726H21.1914V10.0585H23.4375V9.4726ZM25 11.0351C25 10.1897 24.2829 9.4726 23.4375 9.4726V10.0585C23.9593 10.0585 24.414 10.5133 24.414 11.0351H25ZM25 13.9648V11.0351H24.414V13.9648H25ZM23.4375 15.5273C24.2829 15.5273 25 14.8102 25 13.9648H24.414C24.414 14.4866 23.9593 14.9413 23.4375 14.9413V15.5273ZM21.1914 15.5273H23.4375V14.9413H21.1914V15.5273ZM20.6881 15.9129C20.7121 15.8409 20.7867 15.7392 20.9033 15.6518C21.0214 15.5632 21.1315 15.5273 21.1914 15.5273V14.9413C20.9584 14.9413 20.7266 15.0519 20.5517 15.183C20.3753 15.3153 20.2059 15.5067 20.1322 15.7276L20.6881 15.9129ZM20.8126 16.5896C20.7046 16.4816 20.6647 16.3903 20.6509 16.3006C20.6354 16.2002 20.6485 16.0748 20.6944 15.8913L20.1259 15.7492C20.0741 15.9563 20.0384 16.1728 20.0717 16.3897C20.1068 16.6174 20.2134 16.819 20.3983 17.004L20.8126 16.5896ZM22.4728 18.2498L20.8126 16.5896L20.3983 17.004L22.0584 18.6641L22.4728 18.2498ZM22.9492 19.3359C22.9492 19.0062 22.843 18.4898 22.4281 18.2132L22.1031 18.7007C22.2742 18.8148 22.3633 19.0796 22.3633 19.3359H22.9492ZM22.4728 20.4219C22.6004 20.2943 22.7161 20.1168 22.8002 19.9347C22.8834 19.7542 22.9492 19.5399 22.9492 19.3359H22.3633C22.3633 19.4247 22.3314 19.5522 22.2682 19.6892C22.2057 19.8244 22.1261 19.9399 22.0584 20.0076L22.4728 20.4219ZM20.422 22.4727L22.4728 20.4219L22.0584 20.0076L20.0077 22.0584L20.422 22.4727ZM18.2499 22.4727C18.8526 23.0754 19.8193 23.0754 20.422 22.4727L20.0077 22.0584C19.6338 22.4323 19.038 22.4323 18.6642 22.0584L18.2499 22.4727ZM16.5897 20.8126L18.2499 22.4727L18.6642 22.0584L17.004 20.3982L16.5897 20.8126ZM15.913 20.688C16.1426 20.6115 16.4022 20.6251 16.5897 20.8126L17.004 20.3982C16.6056 19.9998 16.0839 20.0134 15.7277 20.1321L15.913 20.688ZM15.5273 21.1913C15.5273 21.0445 15.5637 20.9375 15.6178 20.8632C15.6702 20.791 15.7545 20.7285 15.8914 20.6943L15.7492 20.1259C15.4955 20.1893 15.2868 20.3221 15.1439 20.5185C15.0026 20.7128 14.9414 20.9476 14.9414 21.1913H15.5273ZM15.5273 23.4374V21.1913H14.9414V23.4374H15.5273ZM13.9648 24.9999C14.8102 24.9999 15.5273 24.2828 15.5273 23.4374H14.9414C14.9414 23.9592 14.4866 24.414 13.9648 24.414V24.9999ZM11.0352 24.9999H13.9648V24.414H11.0352V24.9999ZM9.47266 23.4374C9.47266 24.2828 10.1898 24.9999 11.0352 24.9999V24.414C10.5134 24.414 10.0586 23.9592 10.0586 23.4374H9.47266ZM9.47266 21.1913V23.4374H10.0586V21.1913H9.47266ZM9.08705 20.688C9.15908 20.712 9.26073 20.7867 9.34815 20.9032C9.43673 21.0213 9.47266 21.1314 9.47266 21.1913H10.0586C10.0586 20.9583 9.94805 20.7265 9.8169 20.5517C9.6846 20.3753 9.49328 20.2058 9.27234 20.1321L9.08705 20.688ZM8.41029 20.8126C8.51834 20.7045 8.60966 20.6646 8.69934 20.6508C8.79978 20.6354 8.92513 20.6484 9.10864 20.6943L9.25075 20.1259C9.04363 20.0741 8.82718 20.0383 8.61024 20.0717C8.38254 20.1067 8.18089 20.2133 7.99597 20.3982L8.41029 20.8126ZM6.75014 22.4727L8.41029 20.8126L7.99597 20.3982L6.33582 22.0584L6.75014 22.4727ZM4.57801 22.4727C5.1807 23.0754 6.14745 23.0754 6.75014 22.4727L6.33582 22.0584C5.96195 22.4323 5.3662 22.4323 4.99233 22.0584L4.57801 22.4727ZM2.52723 20.4219L4.57801 22.4727L4.99233 22.0584L2.94155 20.0076L2.52723 20.4219ZM2.0508 19.3359C2.0508 19.6655 2.15705 20.182 2.57189 20.4585L2.8969 19.971C2.72581 19.8569 2.63674 19.5921 2.63674 19.3359H2.0508ZM2.52724 18.2498C2.39962 18.3774 2.28388 18.5549 2.19984 18.737C2.11655 18.9175 2.0508 19.1318 2.0508 19.3359H2.63674C2.63674 19.247 2.66865 19.1195 2.73184 18.9826C2.79428 18.8473 2.87386 18.7318 2.94155 18.6641L2.52724 18.2498ZM4.18739 16.5896L2.52724 18.2498L2.94155 18.6641L4.60171 17.004L4.18739 16.5896ZM4.31193 15.9129C4.38848 16.1426 4.37485 16.4022 4.18739 16.5896L4.60171 17.004C5.00018 16.6055 4.98655 16.0839 4.86779 15.7276L4.31193 15.9129ZM3.80861 15.5273C3.95548 15.5273 4.06248 15.5637 4.13678 15.6177C4.20889 15.6702 4.27141 15.7544 4.30564 15.8913L4.87408 15.7492C4.81065 15.4955 4.67786 15.2867 4.48141 15.1439C4.28717 15.0026 4.05237 14.9413 3.80861 14.9413V15.5273ZM1.56252 15.5273H3.80861V14.9413H1.56252V15.5273ZM2.53445e-05 13.9648C2.53445e-05 14.8102 0.717128 15.5273 1.56252 15.5273V14.9413C1.04073 14.9413 0.585962 14.4866 0.585962 13.9648H2.53445e-05ZM2.53445e-05 11.0351V13.9648H0.585962V11.0351H2.53445e-05ZM1.56252 9.4726C0.717128 9.4726 2.53445e-05 10.1897 2.53445e-05 11.0351H0.585962C0.585962 10.5133 1.04073 10.0585 1.56252 10.0585V9.4726ZM3.80861 9.4726H1.56252V10.0585H3.80861V9.4726ZM4.31193 9.08699C4.28792 9.15902 4.21326 9.26066 4.0967 9.34809C3.97859 9.43667 3.86854 9.4726 3.80861 9.4726V10.0585C4.04165 10.0585 4.2734 9.94798 4.44826 9.81684C4.62466 9.68454 4.79415 9.49322 4.86779 9.27228L4.31193 9.08699ZM4.18739 8.41023C4.29544 8.51828 4.33533 8.6096 4.34913 8.69928C4.36458 8.79972 4.35152 8.92507 4.30564 9.10858L4.87408 9.25069C4.92586 9.04357 4.96162 8.82712 4.92825 8.61018C4.89322 8.38248 4.78663 8.18083 4.60171 7.99591L4.18739 8.41023ZM2.52724 6.75008L4.18739 8.41023L4.60171 7.99591L2.94155 6.33576L2.52724 6.75008ZM2.0508 5.66401C2.0508 5.99366 2.15705 6.51012 2.57189 6.78668L2.8969 6.29915C2.72581 6.18509 2.63674 5.9203 2.63674 5.66401H2.0508ZM2.52724 4.57795C2.39962 4.70556 2.28388 4.88307 2.19984 5.06517C2.11655 5.24563 2.0508 5.45994 2.0508 5.66401H2.63674C2.63674 5.57513 2.66865 5.44764 2.73184 5.31071C2.79428 5.17543 2.87386 5.05997 2.94155 4.99227L2.52724 4.57795ZM4.57801 2.52717L2.52724 4.57795L2.94155 4.99227L4.99233 2.94149L4.57801 2.52717ZM6.75014 2.52717C6.14745 1.92448 5.1807 1.92448 4.57801 2.52717L4.99233 2.94149C5.3662 2.56762 5.96195 2.56762 6.33582 2.94149L6.75014 2.52717ZM8.41029 4.18733L6.75014 2.52717L6.33582 2.94149L7.99597 4.60165L8.41029 4.18733ZM9.08705 4.31186C8.85738 4.38842 8.59776 4.37479 8.41029 4.18733L7.99597 4.60165C8.39445 5.00012 8.91607 4.98649 9.27234 4.86773L9.08705 4.31186ZM9.47266 3.80855C9.47266 3.95542 9.43625 4.06241 9.38221 4.13672C9.32977 4.20883 9.24554 4.27135 9.10864 4.30558L9.25075 4.87402C9.50447 4.81059 9.71321 4.67779 9.85608 4.48135C9.99735 4.2871 10.0586 4.0523 10.0586 3.80855H9.47266ZM9.47266 1.56246V3.80855H10.0586V1.56246H9.47266ZM11.0352 -3.67435e-05C10.1898 -3.67435e-05 9.47266 0.717066 9.47266 1.56246H10.0586C10.0586 1.04067 10.5134 0.5859 11.0352 0.5859V-3.67435e-05ZM13.9648 -3.67435e-05H11.0352V0.5859H13.9648V-3.67435e-05ZM15.5273 1.56246C15.5273 0.717066 14.8102 -3.67435e-05 13.9648 -3.67435e-05V0.5859C14.4866 0.5859 14.9414 1.04067 14.9414 1.56246H15.5273ZM15.5273 3.80855V1.56246H14.9414V3.80855H15.5273ZM15.913 4.31186C15.8409 4.28785 15.7393 4.2132 15.6518 4.09663C15.5633 3.97853 15.5273 3.86848 15.5273 3.80855H14.9414C14.9414 4.04158 15.052 4.27334 15.1831 4.4482C15.3154 4.6246 15.5067 4.79409 15.7277 4.86773L15.913 4.31186ZM16.5897 4.18733C16.4817 4.29537 16.3903 4.33527 16.3007 4.34906C16.2002 4.36452 16.0749 4.35145 15.8914 4.30558L15.7493 4.87402C15.9564 4.9258 16.1728 4.96156 16.3898 4.92819C16.6175 4.89316 16.8191 4.78657 17.004 4.60165L16.5897 4.18733ZM18.2499 2.52717L16.5897 4.18733L17.004 4.60165L18.6642 2.94149L18.2499 2.52717ZM20.422 2.52717C19.8193 1.92448 18.8526 1.92448 18.2499 2.52717L18.6642 2.94149C19.038 2.56762 19.6338 2.56762 20.0077 2.94149L20.422 2.52717ZM22.4728 4.57795L20.422 2.52717L20.0077 2.94149L22.0584 4.99227L22.4728 4.57795ZM22.9492 5.66401C22.9492 5.33437 22.843 4.81791 22.4281 4.54135L22.1031 5.02887C22.2742 5.14294 22.3633 5.40773 22.3633 5.66401H22.9492ZM22.4728 6.75008C22.6004 6.62246 22.7161 6.44496 22.8002 6.26286C22.8834 6.0824 22.9492 5.86809 22.9492 5.66401H22.3633C22.3633 5.7529 22.3314 5.88039 22.2682 6.01732C22.2057 6.1526 22.1261 6.26806 22.0584 6.33576L22.4728 6.75008ZM20.8126 8.41023L22.4728 6.75008L22.0584 6.33576L20.3983 7.99591L20.8126 8.41023ZM20.6881 9.08699C20.6115 8.85732 20.6251 8.5977 20.8126 8.41023L20.3983 7.99591C19.9998 8.39438 20.0134 8.91601 20.1322 9.27228L20.6881 9.08699ZM21.1914 9.4726C21.0445 9.4726 20.9375 9.43619 20.8632 9.38215C20.7911 9.32971 20.7286 9.24548 20.6944 9.10858L20.1259 9.25069C20.1893 9.50441 20.3221 9.71315 20.5186 9.85602C20.7128 9.99729 20.9476 10.0585 21.1914 10.0585V9.4726ZM23.5351 13.9648C23.5351 13.9648 23.5351 13.9664 23.5343 13.9698C23.5335 13.9732 23.5319 13.9781 23.529 13.9843C23.5231 13.9971 23.513 14.012 23.4989 14.0262C23.4847 14.0403 23.4698 14.0504 23.457 14.0564C23.4508 14.0592 23.4459 14.0608 23.4425 14.0616C23.4391 14.0624 23.4375 14.0624 23.4375 14.0624V14.6484C23.6304 14.6484 23.7988 14.5549 23.9132 14.4405C24.0275 14.3261 24.1211 14.1577 24.1211 13.9648H23.5351ZM23.5351 11.0351V13.9648H24.1211V11.0351H23.5351ZM23.4375 10.9374C23.4375 10.9374 23.4391 10.9374 23.4425 10.9382C23.4459 10.9391 23.4508 10.9406 23.457 10.9435C23.4698 10.9495 23.4847 10.9596 23.4989 10.9737C23.531 11.0058 23.5351 11.0327 23.5351 11.0351H24.1211C24.1211 10.8422 24.0275 10.6737 23.9132 10.5594C23.7988 10.445 23.6304 10.3515 23.4375 10.3515V10.9374ZM21.1914 10.9374H23.4375V10.3515H21.1914V10.9374ZM19.262 9.68566C19.602 10.4791 20.2953 10.9374 21.1914 10.9374V10.3515C20.525 10.3515 20.0464 10.0286 19.8005 9.45485L19.262 9.68566ZM19.7147 7.40998C19.1488 7.97591 18.918 8.88306 19.262 9.68566L19.8005 9.45485C19.5586 8.89026 19.7184 8.23492 20.129 7.82429L19.7147 7.40998ZM21.3749 5.74982L19.7147 7.40998L20.129 7.82429L21.7892 6.16414L21.3749 5.74982ZM21.3749 5.67586C21.3616 5.66264 21.3558 5.65201 21.3543 5.64923C21.3527 5.64618 21.3535 5.647 21.3552 5.65295C21.3588 5.66555 21.3623 5.6868 21.3623 5.71284C21.3623 5.73888 21.3588 5.76014 21.3552 5.77274C21.3535 5.77868 21.3527 5.77951 21.3543 5.77645C21.3558 5.77367 21.3616 5.76305 21.3749 5.74982L21.7892 6.16414C21.8619 6.09142 21.899 6.00259 21.9186 5.93371C21.9395 5.86086 21.9482 5.78446 21.9482 5.71284C21.9482 5.64123 21.9395 5.56482 21.9186 5.49198C21.899 5.42309 21.8619 5.33427 21.7892 5.26154L21.3749 5.67586ZM19.3241 3.62508L21.3749 5.67586L21.7892 5.26154L19.7384 3.21077L19.3241 3.62508ZM19.2501 3.62508C19.2369 3.63831 19.2263 3.64417 19.2235 3.64562C19.2204 3.64722 19.2213 3.64639 19.2272 3.64469C19.2398 3.64109 19.2611 3.63765 19.2871 3.63765C19.3131 3.63765 19.3344 3.64109 19.347 3.64469C19.3529 3.64639 19.3538 3.64722 19.3507 3.64562C19.3479 3.64417 19.3373 3.63831 19.3241 3.62509L19.7384 3.21076C19.6657 3.13804 19.5768 3.10098 19.508 3.0813C19.4351 3.06048 19.3587 3.05172 19.2871 3.05172C19.2155 3.05172 19.1391 3.06048 19.0662 3.0813C18.9973 3.10098 18.9085 3.13804 18.8358 3.21077L19.2501 3.62508ZM17.59 5.28524L19.2501 3.62509L18.8358 3.21077L17.1756 4.87092L17.59 5.28524ZM15.3143 5.73798C16.1169 6.08195 17.024 5.85117 17.59 5.28524L17.1756 4.87092C16.765 5.28155 16.1097 5.44139 15.5451 5.19942L15.3143 5.73798ZM14.0625 3.80855C14.0625 4.70462 14.5208 5.39792 15.3143 5.73798L15.5451 5.19942C14.9714 4.95355 14.6484 4.47497 14.6484 3.80855H14.0625ZM14.0625 1.56246V3.80855H14.6484V1.56246H14.0625ZM13.9648 1.4648C13.9648 1.4648 13.9664 1.4648 13.9698 1.46561C13.9733 1.46643 13.9782 1.46801 13.9844 1.47089C13.9972 1.47686 14.0121 1.48694 14.0262 1.50107C14.0404 1.51519 14.0504 1.53013 14.0564 1.54292C14.0593 1.54909 14.0609 1.55402 14.0617 1.55746C14.0625 1.56086 14.0625 1.56248 14.0625 1.56246H14.6484C14.6484 1.36952 14.5549 1.2011 14.4406 1.08675C14.3262 0.972387 14.1578 0.878868 13.9648 0.878868V1.4648ZM11.0352 1.4648H13.9648V0.878868H11.0352V1.4648ZM10.9375 1.56246C10.9375 1.56009 10.9416 1.53319 10.9738 1.50107C11.0059 1.46894 11.0328 1.4648 11.0352 1.4648V0.878868C10.8422 0.878868 10.6738 0.972387 10.5594 1.08675C10.4451 1.20111 10.3516 1.36952 10.3516 1.56246H10.9375ZM10.9375 3.80855V1.56246H10.3516V3.80855H10.9375ZM9.68572 5.73798C10.4792 5.39792 10.9375 4.70462 10.9375 3.80855H10.3516C10.3516 4.47497 10.0286 4.95355 9.45491 5.19942L9.68572 5.73798ZM7.41004 5.28524C7.97597 5.85117 8.88313 6.08195 9.68572 5.73798L9.45491 5.19942C8.89033 5.44139 8.23499 5.28155 7.82436 4.87092L7.41004 5.28524ZM5.74988 3.62508L7.41004 5.28524L7.82436 4.87092L6.1642 3.21077L5.74988 3.62508ZM5.67592 3.62509C5.6627 3.63831 5.65207 3.64417 5.64929 3.64562C5.64624 3.64722 5.64707 3.64639 5.65301 3.64469C5.66561 3.64109 5.68686 3.63765 5.7129 3.63765C5.73895 3.63765 5.7602 3.64109 5.7728 3.64469C5.77874 3.64639 5.77957 3.64722 5.77651 3.64562C5.77374 3.64417 5.76311 3.63831 5.74988 3.62508L6.1642 3.21077C6.09148 3.13804 6.00266 3.10098 5.93377 3.0813C5.86092 3.06048 5.78452 3.05172 5.7129 3.05172C5.64129 3.05172 5.56489 3.06048 5.49204 3.0813C5.42315 3.10098 5.33433 3.13804 5.2616 3.21077L5.67592 3.62509ZM3.62515 5.67586L5.67592 3.62508L5.2616 3.21077L3.21083 5.26154L3.62515 5.67586ZM3.62515 5.74982C3.63837 5.76304 3.64424 5.77367 3.64568 5.77645C3.64728 5.77951 3.64645 5.77868 3.64475 5.77274C3.64115 5.76014 3.63771 5.73888 3.63771 5.71284C3.63771 5.6868 3.64115 5.66555 3.64475 5.65295C3.64645 5.647 3.64728 5.64618 3.64568 5.64923C3.64424 5.65201 3.63837 5.66264 3.62515 5.67586L3.21083 5.26154C3.1381 5.33427 3.10104 5.42309 3.08136 5.49198C3.06055 5.56482 3.05178 5.64123 3.05178 5.71284C3.05178 5.78446 3.06055 5.86086 3.08136 5.93371C3.10104 6.0026 3.1381 6.09142 3.21083 6.16414L3.62515 5.74982ZM5.2853 7.40998L3.62515 5.74982L3.21083 6.16414L4.87098 7.82429L5.2853 7.40998ZM5.73804 9.68566C6.08202 8.88306 5.85123 7.97591 5.2853 7.40998L4.87098 7.82429C5.28161 8.23492 5.44145 8.89026 5.19948 9.45485L5.73804 9.68566ZM3.80861 10.9374C4.70468 10.9374 5.39798 10.4791 5.73804 9.68566L5.19948 9.45485C4.95361 10.0286 4.47504 10.3515 3.80861 10.3515V10.9374ZM1.56252 10.9374H3.80861V10.3515H1.56252V10.9374ZM1.46487 11.0351C1.46487 11.0327 1.469 11.0058 1.50113 10.9737C1.53325 10.9416 1.56015 10.9374 1.56252 10.9374V10.3515C1.36958 10.3515 1.20117 10.445 1.08681 10.5594C0.972449 10.6737 0.87893 10.8422 0.87893 11.0351H1.46487ZM1.46487 13.9648V11.0351H0.87893V13.9648H1.46487ZM1.56252 14.0624C1.56255 14.0624 1.56092 14.0624 1.55752 14.0616C1.55408 14.0608 1.54916 14.0592 1.54298 14.0564C1.53019 14.0504 1.51525 14.0403 1.50113 14.0262C1.487 14.012 1.47692 13.9971 1.47095 13.9843C1.46807 13.9781 1.46649 13.9732 1.46567 13.9698C1.46486 13.9664 1.46487 13.9648 1.46487 13.9648H0.87893C0.87893 14.1577 0.972449 14.3261 1.08681 14.4405C1.20117 14.5549 1.36958 14.6484 1.56252 14.6484V14.0624ZM3.80861 14.0624H1.56252V14.6484H3.80861V14.0624ZM5.73804 15.3142C5.39798 14.5207 4.70468 14.0624 3.80861 14.0624V14.6484C4.47504 14.6484 4.95361 14.9713 5.19948 15.545L5.73804 15.3142ZM5.2853 17.5899C5.85123 17.024 6.08202 16.1168 5.73804 15.3142L5.19948 15.545C5.44145 16.1096 5.28161 16.765 4.87098 17.1756L5.2853 17.5899ZM3.62515 19.2501L5.2853 17.5899L4.87098 17.1756L3.21083 18.8357L3.62515 19.2501ZM3.62515 19.324C3.63837 19.3372 3.64424 19.3479 3.64569 19.3506C3.64728 19.3537 3.64645 19.3529 3.64475 19.3469C3.64115 19.3343 3.63771 19.3131 3.63771 19.287C3.63771 19.261 3.64115 19.2397 3.64475 19.2271C3.64645 19.2212 3.64728 19.2204 3.64568 19.2234C3.64423 19.2262 3.63837 19.2368 3.62515 19.2501L3.21083 18.8357C3.1381 18.9085 3.10104 18.9973 3.08136 19.0662C3.06055 19.139 3.05178 19.2154 3.05178 19.287C3.05178 19.3586 3.06055 19.4351 3.08136 19.5079C3.10104 19.5768 3.1381 19.6656 3.21083 19.7383L3.62515 19.324ZM5.67592 21.3748L3.62515 19.324L3.21083 19.7383L5.2616 21.7891L5.67592 21.3748ZM5.74989 21.3748C5.76311 21.3616 5.77374 21.3557 5.77652 21.3543C5.77957 21.3527 5.77874 21.3535 5.7728 21.3552C5.7602 21.3588 5.73895 21.3622 5.7129 21.3622C5.68686 21.3622 5.66561 21.3588 5.65301 21.3552C5.64707 21.3535 5.64624 21.3527 5.64929 21.3543C5.65207 21.3557 5.6627 21.3616 5.67592 21.3748L5.26161 21.7891C5.33433 21.8618 5.42315 21.8989 5.49204 21.9186C5.56489 21.9394 5.64129 21.9482 5.7129 21.9482C5.78452 21.9482 5.86092 21.9394 5.93377 21.9186C6.00266 21.8989 6.09148 21.8618 6.1642 21.7891L5.74989 21.3748ZM7.41004 19.7146L5.74988 21.3748L6.1642 21.7891L7.82436 20.129L7.41004 19.7146ZM8.88673 19.1405C8.30965 19.1405 7.85775 19.3752 7.44142 19.6874L7.79298 20.1562C8.1579 19.8825 8.48724 19.7265 8.88673 19.7265V19.1405ZM9.70134 19.2691C9.55669 19.1968 9.39322 19.1678 9.25767 19.1542C9.11892 19.1403 8.98275 19.1405 8.88673 19.1405V19.7265C8.98602 19.7265 9.09398 19.7267 9.19937 19.7372C9.30796 19.7481 9.38863 19.7679 9.4393 19.7932L9.70134 19.2691ZM10.9375 21.1913C10.9375 20.2953 10.4792 19.602 9.68572 19.2619L9.45491 19.8005C10.0286 20.0463 10.3516 20.5249 10.3516 21.1913H10.9375ZM10.9375 23.4374V21.1913H10.3516V23.4374H10.9375ZM11.0352 23.5351C11.0328 23.5351 11.0059 23.5309 10.9738 23.4988C10.9596 23.4847 10.9496 23.4697 10.9436 23.457C10.9407 23.4508 10.9391 23.4459 10.9383 23.4424C10.9375 23.439 10.9375 23.4374 10.9375 23.4374H10.3516C10.3516 23.6304 10.4451 23.7988 10.5594 23.9131C10.6738 24.0275 10.8422 24.121 11.0352 24.121V23.5351ZM13.9648 23.5351H11.0352V24.121H13.9648V23.5351ZM14.0625 23.4374C14.0625 23.4374 14.0625 23.439 14.0617 23.4424C14.0609 23.4459 14.0593 23.4508 14.0564 23.457C14.0504 23.4697 14.0404 23.4847 14.0262 23.4988C14.0121 23.5129 13.9972 23.523 13.9844 23.529C13.9782 23.5319 13.9733 23.5334 13.9698 23.5343C13.9664 23.5351 13.9648 23.5351 13.9648 23.5351V24.121C14.1578 24.121 14.3262 24.0275 14.4406 23.9131C14.5549 23.7988 14.6484 23.6304 14.6484 23.4374H14.0625ZM14.0625 21.1913V23.4374H14.6484V21.1913H14.0625ZM15.3143 19.2619C14.5208 19.602 14.0625 20.2953 14.0625 21.1913H14.6484C14.6484 20.5249 14.9714 20.0463 15.5451 19.8005L15.3143 19.2619ZM17.59 19.7146C17.024 19.1487 16.1169 18.9179 15.3143 19.2619L15.5451 19.8005C16.1097 19.5585 16.765 19.7183 17.1756 20.129L17.59 19.7146ZM19.2501 21.3748L17.59 19.7146L17.1756 20.129L18.8358 21.7891L19.2501 21.3748ZM19.3241 21.3748C19.3373 21.3616 19.3479 21.3557 19.3507 21.3543C19.3538 21.3527 19.3529 21.3535 19.347 21.3552C19.3344 21.3588 19.3131 21.3622 19.2871 21.3622C19.2611 21.3622 19.2398 21.3588 19.2272 21.3552C19.2213 21.3535 19.2204 21.3527 19.2235 21.3543C19.2263 21.3557 19.2369 21.3616 19.2501 21.3748L18.8358 21.7891C18.9085 21.8618 18.9973 21.8989 19.0662 21.9186C19.1391 21.9394 19.2155 21.9482 19.2871 21.9482C19.3587 21.9482 19.4351 21.9394 19.508 21.9186C19.5768 21.8989 19.6657 21.8618 19.7384 21.7891L19.3241 21.3748ZM21.3749 19.324L19.3241 21.3748L19.7384 21.7891L21.7892 19.7383L21.3749 19.324ZM21.3749 19.2501C21.3616 19.2368 21.3558 19.2262 21.3543 19.2234C21.3527 19.2204 21.3535 19.2212 21.3552 19.2271C21.3588 19.2397 21.3623 19.261 21.3623 19.287C21.3623 19.3131 21.3588 19.3343 21.3552 19.3469C21.3535 19.3529 21.3527 19.3537 21.3543 19.3506C21.3558 19.3479 21.3616 19.3372 21.3748 19.324L21.7892 19.7383C21.8619 19.6656 21.899 19.5768 21.9186 19.5079C21.9395 19.4351 21.9482 19.3586 21.9482 19.287C21.9482 19.2154 21.9395 19.139 21.9186 19.0662C21.899 18.9973 21.8619 18.9085 21.7892 18.8357L21.3749 19.2501ZM19.7147 17.5899L21.3749 19.2501L21.7892 18.8357L20.129 17.1756L19.7147 17.5899ZM19.262 15.3142C18.918 16.1168 19.1488 17.024 19.7147 17.5899L20.129 17.1756C19.7184 16.765 19.5586 16.1096 19.8005 15.545L19.262 15.3142ZM21.1914 14.0624C20.2953 14.0624 19.602 14.5207 19.262 15.3142L19.8005 15.545C20.0464 14.9713 20.525 14.6484 21.1914 14.6484V14.0624ZM23.4375 14.0624H21.1914V14.6484H23.4375V14.0624Z" fill="#242424"/>
<path fill-rule="evenodd" clip-rule="evenodd" d="M8.39846 12.5C8.39846 10.2539 10.2539 8.3984 12.5 8.3984C14.7461 8.3984 16.6016 10.2539 16.6016 12.5C16.6016 14.746 14.7461 16.6015 12.5 16.6015C10.2539 16.6015 8.39846 14.746 8.39846 12.5ZM9.37502 12.5C9.37502 14.1601 10.7422 15.6249 12.5 15.6249C14.2578 15.6249 15.625 14.1601 15.625 12.5C15.625 10.8398 14.1602 9.37496 12.5 9.37496C10.8399 9.37496 9.37502 10.8398 9.37502 12.5Z" fill="black"/>
<path d="M12.5 8.10543C10.0921 8.10543 8.1055 10.0921 8.1055 12.5H8.69143C8.69143 10.4157 10.4157 8.69137 12.5 8.69137V8.10543ZM16.8945 12.5C16.8945 10.0921 14.9079 8.10543 12.5 8.10543V8.69137C14.5843 8.69137 16.3086 10.4157 16.3086 12.5H16.8945ZM12.5 16.8945C14.9079 16.8945 16.8945 14.9078 16.8945 12.5H16.3086C16.3086 14.5842 14.5843 16.3085 12.5 16.3085V16.8945ZM8.1055 12.5C8.1055 14.9078 10.0921 16.8945 12.5 16.8945V16.3085C10.4157 16.3085 8.69143 14.5842 8.69143 12.5H8.1055ZM12.5 15.332C10.9099 15.332 9.66799 14.0043 9.66799 12.5H9.08206C9.08206 14.3159 10.5745 15.9179 12.5 15.9179V15.332ZM15.332 12.5C15.332 14.0043 14.0901 15.332 12.5 15.332V15.9179C14.4255 15.9179 15.918 14.3159 15.918 12.5H15.332ZM12.5 9.66793C13.9984 9.66793 15.332 11.0016 15.332 12.5H15.918C15.918 10.678 14.322 9.08199 12.5 9.08199V9.66793ZM9.66799 12.5C9.66799 11.0016 11.0017 9.66793 12.5 9.66793V9.08199C10.6781 9.08199 9.08206 10.678 9.08206 12.5H9.66799Z" fill="#242424"/>
</svg>
