<svg width="24" height="48" viewBox="0 0 24 48" fill="none" xmlns="http://www.w3.org/2000/svg">
<path fill-rule="evenodd" clip-rule="evenodd" d="M22.8212 12.4287C23.1283 12.3496 23.4353 12.4287 23.6656 12.6657C23.8958 12.9028 23.9726 13.2189 23.8191 13.614L10.7703 47.1199C10.6936 47.436 10.3865 47.5941 10.0795 47.5941H9.84922C9.46544 47.515 9.23516 47.1199 9.31192 46.7248L13.3033 23.65L1.02211 25.9417C0.791842 25.9417 0.484812 25.8626 0.331297 25.7046C0.177782 25.4675 0.101024 25.2304 0.101024 24.9934L3.17132 0.812234C3.24808 0.417118 3.55511 0.101024 3.9389 0.101024H15.7595C15.9898 0.101024 16.2201 0.180048 16.3736 0.417118C16.5271 0.654188 16.5271 0.891258 16.4504 1.12833L10.8471 16.7749L22.8212 12.4287ZM14.992 22.7017L12.1519 39.2967L21.7466 14.4833L9.84922 18.7506C9.61895 18.9086 9.31192 18.8296 9.08164 18.5925C8.92813 18.4345 8.85137 18.1184 8.92813 17.8023L14.6849 1.68154H4.62971L1.71293 24.0451L14.0709 21.7535H14.2244C14.4547 21.7535 14.6082 21.8325 14.7617 21.9905C14.992 22.1486 15.0687 22.4647 14.992 22.7017Z" fill="white"/>
<path d="M23.6656 12.6657L23.5931 12.7361L23.6656 12.6657ZM22.8212 12.4287L22.7959 12.3303L22.7868 12.3337L22.8212 12.4287ZM23.8191 13.614L23.9132 13.6507L23.9133 13.6506L23.8191 13.614ZM10.7703 47.1199L10.6753 47.0829L10.6721 47.0961L10.7703 47.1199ZM9.84922 47.5941L9.82884 47.693L9.83893 47.6951H9.84922V47.5941ZM9.31192 46.7248L9.41114 46.7441L9.41149 46.742L9.31192 46.7248ZM13.3033 23.65L13.4029 23.6672L13.4277 23.524L13.2848 23.5506L13.3033 23.65ZM1.02211 25.9417V26.0427H1.03146L1.04065 26.041L1.02211 25.9417ZM0.331297 25.7046L0.246478 25.7595L0.251883 25.7679L0.258813 25.775L0.331297 25.7046ZM0.101024 24.9934L-2.46717e-05 24.9805V24.9934H0.101024ZM3.17132 0.812234L3.07191 0.792923L3.07108 0.799506L3.17132 0.812234ZM16.3736 0.417118L16.4584 0.362193V0.362193L16.3736 0.417118ZM16.4504 1.12833L16.5455 1.16241L16.5465 1.15945L16.4504 1.12833ZM10.8471 16.7749L10.7519 16.7409L10.6795 16.9433L10.8815 16.8699L10.8471 16.7749ZM12.1519 39.2967L12.0523 39.2796L12.2462 39.3331L12.1519 39.2967ZM14.992 22.7017L14.8958 22.6706L14.8936 22.6775L14.8924 22.6847L14.992 22.7017ZM21.7466 14.4833L21.8409 14.5198L21.9206 14.3136L21.7125 14.3882L21.7466 14.4833ZM9.84922 18.7506L9.8151 18.6555L9.80281 18.6599L9.79204 18.6673L9.84922 18.7506ZM9.08164 18.5925L9.00916 18.6629L9.08164 18.5925ZM8.92813 17.8023L8.83244 17.7681L8.82993 17.7785L8.92813 17.8023ZM14.6849 1.68154L14.7801 1.71552L14.8283 1.58049H14.6849V1.68154ZM4.62971 1.68154V1.58049H4.54098L4.52951 1.66847L4.62971 1.68154ZM1.71293 24.0451L1.61273 24.0321L1.59476 24.1698L1.73135 24.1445L1.71293 24.0451ZM14.0709 21.7535V21.6524H14.0616L14.0525 21.6541L14.0709 21.7535ZM14.7617 21.9905L14.6892 22.0609L14.6962 22.0682L14.7045 22.0739L14.7617 21.9905ZM23.7381 12.5953C23.4819 12.3316 23.1373 12.243 22.796 12.3308L22.8464 12.5265C23.1193 12.4563 23.3887 12.5258 23.5931 12.7361L23.7381 12.5953ZM23.9133 13.6506C23.9954 13.4391 24.0184 13.2423 23.9857 13.0625C23.9528 12.8823 23.8654 12.7264 23.7381 12.5953L23.5931 12.7361C23.6961 12.8422 23.7621 12.9628 23.7868 13.0987C23.8117 13.235 23.7962 13.3938 23.7249 13.5774L23.9133 13.6506ZM10.8645 47.1566L23.9132 13.6507L23.7249 13.5773L10.6762 47.0832L10.8645 47.1566ZM10.0795 47.6951C10.4146 47.6951 10.7769 47.521 10.8685 47.1438L10.6721 47.0961C10.6102 47.3511 10.3584 47.493 10.0795 47.493V47.6951ZM9.84922 47.6951H10.0795V47.493H9.84922V47.6951ZM9.21273 46.7055C9.12697 47.147 9.38314 47.6013 9.82884 47.693L9.8696 47.4951C9.54773 47.4288 9.34335 47.0929 9.41111 46.7441L9.21273 46.7055ZM13.2037 23.6328L9.21235 46.7076L9.41149 46.742L13.4029 23.6672L13.2037 23.6328ZM1.04065 26.041L13.3218 23.7493L13.2848 23.5506L1.00358 25.8423L1.04065 26.041ZM0.258813 25.775C0.351655 25.8706 0.484231 25.9365 0.617406 25.9787C0.751906 26.0213 0.896519 26.0427 1.02211 26.0427V25.8406C0.917437 25.8406 0.793399 25.8225 0.678436 25.7861C0.56215 25.7492 0.464453 25.6966 0.403781 25.6342L0.258813 25.775ZM-2.46717e-05 24.9934C-2.46717e-05 25.2534 0.0844251 25.5093 0.246478 25.7595L0.416115 25.6497C0.271138 25.4258 0.202073 25.2075 0.202073 24.9934H-2.46717e-05ZM3.07108 0.799506L0.000780143 24.9806L0.201269 25.0061L3.27157 0.824962L3.07108 0.799506ZM3.9389 -2.46717e-05C3.49449 -2.46717e-05 3.15556 0.363495 3.07213 0.792964L3.27052 0.831504C3.3406 0.470741 3.61573 0.202073 3.9389 0.202073V-2.46717e-05ZM15.7595 -2.46717e-05H3.9389V0.202073H15.7595V-2.46717e-05ZM16.4584 0.362193C16.2815 0.0890255 16.0143 -2.46717e-05 15.7595 -2.46717e-05V0.202073C15.9653 0.202073 16.1587 0.27107 16.2888 0.472042L16.4584 0.362193ZM16.5465 1.15945C16.6302 0.900925 16.6323 0.630713 16.4584 0.362193L16.2888 0.472042C16.4219 0.677662 16.424 0.88159 16.3542 1.0972L16.5465 1.15945ZM10.9422 16.809L16.5455 1.1624L16.3552 1.09426L10.7519 16.7409L10.9422 16.809ZM22.7868 12.3337L10.8126 16.68L10.8815 16.8699L22.8557 12.5237L22.7868 12.3337ZM12.2515 39.3137L15.0916 22.7188L14.8924 22.6847L12.0523 39.2796L12.2515 39.3137ZM21.6524 14.4469L12.0577 39.2602L12.2462 39.3331L21.8409 14.5198L21.6524 14.4469ZM9.88333 18.8457L21.7807 14.5784L21.7125 14.3882L9.8151 18.6555L9.88333 18.8457ZM9.00916 18.6629C9.25828 18.9194 9.61963 19.0307 9.9064 18.8339L9.79204 18.6673C9.61826 18.7865 9.36555 18.7398 9.15413 18.5221L9.00916 18.6629ZM8.82993 17.7785C8.74732 18.1187 8.82526 18.4736 9.00916 18.6629L9.15413 18.5221C9.031 18.3954 8.95542 18.1181 9.02632 17.8261L8.82993 17.7785ZM14.5898 1.64756L8.83297 17.7683L9.02329 17.8363L14.7801 1.71552L14.5898 1.64756ZM4.62971 1.78259H14.6849V1.58049H4.62971V1.78259ZM1.81313 24.0582L4.72991 1.69461L4.52951 1.66847L1.61273 24.0321L1.81313 24.0582ZM14.0525 21.6541L1.6945 23.9458L1.73135 24.1445L14.0893 21.8528L14.0525 21.6541ZM14.2244 21.6524H14.0709V21.8545H14.2244V21.6524ZM14.8342 21.9201C14.7516 21.8351 14.6649 21.7671 14.5639 21.7208C14.4624 21.6744 14.3517 21.6524 14.2244 21.6524V21.8545C14.3274 21.8545 14.4086 21.872 14.4798 21.9046C14.5515 21.9374 14.6183 21.9879 14.6892 22.0609L14.8342 21.9201ZM15.0881 22.7329C15.1766 22.4594 15.0911 22.0941 14.8189 21.9072L14.7045 22.0739C14.8928 22.2031 14.9608 22.4699 14.8958 22.6706L15.0881 22.7329Z" fill="white"/>
</svg>
