<svg width="40" height="40" viewBox="0 0 40 40" fill="none" xmlns="http://www.w3.org/2000/svg">
<circle cx="20" cy="20" r="20" fill="#FF9060"/>
<mask id="mask0_57_5276" style="mask-type:luminance" maskUnits="userSpaceOnUse" x="0" y="0" width="40" height="40">
<circle cx="20" cy="20" r="20" fill="white"/>
</mask>
<g mask="url(#mask0_57_5276)">
<path fill-rule="evenodd" clip-rule="evenodd" d="M8.88325 39.0722C8.88325 39.0722 17.232 44.0814 20.9055 44.0814C23.911 44.0814 30.924 39.0722 30.924 39.0722C30.924 39.0722 28.2559 28.522 20.5304 30.1552C20.5304 30.1552 12.8907 29.0536 8.88325 39.0722Z" fill="#78ECF1"/>
<path fill-rule="evenodd" clip-rule="evenodd" d="M23.2254 21.9962L16.4998 23.1376L16.4379 31.3533C16.4379 31.3533 16.824 33.4814 20.3014 33.541C23.5836 33.5972 23.802 31.2553 23.802 31.2553L23.2254 21.9962Z" fill="#FFD3C5"/>
<path fill-rule="evenodd" clip-rule="evenodd" d="M16.4646 27.8063L16.4998 23.1376L16.4646 27.8063ZM23.3928 24.6849L23.2254 21.9962L23.3928 24.6849Z" fill="#E5B4AD"/>
<path opacity="0.312988" fill-rule="evenodd" clip-rule="evenodd" d="M16.8094 27.8168C16.5924 27.8168 16.4683 27.8067 16.4646 27.8063L16.4998 23.1376L23.2254 21.9962L23.3928 24.6849C21.197 27.5705 17.8784 27.8168 16.8094 27.8168Z" fill="#E49789"/>
<path fill-rule="evenodd" clip-rule="evenodd" d="M22.1348 6.4769C18.5695 5.1547 14.5755 6.74178 12.6898 10.0437C10.5752 13.7457 9.8851 18.4324 9.8851 22.9283H29.3218C29.3218 22.9283 28.9408 16.9976 28.0731 14.4927C27.4962 12.8284 26.7265 8.18005 22.1348 6.4769Z" fill="#172133"/>
<path fill-rule="evenodd" clip-rule="evenodd" d="M27.4158 18.3077C27.4158 18.9614 26.6209 19.8865 25.7087 19.6206C25.0812 19.4379 24.2778 18.9614 24.2778 18.3077C24.2778 17.6543 25.1936 16.9975 25.8468 16.9975C26.9014 16.9975 27.4158 17.6543 27.4158 18.3077Z" fill="#FFD3C5"/>
<path fill-rule="evenodd" clip-rule="evenodd" d="M26.2327 18.7927C26.2336 18.65 26.2571 18.5095 26.304 18.3746C26.3536 18.2402 26.4057 18.1036 26.555 17.9912C26.5889 17.9648 26.65 17.9446 26.7033 17.9446C26.7316 17.9473 26.7632 17.9492 26.7878 17.9585C26.8106 17.9702 26.8335 17.9824 26.8543 17.9969C26.8944 18.0262 26.9146 18.0611 26.9435 18.0934C26.9809 18.1481 26.9804 18.1945 26.9828 18.2341C26.9838 18.3908 26.9359 18.5225 26.8756 18.6525C26.8594 18.5127 26.8511 18.3697 26.8264 18.2532C26.8191 18.2258 26.8079 18.2011 26.8027 18.2009L26.7458 18.1542C26.7096 18.1317 26.7026 18.14 26.6649 18.1606C26.5889 18.2094 26.5144 18.3311 26.4465 18.4404C26.3798 18.555 26.3084 18.6725 26.2327 18.7927Z" fill="#EEA08E"/>
<path fill-rule="evenodd" clip-rule="evenodd" d="M11.802 18.3077C11.802 18.9614 12.5969 19.8865 13.5091 19.6206C14.1368 19.4379 14.94 18.9614 14.94 18.3077C14.94 17.6543 14.0247 16.9975 13.371 16.9975C12.3164 16.9975 11.802 17.6543 11.802 18.3077Z" fill="#FFD3C5"/>
<path fill-rule="evenodd" clip-rule="evenodd" d="M12.9855 18.7927C12.9095 18.6725 12.8381 18.555 12.7714 18.4404C12.7035 18.3311 12.6292 18.2094 12.5529 18.1606C12.5153 18.14 12.5082 18.1317 12.4721 18.1542L12.4151 18.2009C12.41 18.2011 12.3988 18.2258 12.3914 18.2532C12.3668 18.3697 12.3584 18.5127 12.3423 18.6525C12.282 18.5225 12.2341 18.3908 12.235 18.2341C12.2375 18.1945 12.237 18.1481 12.2744 18.0934C12.3035 18.0611 12.3237 18.0262 12.3636 17.9969C12.3846 17.9824 12.4073 17.9702 12.43 17.9585C12.4547 17.9492 12.4862 17.9473 12.5146 17.9446C12.5681 17.9446 12.6292 17.9648 12.6629 17.9912C12.8122 18.1036 12.8643 18.2402 12.9139 18.3746C12.9608 18.5095 12.9842 18.65 12.9855 18.7927Z" fill="#EEA08E"/>
<path fill-rule="evenodd" clip-rule="evenodd" d="M25.8424 16.6059C25.959 21.1692 23.7991 25.531 20.0473 25.627C16.2957 25.7228 13.5863 21.8273 13.4695 17.264C13.353 12.7009 15.8732 9.19759 19.6248 9.10181C23.3764 9.00577 25.7256 12.0426 25.8424 16.6059Z" fill="#FFD3C5"/>
<path fill-rule="evenodd" clip-rule="evenodd" d="M17.5546 16.8374C17.5485 17.0898 17.3919 17.2912 17.2047 17.2865C17.0178 17.2821 16.8709 17.0735 16.877 16.8208C16.8831 16.5681 17.0398 16.367 17.227 16.3717C17.4141 16.3763 17.5607 16.5847 17.5546 16.8374Z" fill="#172133"/>
<path fill-rule="evenodd" clip-rule="evenodd" d="M22.4356 16.8374C22.4295 17.0898 22.2726 17.2912 22.0857 17.2865C21.8985 17.2821 21.7519 17.0735 21.758 16.8208C21.7641 16.5681 21.9208 16.367 22.1079 16.3717C22.2951 16.3763 22.4417 16.5847 22.4356 16.8374Z" fill="#172133"/>
<path fill-rule="evenodd" clip-rule="evenodd" d="M18.2418 19.2275C18.4798 19.4992 18.7227 19.7479 18.9881 19.9424C19.2542 20.1333 19.5432 20.2618 19.835 20.252C20.1277 20.255 20.4222 20.1225 20.7029 19.9466C20.9835 19.766 21.2461 19.5358 21.5286 19.3076C21.384 19.6402 21.1785 19.9471 20.9021 20.2022C20.7643 20.3307 20.6052 20.4399 20.4278 20.5284C20.2475 20.61 20.0464 20.6621 19.8389 20.6672C19.6322 20.6662 19.4255 20.6186 19.2446 20.5311C19.0653 20.4402 18.9052 20.3246 18.775 20.1851C18.5121 19.9112 18.329 19.581 18.2418 19.2275Z" fill="#D1746F"/>
<path fill-rule="evenodd" clip-rule="evenodd" d="M19.4476 18.3691C19.5422 18.2251 19.6563 18.1127 19.778 18.0113C19.8985 17.908 20.0285 17.82 20.1643 17.7418L20.1568 18.1098C20.039 18.0206 19.953 17.9146 19.8863 17.8044C19.8205 17.6932 19.7707 17.5813 19.7362 17.465C19.6646 17.2348 19.6351 16.9982 19.6629 16.76C19.7939 16.9587 19.9073 17.1507 20.027 17.3271C20.0905 17.4122 20.1453 17.5004 20.2132 17.5705C20.278 17.6419 20.3434 17.7049 20.4087 17.7469L20.6792 17.9214L20.4009 18.1149C20.2721 18.2046 20.137 18.2848 19.9921 18.3495C19.8486 18.416 19.6979 18.4715 19.5275 18.4954C19.4826 18.5018 19.4413 18.4705 19.4347 18.4258L19.4476 18.3691Z" fill="#D1746F"/>
<path fill-rule="evenodd" clip-rule="evenodd" d="M13.3711 16.9975C13.3711 16.9975 14.6578 15.5138 15.5566 12.423C16.425 9.43671 17.9385 11.5699 21.188 11.5699C24.4374 11.5699 24.2778 10.3579 24.2778 10.3579C24.2778 10.3579 20.19 5.72473 15.3428 9.64515C10.4955 13.5658 13.3711 16.9975 13.3711 16.9975Z" fill="#172133"/>
<path fill-rule="evenodd" clip-rule="evenodd" d="M23.5183 10.4938C23.5183 10.4938 23.1237 13.742 25.026 14.5173C25.6308 14.7636 25.4612 14.5124 25.8468 16.9975C25.8468 16.9975 27.0221 11.4406 23.5183 10.4938Z" fill="#172133"/>
</g>
</svg>
