<svg width="20" height="20" viewBox="0 0 20 20" fill="none" xmlns="http://www.w3.org/2000/svg">
<path fill-rule="evenodd" clip-rule="evenodd" d="M10 1.31325C5.21353 1.31325 1.33333 5.13511 1.33333 9.8496C1.33333 14.5641 5.21353 18.3859 10 18.3859C14.7865 18.3859 18.6667 14.5641 18.6667 9.8496C18.6667 5.1351 14.7865 1.31325 10 1.31325ZM10 -2.77491e-05C4.47715 -2.72736e-05 -1.35705e-06 4.4098 -8.74228e-07 9.8496C-3.91405e-07 15.2894 4.47715 19.6992 10 19.6992C15.5228 19.6992 20 15.2894 20 9.8496C20 4.4098 15.5228 -2.82247e-05 10 -2.77491e-05Z" fill="#718EBF"/>
<path fill-rule="evenodd" clip-rule="evenodd" d="M6.46449 8.6956L9.64647 5.56147C9.84173 5.36914 10.1583 5.36914 10.3536 5.56147L13.5356 8.6956C13.7308 8.88793 13.7308 9.19975 13.5356 9.39207C13.3403 9.5844 13.0237 9.5844 12.8284 9.39207L10.5 7.09866L10.5 12.8044L9.50002 12.8044L9.50002 7.09866L7.17159 9.39207C6.97633 9.5844 6.65975 9.5844 6.46449 9.39207C6.26922 9.19975 6.26922 8.88793 6.46449 8.6956Z" fill="#718EBF"/>
</svg>
