<svg width="285" height="288" viewBox="0 0 285 288" fill="none" xmlns="http://www.w3.org/2000/svg">
<g filter="url(#filter0_i_21_2167)">
<ellipse cx="142.629" cy="144.459" rx="101.214" ry="102.435" fill="#F6F5FA"/>
</g>
<path fill-rule="evenodd" clip-rule="evenodd" d="M135.958 168.019L15.0998 242.015L142.629 259.186L270.158 242.015L135.958 168.019Z" fill="white"/>
<g opacity="0.35412" filter="url(#filter1_f_21_2167)">
<ellipse cx="142.628" cy="172.219" rx="92.1035" ry="109.569" fill="#E5E5E5"/>
</g>
<g opacity="0.581055" filter="url(#filter2_f_21_2167)">
<ellipse cx="143.703" cy="166.441" rx="78.5113" ry="83.4033" fill="#6F5CEA" fill-opacity="0.316625"/>
</g>
<ellipse cx="143.066" cy="144.901" rx="85.4569" ry="86.4885" fill="white"/>
<g filter="url(#filter3_i_21_2167)">
<ellipse cx="143.135" cy="144.971" rx="74.392" ry="75.29" stroke="#ECEBF2" stroke-width="0.915316"/>
</g>
<path opacity="0.804129" d="M276.841 123.075C277.846 129.743 278.378 136.569 278.403 143.516L272.611 143.536C272.611 143.698 272.611 143.86 272.611 144.022C272.611 144.184 272.611 144.346 272.611 144.507L278.403 144.528C278.378 151.474 277.846 158.3 276.841 164.968L271.114 164.106C271.066 164.425 271.016 164.744 270.966 165.062L276.687 165.967C275.607 172.8 274.031 179.465 271.997 185.924L266.472 184.184C266.376 184.491 266.278 184.798 266.179 185.105L271.691 186.885C269.572 193.444 266.981 199.786 263.958 205.871L258.771 203.294C258.628 203.582 258.483 203.869 258.338 204.156L263.506 206.771C260.404 212.903 256.86 218.769 252.918 224.326L248.194 220.975C248.008 221.237 247.821 221.498 247.633 221.759L252.333 225.145C248.326 230.708 243.917 235.955 239.15 240.845L235.003 236.801C234.93 236.875 234.858 236.95 234.785 237.024C234.633 237.179 234.48 237.334 234.327 237.489L238.445 241.563C233.633 246.426 228.464 250.927 222.98 255.021L219.514 250.38C219.257 250.573 218.999 250.764 218.74 250.954L222.171 255.621C216.673 259.664 210.864 263.3 204.789 266.488L202.098 261.358C201.99 261.415 201.882 261.471 201.775 261.527C201.598 261.62 201.42 261.711 201.243 261.803L203.895 266.952C197.847 270.068 191.538 272.739 185.01 274.925L183.171 269.432C182.866 269.535 182.561 269.635 182.256 269.735L184.053 275.241C177.611 277.345 170.958 278.976 164.136 280.094L163.199 274.378C162.882 274.43 162.563 274.481 162.245 274.53L163.139 280.253C156.474 281.294 149.65 281.846 142.703 281.872L142.682 276.079C142.52 276.08 142.359 276.08 142.197 276.08C142.035 276.08 141.874 276.08 141.712 276.079L141.691 281.872C134.744 281.846 127.92 281.294 121.256 280.253L122.149 274.53C121.831 274.481 121.513 274.43 121.195 274.378L120.258 280.094C113.436 278.976 106.784 277.345 100.341 275.241L102.139 269.735C101.833 269.635 101.528 269.535 101.223 269.432L99.3841 274.925C92.8563 272.739 86.5473 270.068 80.4989 266.952L83.1513 261.803C82.8657 261.656 82.5807 261.507 82.2963 261.358L79.6056 266.488C73.5298 263.3 67.7213 259.664 62.2231 255.621L65.6543 250.954C65.3954 250.764 65.1372 250.573 64.8798 250.38L61.4143 255.021C55.9306 250.927 50.7613 246.426 45.9495 241.563L50.067 237.489C49.8409 237.26 49.6157 237.031 49.3913 236.801L45.2442 240.845C40.4771 235.955 36.0683 230.708 32.0611 225.145L36.7609 221.759C36.573 221.498 36.3861 221.237 36.2001 220.975L31.4758 224.326C27.5341 218.769 23.9907 212.903 20.8878 206.771L26.056 204.156C25.9108 203.869 25.7667 203.582 25.6235 203.294L20.4364 205.871C17.413 199.786 14.8218 193.444 12.7035 186.885L18.2154 185.105C18.1165 184.798 18.0186 184.491 17.9219 184.184L12.3971 185.924C10.3633 179.465 8.78708 172.8 7.70703 165.967L13.4282 165.062C13.3778 164.744 13.3286 164.425 13.2805 164.106L7.55295 164.968C6.5485 158.3 6.01615 151.474 5.99148 144.528L11.7836 144.507C11.7831 144.345 11.7828 144.184 11.7828 144.022C11.7828 143.86 11.7831 143.698 11.7836 143.536L5.99148 143.516C6.01615 136.569 6.54851 129.743 7.55296 123.075L13.2805 123.938C13.3286 123.618 13.3779 123.3 13.4282 122.981L7.70704 122.077C8.78709 115.244 10.3633 108.578 12.3971 102.12L17.9219 103.859C18.0186 103.552 18.1165 103.245 18.2154 102.939L12.7035 101.159C14.8218 94.5997 17.413 88.2571 20.4364 82.1724L25.6235 84.7499C25.7667 84.4617 25.9108 84.1742 26.056 83.8873L20.8878 81.2721C23.9907 75.1402 27.5341 69.2745 31.4758 63.7176L36.2001 67.0688C36.3861 66.8065 36.573 66.545 36.7609 66.2842L32.0611 62.8988C36.0683 57.3358 40.4771 52.0879 45.2442 47.1989L49.3913 51.2425C49.6157 51.0123 49.8409 50.783 50.067 50.5545L45.9495 46.4807C50.7613 41.6174 55.9306 37.1165 61.4143 33.0219L64.8798 37.663C65.1372 37.4707 65.3954 37.2794 65.6543 37.0891L62.2231 32.4226C67.7213 28.3798 73.5298 24.743 79.6056 21.5558L82.2963 26.6851C82.5807 26.5359 82.8657 26.3878 83.1513 26.2406L80.4989 21.0914C86.5473 17.9758 92.8564 15.304 99.3841 13.1184L101.223 18.6109C101.528 18.5089 101.833 18.4079 102.139 18.3081L100.341 12.802C106.784 10.6986 113.436 9.06772 120.258 7.94969L121.195 13.6656C121.513 13.6136 121.831 13.5627 122.149 13.5129L121.256 7.79009C127.92 6.74925 134.744 6.19737 141.691 6.1718L141.712 11.9639C141.874 11.9634 142.035 11.9631 142.197 11.9631C142.359 11.9631 142.52 11.9634 142.682 11.9639L142.703 6.1718C149.65 6.19737 156.474 6.74926 163.139 7.7901L162.245 13.5129C162.563 13.5627 162.882 13.6136 163.199 13.6656L164.136 7.9497C170.958 9.06772 177.611 10.6986 184.053 12.802L182.256 18.3081C182.561 18.408 182.866 18.5089 183.171 18.6109L185.01 13.1184C191.538 15.304 197.847 17.9759 203.895 21.0915L201.243 26.2407C201.529 26.3878 201.814 26.5359 202.098 26.6851L204.789 21.5558C210.864 24.7431 216.673 28.3798 222.171 32.4226L218.74 37.0891C218.999 37.2794 219.257 37.4708 219.514 37.663L222.98 33.0219C228.464 37.1165 233.633 41.6174 238.445 46.4807L234.327 50.5545C234.553 50.783 234.779 51.0124 235.003 51.2425L239.15 47.1989C243.917 52.0879 248.326 57.3358 252.333 62.8988L247.633 66.2842C247.821 66.545 248.008 66.8065 248.194 67.0688L252.919 63.7176C256.86 69.2745 260.404 75.1403 263.506 81.2722L258.338 83.8874C258.483 84.1743 258.628 84.4618 258.771 84.7499L263.958 82.1725C266.981 88.2572 269.572 94.5997 271.691 101.159L266.179 102.939C266.278 103.245 266.376 103.552 266.472 103.859L271.997 102.12C274.031 108.578 275.607 115.244 276.687 122.077L270.966 122.981C271.016 123.3 271.066 123.618 271.114 123.938L276.841 123.075Z" stroke="#DADADA" stroke-width="11.5771" stroke-dasharray="1.02 20.73"/>
<path d="M266.919 143.239H284.62" stroke="#EAEAEA" stroke-width="1.43"/>
<path d="M0 145.091H17.7002" stroke="#EAEAEA" stroke-width="1.43"/>
<path d="M141.288 0V17.9138" stroke="#EAEAEA" stroke-width="1.43"/>
<path d="M142.559 269.755V287.669" stroke="#EAEAEA" stroke-width="1.43"/>
<defs>
<filter id="filter0_i_21_2167" x="41.4153" y="42.0232" width="202.427" height="205.871" filterUnits="userSpaceOnUse" color-interpolation-filters="sRGB">
<feFlood flood-opacity="0" result="BackgroundImageFix"/>
<feBlend mode="normal" in="SourceGraphic" in2="BackgroundImageFix" result="shape"/>
<feColorMatrix in="SourceAlpha" type="matrix" values="0 0 0 0 0 0 0 0 0 0 0 0 0 0 0 0 0 0 127 0" result="hardAlpha"/>
<feOffset dy="1"/>
<feGaussianBlur stdDeviation="2.5"/>
<feComposite in2="hardAlpha" operator="arithmetic" k2="-1" k3="1"/>
<feColorMatrix type="matrix" values="0 0 0 0 0.508577 0 0 0 0 0.508577 0 0 0 0 0.508577 0 0 0 0.584271 0"/>
<feBlend mode="normal" in2="shape" result="effect1_innerShadow_21_2167"/>
</filter>
<filter id="filter1_f_21_2167" x="-39.2351" y="-27.1092" width="363.726" height="398.657" filterUnits="userSpaceOnUse" color-interpolation-filters="sRGB">
<feFlood flood-opacity="0" result="BackgroundImageFix"/>
<feBlend mode="normal" in="SourceGraphic" in2="BackgroundImageFix" result="shape"/>
<feGaussianBlur stdDeviation="44.8517" result="effect1_foregroundBlur_21_2167"/>
</filter>
<filter id="filter2_f_21_2167" x="13.5116" y="31.3579" width="260.382" height="270.166" filterUnits="userSpaceOnUse" color-interpolation-filters="sRGB">
<feFlood flood-opacity="0" result="BackgroundImageFix"/>
<feBlend mode="normal" in="SourceGraphic" in2="BackgroundImageFix" result="shape"/>
<feGaussianBlur stdDeviation="25.8237" result="effect1_foregroundBlur_21_2167"/>
</filter>
<filter id="filter3_i_21_2167" x="68.285" y="69.2229" width="149.7" height="151.496" filterUnits="userSpaceOnUse" color-interpolation-filters="sRGB">
<feFlood flood-opacity="0" result="BackgroundImageFix"/>
<feBlend mode="normal" in="SourceGraphic" in2="BackgroundImageFix" result="shape"/>
<feColorMatrix in="SourceAlpha" type="matrix" values="0 0 0 0 0 0 0 0 0 0 0 0 0 0 0 0 0 0 127 0" result="hardAlpha"/>
<feOffset/>
<feGaussianBlur stdDeviation="2"/>
<feComposite in2="hardAlpha" operator="arithmetic" k2="-1" k3="1"/>
<feColorMatrix type="matrix" values="0 0 0 0 0.714452 0 0 0 0 0.715415 0 0 0 0 0.860083 0 0 0 0.555753 0"/>
<feBlend mode="normal" in2="shape" result="effect1_innerShadow_21_2167"/>
</filter>
</defs>
</svg>
