<svg width="54" height="54" viewBox="0 0 54 54" fill="none" xmlns="http://www.w3.org/2000/svg">
<rect width="53.3559" height="54.0001" rx="12" fill="#3E64E9"/>
<path fill-rule="evenodd" clip-rule="evenodd" d="M27.172 20C26.6263 20 26.1839 20.4424 26.1839 20.9881V26.5H20.7615C20.2092 26.5 19.7615 26.9477 19.7615 27.5C19.7615 28.0523 20.2092 28.5 20.7615 28.5H26.1839V34.012C26.1839 34.5577 26.6263 35.0001 27.172 35.0001C27.7177 35.0001 28.1601 34.5577 28.1601 34.012V28.5H33.5826C34.1349 28.5 34.5826 28.0523 34.5826 27.5C34.5826 26.9477 34.1349 26.5 33.5826 26.5H28.1601V20.9881C28.1601 20.4424 27.7177 20 27.172 20Z" fill="white"/>
<path d="M26.1839 26.5V26.7009H26.3848V26.5H26.1839ZM26.1839 28.5H26.3848V28.2992H26.1839V28.5ZM28.1601 28.5V28.2992H27.9592V28.5H28.1601ZM28.1601 26.5H27.9592V26.7009H28.1601V26.5ZM26.3848 20.9881C26.3848 20.5534 26.7372 20.2009 27.172 20.2009V19.7992C26.5154 19.7992 25.9831 20.3315 25.9831 20.9881H26.3848ZM26.3848 26.5V20.9881H25.9831V26.5H26.3848ZM20.7615 26.7009H26.1839V26.2992H20.7615V26.7009ZM19.9623 27.5C19.9623 27.0587 20.3201 26.7009 20.7615 26.7009V26.2992C20.0983 26.2992 19.5606 26.8368 19.5606 27.5H19.9623ZM20.7615 28.2992C20.3201 28.2992 19.9623 27.9414 19.9623 27.5H19.5606C19.5606 28.1632 20.0983 28.7009 20.7615 28.7009V28.2992ZM26.1839 28.2992H20.7615V28.7009H26.1839V28.2992ZM26.3848 34.012V28.5H25.9831V34.012H26.3848ZM27.172 34.7992C26.7372 34.7992 26.3848 34.4468 26.3848 34.012H25.9831C25.9831 34.6686 26.5154 35.2009 27.172 35.2009V34.7992ZM27.9592 34.012C27.9592 34.4468 27.6068 34.7992 27.172 34.7992V35.2009C27.8286 35.2009 28.3609 34.6686 28.3609 34.012H27.9592ZM27.9592 28.5V34.012H28.3609V28.5H27.9592ZM33.5826 28.2992H28.1601V28.7009H33.5826V28.2992ZM34.3817 27.5C34.3817 27.9414 34.0239 28.2992 33.5826 28.2992V28.7009C34.2458 28.7009 34.7834 28.1632 34.7834 27.5H34.3817ZM33.5826 26.7009C34.0239 26.7009 34.3817 27.0587 34.3817 27.5H34.7834C34.7834 26.8368 34.2458 26.2992 33.5826 26.2992V26.7009ZM28.1601 26.7009H33.5826V26.2992H28.1601V26.7009ZM27.9592 20.9881V26.5H28.3609V20.9881H27.9592ZM27.172 20.2009C27.6068 20.2009 27.9592 20.5534 27.9592 20.9881H28.3609C28.3609 20.3315 27.8286 19.7992 27.172 19.7992V20.2009Z" fill="white"/>
</svg>
